{
	"patcher" : 	{
		"fileversion" : 1,
		"appversion" : 		{
			"major" : 8,
			"minor" : 1,
			"revision" : 11,
			"architecture" : "x64",
			"modernui" : 1
		}
,
		"classnamespace" : "box",
		"rect" : [ 369.0, 145.0, 1207.0, 714.0 ],
		"bglocked" : 0,
		"openinpresentation" : 0,
		"default_fontsize" : 12.0,
		"default_fontface" : 0,
		"default_fontname" : "Arial",
		"gridonopen" : 1,
		"gridsize" : [ 15.0, 15.0 ],
		"gridsnaponopen" : 1,
		"objectsnaponopen" : 1,
		"statusbarvisible" : 2,
		"toolbarvisible" : 1,
		"lefttoolbarpinned" : 0,
		"toptoolbarpinned" : 0,
		"righttoolbarpinned" : 0,
		"bottomtoolbarpinned" : 0,
		"toolbars_unpinned_last_save" : 0,
		"tallnewobj" : 0,
		"boxanimatetime" : 200,
		"enablehscroll" : 1,
		"enablevscroll" : 1,
		"devicewidth" : 0.0,
		"description" : "",
		"digest" : "",
		"tags" : "",
		"style" : "",
		"subpatcher_template" : "",
		"assistshowspatchername" : 0,
		"boxes" : [ 			{
				"box" : 				{
					"fontface" : 3,
					"fontsize" : 14.0,
					"id" : "obj-48",
					"maxclass" : "comment",
					"numinlets" : 1,
					"numoutlets" : 0,
					"patching_rect" : [ 11.0, 558.0, 130.0, 22.0 ],
					"text" : "additive synthesis"
				}

			}
, 			{
				"box" : 				{
					"fontface" : 3,
					"fontsize" : 14.0,
					"id" : "obj-47",
					"maxclass" : "comment",
					"numinlets" : 1,
					"numoutlets" : 0,
					"patching_rect" : [ 11.0, 40.0, 51.0, 22.0 ],
					"text" : "timbre"
				}

			}
, 			{
				"box" : 				{
					"data" : [ 123, "png", "IBkSG0fBZn....PCIgDQRA..H.A...f.HX....v5tzKs....DLmPIQEBHf.B7g.YHB...HSRDEDU3wY6NGS...BD.D5LZlLM5FiePHAT..........78VU2pyvO..........XN6Gz2pAHTxsiJV.....jTQNQjqBAlf" ],
					"embed" : 1,
					"id" : "obj-46",
					"maxclass" : "fpic",
					"numinlets" : 1,
					"numoutlets" : 1,
					"outlettype" : [ "jit_matrix" ],
					"patching_rect" : [ 5.0, 551.0, 572.0, 13.0 ],
					"pic" : "separation_line1.png"
				}

			}
, 			{
				"box" : 				{
					"id" : "obj-45",
					"linecount" : 3,
					"maxclass" : "comment",
					"numinlets" : 1,
					"numoutlets" : 0,
					"patching_rect" : [ 32.0, 64.0, 540.0, 47.0 ],
					"text" : "It would be nearly impossible to study synthesis without simultaneously studying and discussing timbre.  These two subjects are related and nearly inseparable, as each is concerned with how to make sounds from its constituent sonic parts."
				}

			}
, 			{
				"box" : 				{
					"fontface" : 2,
					"id" : "obj-44",
					"maxclass" : "comment",
					"numinlets" : 1,
					"numoutlets" : 0,
					"patching_rect" : [ 184.0, 302.0, 58.0, 20.0 ],
					"text" : "over time"
				}

			}
, 			{
				"box" : 				{
					"fontface" : 1,
					"fontname" : "Arial ",
					"fontsize" : 12.0,
					"id" : "obj-43",
					"maxclass" : "comment",
					"numinlets" : 1,
					"numoutlets" : 0,
					"patching_rect" : [ 299.0, 304.0, 127.0, 18.0 ],
					"text" : "spectral morphology",
					"textcolor" : [ 0.292172193527222, 0.0, 0.998296856880188, 1.0 ]
				}

			}
, 			{
				"box" : 				{
					"autofit" : 1,
					"data" : [ 2306, "png", "IBkSG0fBZn....PCIgDQRA...fE...fQHX.....RIM02....DLmPIQEBHf.B7g.YHB..HjaRDEDU3wY6b8FaSbdF+GrPo.iDGXIQkz1.EVjYabrkVJpixJGsZJTMUqIktVAdHxGpW9zHY+gp6CkhbkFx6CCbU0jokMOMvHXdcKVZcFUUChjrhqXFBF1bTlY8xDNBbF1QNJ8b3L7zOX6367eRbbty4bR9I8p3684t2mK+7qetm2euO1KgHhvhP0vRmquAluix.Am.iLbT02MZTnxDbBz661Fpuw0fSb0wTWWoUAohf2EGAfTMNhWMclFEpGAGoGhcRxMYyn8.pl6zpPkHXQxUmLxH2jMijeA0wiZUnJwfieq+DLbb+4wxow68WFPMbolEpBA+om4jYNvfUvKRfB6Ar.3822eDCoFNUqBk+CE7DmjPB9hkwR.6lH.P17EQ4cqFEJ9L3DCcc7QodsImGAsr5L1zavHXAv45aPk1sZVn3Db3accjL5qIz0OXixMthUgFAvEuP+XgRVwJNAema5C..LleMn+QyxnHRRrt5C+mEHLrBSvigqbAW..nscskbrF8e+IvUpySTYcrlEJ9L3kC..VrC80kkk3vyu+Mm7nkozNViB0QKBFVjM+lXn+Fd02OywKNCd1f0VOVsrNFA+11eUIG2.V4BjovplZZIj75O6ceCbvKJoCCOGVe1O.bdJVBQx2Qit5pKze+8WhC2Cvv82KFbkeS78ZtNrT.LQz+Gt70+uxNquVyaCeq0spRzGUXPYW2RDxFKHXzAIPDIDvQdD7Aj8.KbT7QgCQTK9FrL.iceDYnyiWdy6KOmCGXyIA44unJkd.q6IX.Nb6nQW42tQ66GMozNUCCEdFbbvOXnBalwBrb.8JqK05P4h1DlbXJehrmtwPt3EUN2Ug.EhfCQVMTHhMYiy8BwcjSQH3ombMX06r2MUnXVlGbBLbf9vf2svmgtMrUr0lpEKoHGw4cnzeuQn.arYlFiYOJ0DgJVTxYQb0S7FEXiMyf888+Nk5vOuAkDAO7E903o63z40FiI6HBEC1YAbboENaMTAwLcJuHuqBFRf0raJ8hf8Zgg.iMJ1TNZkeL5niRc2c2kM+MCmAGE+t1MjWKFrzC932pUjdQvO0yzFfe2fOdo9Vu5fQGcTzc2cW172Lhfid0SgNtXt8yZ1M9yGZmxV2csabq.vEtQHMFCWlwLffGCtO1Aysai1gq2p0bD0npl1J5D.W5Z7HARf3wSj60t..EedvSDAW4x9w3x57Iw1egmBqHqjbEEhgQBGFg+7aiQkZXU5vi2vigGqg5vpV9bSseGOdbvyyC85KSZhTrAqCX2XNZK3LasED4IaSodDYZlr5glKTElmmmNvANPYyeEIAGhLyjcFC8H+TDBPbLSOwJeL7Pka4eJ2Dbw84zwtC7IaMEL3PcrSIGGE+gWey3nEZcGLL4s6Kd3WDG8BCWT2BUpn3H3kAY6RLCmEzpjskO5m8An8rDX2.mc3yuGXD.F55bfHQDvicvl0Pe3W78leWskE07bAejQowOcHsR0EHGFk9QeVxo+zUOoH4pSPvnyLwaC2CYXNbO5zlgHRWSYoPKaoQYFGShQqd+Pz1VpM0QUgl2lQfSeULofa0sS7AdLKa3GbpjiqBGEYHhkkUgjT.vZE+3sWqrtV+Vdd.7Q3Vijou5189AmjvxdG3NE0sQkHJx7fIbuf+SbiamLK30s4mEM2vJSY6gXjA6A+qgAftMgc7seb40c1CFC82qOrlV1AdxpSa4A3N2rWLv+G4Y7TWnYyCNlOaYz4kStNu7N6bx3udxo30CSVX.wZ0mzQirKYWPr5q7IIjFMOXhj+vrrWjQLxooT1LXiBm0U5gCDXsmQYsXdk7fNSj+xnjaZXBlHJhDhg0ZVDYLxisTewCYLSAkjX.uqNI.iT5jEjtpPiNJue24z1DLQTL+YJGJVNW4p2qPDJfO+TXIDrPvjWiqPDQ7NIFT3Y6pMz7DLQDIDzcl7hMXg7GdZVvqfexH.YfyLYJ8xoYsPyEkIQEAASDQjXXxokLeTuSatI9HEXACBAIKrRzfnSGk8YtoQ4lfK8ZSqp5PaG5TH1q0ENyINF5ni8fi2A.XMBtV2FZp9pAhEFCbkyiie5Lpza0WH7SaYckraqzfxUevOLA9hwGGiO93PXh339hIvCeHvRqZ43qViN7HSLL7O3WAO6KzLV4bXQRnYyCdViPtS9s7rblSVdf1TKBk.0udXB.8cion5KmGBEn9fiiA58iwktFOvxqFe8swhc2Rdp.3pZDOmAf1uBOruW8JegIqQwr6+y32BuyKuIb3r1oYVNW3u+qdEHuN1WMX1MKvA8inGqUj82hNkDIFaH7Ie34ves6yCue98..vZ2.CZ8G0NZc6abZtZEFkdzEQx8TTaZ4qbUi30JAvRdUsvvhjOmly89ggk5zrYxDKHn+mQss+Jg7fE7kiv4xZr4VUOw7ai.XI0QaGAxMGq787yjUxavvR12uXzaCPL640Uiaf7hYUHhoTi3pySehSj7OyFmJA28t2EwimrvVFx86f8bzTwpzuWbxi+ywKoes.3KPngRsoTieMzG.V5S77XnT8oSmNTSM0nP2Q4Ak7aMwltYvVI4JWJRt4.AXgTpeNN10t10LZWryW6HG4HJzcS9QoOCdE0fMLElYac6P5daLRu+FrmiBXxwqfZK3UMyvYO6YSNC9deJZ8o2Kpk6L3T+juaNO4Nz0bhewO7WhKm53S9OBhWpwjmkNc5Tn6lBfR+8FQxiYow7XjnRlUJjDgb38Xcx3xpwOlLIq3SFxaVRgHDxOYyj73xlJyxiNKWIGeVEjBCY2s+TOTQfBEnGxR5J8wfUYZDqnPL.YDfLZ0MEjOH40iSxbVDK.HNG9l9wRgwreoxh7jCtrKqJoMCjcOAT8J3QHnGxTd8OCYxrCJvzIopJgbD6oTQhnCC+2b.b6nQv8uOvirlFPyaTO1TS0UVW0VzQFFQhEChh.qn50hFpuN7nygKaTwH3EQ9wh+9AqxXQBVkwhDrJiEIXUFKRvpL9R.WwUW9c0UY1L.....IUjSD4pPfIH" ],
					"embed" : 1,
					"forceaspect" : 1,
					"id" : "obj-40",
					"maxclass" : "fpic",
					"numinlets" : 1,
					"numoutlets" : 1,
					"outlettype" : [ "jit_matrix" ],
					"patching_rect" : [ 197.0, 398.0, 69.0, 54.886363636363633 ],
					"pic" : "C4_trebleclef.png"
				}

			}
, 			{
				"box" : 				{
					"id" : "obj-39",
					"linecount" : 5,
					"maxclass" : "comment",
					"numinlets" : 1,
					"numoutlets" : 0,
					"patching_rect" : [ 32.0, 462.0, 545.0, 74.0 ],
					"text" : "The C4 fundamental above would sound very different as played by a piano, violin, clarinet, or bell, because all of these instruments have different spectrums and spectral morphologies.  In European concert music, designing an instruments' timbre is usually not the role of the composer, song-writer, or performer.   However, computer music opens up many possibilities for both designing timbre and composing with that timbre!"
				}

			}
, 			{
				"box" : 				{
					"id" : "obj-38",
					"maxclass" : "comment",
					"numinlets" : 1,
					"numoutlets" : 0,
					"patching_rect" : [ 32.0, 374.0, 521.0, 20.0 ],
					"text" : "Interestingly, the majority of European music notation reduces sound entirely to the fundamental:"
				}

			}
, 			{
				"box" : 				{
					"fontface" : 1,
					"fontname" : "Arial ",
					"fontsize" : 12.0,
					"id" : "obj-37",
					"maxclass" : "comment",
					"numinlets" : 1,
					"numoutlets" : 0,
					"patching_rect" : [ 432.0, 250.0, 63.0, 18.0 ],
					"text" : "spectrum",
					"textcolor" : [ 0.292172193527222, 0.0, 0.998296856880188, 1.0 ]
				}

			}
, 			{
				"box" : 				{
					"id" : "obj-19",
					"linecount" : 2,
					"maxclass" : "comment",
					"numinlets" : 1,
					"numoutlets" : 0,
					"patching_rect" : [ 32.0, 332.0, 545.0, 33.0 ],
					"text" : "A sine tone (cycle~) is the simplest timbre, a single frequency.  Every other sound you've ever heard contains many frequencies evolving over time!"
				}

			}
, 			{
				"box" : 				{
					"fontface" : 1,
					"fontsize" : 12.0,
					"id" : "obj-36",
					"linecount" : 2,
					"maxclass" : "comment",
					"numinlets" : 1,
					"numoutlets" : 0,
					"patching_rect" : [ 52.0, 649.5, 525.0, 33.0 ],
					"text" : "We can generate a new timbre by summing up many of any DSP engine.  These may be sine tones, resonant filters, FM engines, samples...anything."
				}

			}
, 			{
				"box" : 				{
					"id" : "obj-42",
					"linecount" : 2,
					"maxclass" : "comment",
					"numinlets" : 1,
					"numoutlets" : 0,
					"patching_rect" : [ 32.0, 611.5, 545.0, 33.0 ],
					"text" : "Most traditionally, this involves summing many sine tones (each with its own frequency and amp) to create one composite sound spectrum.  However!  We might generalize this principle as:"
				}

			}
, 			{
				"box" : 				{
					"fontface" : 2,
					"fontsize" : 11.0,
					"id" : "obj-35",
					"maxclass" : "comment",
					"numinlets" : 1,
					"numoutlets" : 0,
					"patching_rect" : [ 950.5, 180.0, 229.0, 19.0 ],
					"text" : "here set in the Inspector to \"sonogram\" mode"
				}

			}
, 			{
				"box" : 				{
					"fontface" : 3,
					"fontsize" : 11.0,
					"id" : "obj-33",
					"maxclass" : "comment",
					"numinlets" : 1,
					"numoutlets" : 0,
					"patching_rect" : [ 935.5, 160.0, 86.0, 19.0 ],
					"text" : "spectroscope~"
				}

			}
, 			{
				"box" : 				{
					"fontface" : 1,
					"fontname" : "Arial ",
					"fontsize" : 12.0,
					"id" : "obj-32",
					"maxclass" : "comment",
					"numinlets" : 1,
					"numoutlets" : 0,
					"patching_rect" : [ 32.0, 588.0, 115.0, 18.0 ],
					"text" : "Additive synthesis",
					"textcolor" : [ 0.292172193527222, 0.0, 0.998296856880188, 1.0 ]
				}

			}
, 			{
				"box" : 				{
					"fontface" : 1,
					"fontname" : "Arial ",
					"fontsize" : 12.0,
					"id" : "obj-31",
					"maxclass" : "comment",
					"numinlets" : 1,
					"numoutlets" : 0,
					"patching_rect" : [ 110.0, 262.5, 48.0, 18.0 ],
					"text" : "Timbre",
					"textcolor" : [ 0.292172193527222, 0.0, 0.998296856880188, 1.0 ]
				}

			}
, 			{
				"box" : 				{
					"fontface" : 1,
					"fontname" : "Arial ",
					"fontsize" : 12.0,
					"id" : "obj-30",
					"maxclass" : "comment",
					"numinlets" : 1,
					"numoutlets" : 0,
					"patching_rect" : [ 468.0, 203.5, 69.0, 18.0 ],
					"text" : "harmonics",
					"textcolor" : [ 0.292172193527222, 0.0, 0.998296856880188, 1.0 ]
				}

			}
, 			{
				"box" : 				{
					"fontface" : 1,
					"fontname" : "Arial ",
					"fontsize" : 12.0,
					"id" : "obj-29",
					"maxclass" : "comment",
					"numinlets" : 1,
					"numoutlets" : 0,
					"patching_rect" : [ 387.0, 203.5, 66.0, 18.0 ],
					"text" : "overtones",
					"textcolor" : [ 0.292172193527222, 0.0, 0.998296856880188, 1.0 ]
				}

			}
, 			{
				"box" : 				{
					"fontface" : 1,
					"fontname" : "Arial ",
					"fontsize" : 12.0,
					"id" : "obj-28",
					"maxclass" : "comment",
					"numinlets" : 1,
					"numoutlets" : 0,
					"patching_rect" : [ 322.0, 203.5, 51.0, 18.0 ],
					"text" : "partials",
					"textcolor" : [ 0.292172193527222, 0.0, 0.998296856880188, 1.0 ]
				}

			}
, 			{
				"box" : 				{
					"fontface" : 1,
					"fontname" : "Arial ",
					"fontsize" : 12.0,
					"id" : "obj-9",
					"maxclass" : "comment",
					"numinlets" : 1,
					"numoutlets" : 0,
					"patching_rect" : [ 317.0, 134.0, 80.0, 18.0 ],
					"text" : "fundamental",
					"textcolor" : [ 0.292172193527222, 0.0, 0.998296856880188, 1.0 ]
				}

			}
, 			{
				"box" : 				{
					"data" : [ 123, "png", "IBkSG0fBZn....PCIgDQRA..H.A...f.HX....v5tzKs....DLmPIQEBHf.B7g.YHB...HSRDEDU3wY6NGS...BD.D5LZlLM5FiePHAT..........78VU2pyvO..........XN6Gz2pAHTxsiJV.....jTQNQjqBAlf" ],
					"embed" : 1,
					"id" : "obj-60",
					"maxclass" : "fpic",
					"numinlets" : 1,
					"numoutlets" : 1,
					"outlettype" : [ "jit_matrix" ],
					"patching_rect" : [ 5.0, 691.5, 1169.5, 10.0 ],
					"pic" : "separation_line1.png"
				}

			}
, 			{
				"box" : 				{
					"domain" : [ 0.0, 8000.0 ],
					"id" : "obj-24",
					"interval" : 1,
					"maxclass" : "spectroscope~",
					"monochrome" : 0,
					"numinlets" : 2,
					"numoutlets" : 1,
					"outlettype" : [ "" ],
					"patching_rect" : [ 599.0, 147.0, 165.0, 331.0 ],
					"range" : [ 0.0, 0.5 ],
					"scroll" : 3,
					"sono" : 1,
					"sonohicolor" : [ 0.985947, 0.0, 0.035458, 1.0 ],
					"sonomedcolor" : [ 0.873224, 0.579445, 0.273735, 1.0 ],
					"sonomedhicolor" : [ 0.981355, 0.217123, 0.210942, 1.0 ],
					"sonomedlocolor" : [ 1.0, 1.0, 1.0, 1.0 ]
				}

			}
, 			{
				"box" : 				{
					"domain" : [ 0.0, 8000.0 ],
					"id" : "obj-18",
					"interval" : 1,
					"maxclass" : "spectroscope~",
					"monochrome" : 0,
					"numinlets" : 2,
					"numoutlets" : 1,
					"outlettype" : [ "" ],
					"patching_rect" : [ 772.5, 147.0, 161.0, 331.0 ],
					"range" : [ 0.0, 0.5 ],
					"scroll" : 3,
					"sono" : 1,
					"sonohicolor" : [ 0.985947, 0.0, 0.035458, 1.0 ],
					"sonomedcolor" : [ 0.873224, 0.579445, 0.273735, 1.0 ],
					"sonomedhicolor" : [ 0.981355, 0.217123, 0.210942, 1.0 ],
					"sonomedlocolor" : [ 1.0, 1.0, 1.0, 1.0 ]
				}

			}
, 			{
				"box" : 				{
					"id" : "obj-34",
					"maxclass" : "comment",
					"numinlets" : 1,
					"numoutlets" : 0,
					"patching_rect" : [ 32.0, 586.0, 537.0, 20.0 ],
					"text" : "                                 is the the generation of a sound by summing (mixing) many composite sounds."
				}

			}
, 			{
				"box" : 				{
					"id" : "obj-27",
					"linecount" : 5,
					"maxclass" : "comment",
					"numinlets" : 1,
					"numoutlets" : 0,
					"patching_rect" : [ 32.0, 248.0, 545.0, 74.0 ],
					"text" : "We say that the collection of frequencies (all the partials) in a sound are its                  , a term that evokes color.               , sometimes thought of as \"sonic color\", refers to the overall character or quality of a sound.  Though elusive to define, we now know timbre results from a sound's spectrum, with each partial having its own amplitude; furthermore, timbre is affected by how these partials morph in both freq and amp                 , a sound's                                      ."
				}

			}
, 			{
				"box" : 				{
					"id" : "obj-26",
					"linecount" : 3,
					"maxclass" : "comment",
					"numinlets" : 1,
					"numoutlets" : 0,
					"patching_rect" : [ 32.0, 189.0, 545.0, 47.0 ],
					"text" : "As you see on the spectroscope~ (sonogram), C4 played on a piano isn't just C4.  Above C4, there are additional energies present; these are the various               , or                   , or                    \n(these terms are synonymous).  Partials appear as horizontal stripes in a spectroscope~ / sonogram."
				}

			}
, 			{
				"box" : 				{
					"id" : "obj-25",
					"linecount" : 4,
					"maxclass" : "comment",
					"numinlets" : 1,
					"numoutlets" : 0,
					"patching_rect" : [ 32.0, 119.0, 540.0, 60.0 ],
					"text" : "When you hear a single note played on a piano, you hear a distinct pitch.  If asked to sing back \"the note\" you heard, you would most likely sing back the                        , which is the lowest pitch in a sound, usually having the most energy (amplitude); however, every note played on a piano is a complex waveform containing many tones / frequencies!"
				}

			}
, 			{
				"box" : 				{
					"arrows" : 1,
					"id" : "obj-23",
					"justification" : 1,
					"linecolor" : [ 0.0, 0.0, 0.0, 1.0 ],
					"maxclass" : "live.line",
					"numinlets" : 1,
					"numoutlets" : 0,
					"patching_rect" : [ 935.5, 463.0, 19.0, 10.0 ]
				}

			}
, 			{
				"box" : 				{
					"id" : "obj-22",
					"maxclass" : "comment",
					"numinlets" : 1,
					"numoutlets" : 0,
					"patching_rect" : [ 953.5, 458.0, 49.0, 20.0 ],
					"text" : "261 Hz"
				}

			}
, 			{
				"box" : 				{
					"id" : "obj-21",
					"maxclass" : "comment",
					"numinlets" : 1,
					"numoutlets" : 0,
					"patching_rect" : [ 644.0, 475.0, 79.0, 20.0 ],
					"text" : "C4 sine tone"
				}

			}
, 			{
				"box" : 				{
					"id" : "obj-20",
					"maxclass" : "comment",
					"numinlets" : 1,
					"numoutlets" : 0,
					"patching_rect" : [ 811.5, 475.0, 83.0, 20.0 ],
					"text" : "C4 on a piano"
				}

			}
, 			{
				"box" : 				{
					"id" : "obj-16",
					"maxclass" : "newobj",
					"numinlets" : 2,
					"numoutlets" : 1,
					"outlettype" : [ "signal" ],
					"patching_rect" : [ 599.0, 101.0, 110.0, 22.0 ],
					"text" : "cycle~ 261.626007"
				}

			}
, 			{
				"box" : 				{
					"id" : "obj-15",
					"maxclass" : "message",
					"numinlets" : 2,
					"numoutlets" : 1,
					"outlettype" : [ "" ],
					"patching_rect" : [ 1034.0, 42.0, 43.0, 22.0 ],
					"text" : "loop 1"
				}

			}
, 			{
				"box" : 				{
					"fontsize" : 10.0,
					"hidden" : 1,
					"id" : "obj-13",
					"maxclass" : "newobj",
					"numinlets" : 1,
					"numoutlets" : 1,
					"outlettype" : [ "bang" ],
					"patching_rect" : [ 1034.0, 13.0, 52.0, 20.0 ],
					"text" : "loadbang"
				}

			}
, 			{
				"box" : 				{
					"id" : "obj-11",
					"maxclass" : "newobj",
					"numinlets" : 1,
					"numoutlets" : 1,
					"outlettype" : [ "signal" ],
					"patching_rect" : [ 986.0, 42.0, 43.0, 22.0 ],
					"text" : "sig~ 1"
				}

			}
, 			{
				"box" : 				{
					"id" : "obj-3",
					"maxclass" : "newobj",
					"numinlets" : 3,
					"numoutlets" : 2,
					"outlettype" : [ "signal", "signal" ],
					"patching_rect" : [ 986.0, 101.0, 87.0, 22.0 ],
					"saved_object_attributes" : 					{
						"basictuning" : 440,
						"followglobaltempo" : 0,
						"formantcorrection" : 0,
						"loopend" : [ 0.0, "ms" ],
						"loopstart" : [ 0.0, "ms" ],
						"mode" : "basic",
						"originallength" : [ 1915.885679129278287, "ticks" ],
						"originaltempo" : 120.0,
						"phase" : [ 0.0, "ticks" ],
						"pitchcorrection" : 0,
						"quality" : "basic",
						"timestretch" : [ 0 ]
					}
,
					"text" : "groove~ piano"
				}

			}
, 			{
				"box" : 				{
					"fontsize" : 10.0,
					"hidden" : 1,
					"id" : "obj-1",
					"maxclass" : "newobj",
					"numinlets" : 1,
					"numoutlets" : 1,
					"outlettype" : [ "bang" ],
					"patching_rect" : [ 1097.5, 13.0, 52.0, 20.0 ],
					"text" : "loadbang"
				}

			}
, 			{
				"box" : 				{
					"id" : "obj-12",
					"maxclass" : "message",
					"numinlets" : 2,
					"numoutlets" : 1,
					"outlettype" : [ "" ],
					"patching_rect" : [ 1097.5, 42.0, 101.0, 22.0 ],
					"text" : "read piano_c4.aif"
				}

			}
, 			{
				"box" : 				{
					"id" : "obj-10",
					"maxclass" : "newobj",
					"numinlets" : 1,
					"numoutlets" : 2,
					"outlettype" : [ "float", "bang" ],
					"patching_rect" : [ 1097.5, 101.0, 81.0, 22.0 ],
					"text" : "buffer~ piano"
				}

			}
, 			{
				"box" : 				{
					"id" : "obj-8",
					"maxclass" : "gain~",
					"multichannelvariant" : 0,
					"numinlets" : 1,
					"numoutlets" : 2,
					"outlettype" : [ "signal", "" ],
					"parameter_enable" : 0,
					"patching_rect" : [ 986.0, 542.0, 118.0, 23.0 ]
				}

			}
, 			{
				"box" : 				{
					"id" : "obj-7",
					"maxclass" : "message",
					"numinlets" : 2,
					"numoutlets" : 1,
					"outlettype" : [ "" ],
					"patching_rect" : [ 937.5, 542.0, 33.0, 22.0 ],
					"text" : "stop"
				}

			}
, 			{
				"box" : 				{
					"id" : "obj-4",
					"maxclass" : "message",
					"numinlets" : 2,
					"numoutlets" : 1,
					"outlettype" : [ "" ],
					"patching_rect" : [ 857.5, 542.0, 74.0, 22.0 ],
					"text" : "startwindow"
				}

			}
, 			{
				"box" : 				{
					"id" : "obj-2",
					"maxclass" : "newobj",
					"numinlets" : 2,
					"numoutlets" : 0,
					"patching_rect" : [ 986.0, 586.0, 37.0, 22.0 ],
					"text" : "dac~"
				}

			}
, 			{
				"box" : 				{
					"fontface" : 3,
					"fontsize" : 18.0,
					"id" : "obj-5",
					"maxclass" : "comment",
					"numinlets" : 1,
					"numoutlets" : 0,
					"patching_rect" : [ 0.0, 9.5, 272.0, 27.0 ],
					"text" : "intro to timbre - and synthesis "
				}

			}
 ],
		"lines" : [ 			{
				"patchline" : 				{
					"destination" : [ "obj-12", 0 ],
					"hidden" : 1,
					"source" : [ "obj-1", 0 ]
				}

			}
, 			{
				"patchline" : 				{
					"destination" : [ "obj-3", 0 ],
					"source" : [ "obj-11", 0 ]
				}

			}
, 			{
				"patchline" : 				{
					"destination" : [ "obj-10", 0 ],
					"source" : [ "obj-12", 0 ]
				}

			}
, 			{
				"patchline" : 				{
					"destination" : [ "obj-15", 0 ],
					"hidden" : 1,
					"source" : [ "obj-13", 0 ]
				}

			}
, 			{
				"patchline" : 				{
					"destination" : [ "obj-3", 0 ],
					"source" : [ "obj-15", 0 ]
				}

			}
, 			{
				"patchline" : 				{
					"destination" : [ "obj-24", 0 ],
					"source" : [ "obj-16", 0 ]
				}

			}
, 			{
				"patchline" : 				{
					"destination" : [ "obj-18", 0 ],
					"order" : 1,
					"source" : [ "obj-3", 0 ]
				}

			}
, 			{
				"patchline" : 				{
					"destination" : [ "obj-8", 0 ],
					"order" : 0,
					"source" : [ "obj-3", 0 ]
				}

			}
, 			{
				"patchline" : 				{
					"destination" : [ "obj-2", 0 ],
					"source" : [ "obj-4", 0 ]
				}

			}
, 			{
				"patchline" : 				{
					"destination" : [ "obj-2", 0 ],
					"source" : [ "obj-7", 0 ]
				}

			}
, 			{
				"patchline" : 				{
					"destination" : [ "obj-2", 1 ],
					"order" : 0,
					"source" : [ "obj-8", 0 ]
				}

			}
, 			{
				"patchline" : 				{
					"destination" : [ "obj-2", 0 ],
					"order" : 1,
					"source" : [ "obj-8", 0 ]
				}

			}
 ],
		"dependency_cache" : [ 			{
				"name" : "C4_trebleclef.png",
				"bootpath" : "~/Documents/Max 8/Packages/CNMAT-Pedagogy/media/internal",
				"patcherrelativepath" : "../../../../media/internal",
				"type" : "PNG",
				"implicit" : 1
			}
 ],
		"autosave" : 0
	}

}
