{
	"patcher" : 	{
		"fileversion" : 1,
		"appversion" : 		{
			"major" : 8,
			"minor" : 3,
			"revision" : 1,
			"architecture" : "x64",
			"modernui" : 1
		}
,
		"classnamespace" : "box",
		"rect" : [ 209.0, 131.0, 1229.0, 735.0 ],
		"bglocked" : 0,
		"openinpresentation" : 0,
		"default_fontsize" : 12.0,
		"default_fontface" : 0,
		"default_fontname" : "Arial",
		"gridonopen" : 1,
		"gridsize" : [ 15.0, 15.0 ],
		"gridsnaponopen" : 1,
		"objectsnaponopen" : 1,
		"statusbarvisible" : 2,
		"toolbarvisible" : 1,
		"lefttoolbarpinned" : 0,
		"toptoolbarpinned" : 0,
		"righttoolbarpinned" : 0,
		"bottomtoolbarpinned" : 0,
		"toolbars_unpinned_last_save" : 0,
		"tallnewobj" : 0,
		"boxanimatetime" : 200,
		"enablehscroll" : 1,
		"enablevscroll" : 1,
		"devicewidth" : 0.0,
		"description" : "",
		"digest" : "",
		"tags" : "",
		"style" : "",
		"subpatcher_template" : "",
		"assistshowspatchername" : 0,
		"boxes" : [ 			{
				"box" : 				{
					"id" : "obj-11",
					"linecount" : 2,
					"maxclass" : "comment",
					"numinlets" : 1,
					"numoutlets" : 0,
					"patching_rect" : [ 41.0, 34.0, 723.0, 33.0 ],
					"text" : "We use resonators~ here instead of poly~ because depending on the harmonicity, this equation gives us a variable number of partials. \npoly~ is perhaps best when there is a known number of partials (and number of abstraction instances)."
				}

			}
, 			{
				"box" : 				{
					"fontname" : "Courier",
					"fontsize" : 16.0,
					"id" : "obj-86",
					"maxclass" : "comment",
					"numinlets" : 1,
					"numoutlets" : 0,
					"patching_rect" : [ 654.5, 258.0, 21.0, 22.0 ],
					"text" : "±"
				}

			}
, 			{
				"box" : 				{
					"fontface" : 0,
					"fontsize" : 10.0,
					"id" : "obj-85",
					"linecount" : 4,
					"maxclass" : "comment",
					"numinlets" : 1,
					"numoutlets" : 0,
					"patching_rect" : [ 523.75, 236.0, 224.0, 51.0 ],
					"text" : "71 sliders: though in the codebox we request 35 overtones, our equation gives us double that because it involves both       .  abs() makes all values positive."
				}

			}
, 			{
				"box" : 				{
					"fontsize" : 10.0,
					"hidden" : 1,
					"id" : "obj-84",
					"maxclass" : "newobj",
					"numinlets" : 1,
					"numoutlets" : 1,
					"outlettype" : [ "bang" ],
					"patching_rect" : [ 877.5, 103.5, 50.0, 20.0 ],
					"text" : "loadbang"
				}

			}
, 			{
				"box" : 				{
					"id" : "obj-75",
					"maxclass" : "button",
					"numinlets" : 1,
					"numoutlets" : 1,
					"outlettype" : [ "bang" ],
					"parameter_enable" : 0,
					"patching_rect" : [ 800.0, 103.5, 24.0, 24.0 ]
				}

			}
, 			{
				"box" : 				{
					"id" : "obj-64",
					"maxclass" : "button",
					"numinlets" : 1,
					"numoutlets" : 1,
					"outlettype" : [ "bang" ],
					"parameter_enable" : 0,
					"patching_rect" : [ 833.5, 103.5, 24.0, 24.0 ]
				}

			}
, 			{
				"box" : 				{
					"id" : "obj-63",
					"maxclass" : "button",
					"numinlets" : 1,
					"numoutlets" : 1,
					"outlettype" : [ "bang" ],
					"parameter_enable" : 0,
					"patching_rect" : [ 766.5, 103.5, 24.0, 24.0 ]
				}

			}
, 			{
				"box" : 				{
					"id" : "obj-52",
					"maxclass" : "newobj",
					"numinlets" : 3,
					"numoutlets" : 1,
					"outlettype" : [ "" ],
					"patcher" : 					{
						"fileversion" : 1,
						"appversion" : 						{
							"major" : 8,
							"minor" : 3,
							"revision" : 1,
							"architecture" : "x64",
							"modernui" : 1
						}
,
						"classnamespace" : "box",
						"rect" : [ 518.0, 193.0, 951.0, 517.0 ],
						"bglocked" : 0,
						"openinpresentation" : 0,
						"default_fontsize" : 12.0,
						"default_fontface" : 0,
						"default_fontname" : "Arial",
						"gridonopen" : 1,
						"gridsize" : [ 15.0, 15.0 ],
						"gridsnaponopen" : 1,
						"objectsnaponopen" : 1,
						"statusbarvisible" : 2,
						"toolbarvisible" : 1,
						"lefttoolbarpinned" : 0,
						"toptoolbarpinned" : 0,
						"righttoolbarpinned" : 0,
						"bottomtoolbarpinned" : 0,
						"toolbars_unpinned_last_save" : 0,
						"tallnewobj" : 0,
						"boxanimatetime" : 200,
						"enablehscroll" : 1,
						"enablevscroll" : 1,
						"devicewidth" : 0.0,
						"description" : "",
						"digest" : "",
						"tags" : "",
						"style" : "",
						"subpatcher_template" : "",
						"assistshowspatchername" : 0,
						"boxes" : [ 							{
								"box" : 								{
									"comment" : "",
									"id" : "obj-6",
									"index" : 2,
									"maxclass" : "inlet",
									"numinlets" : 0,
									"numoutlets" : 1,
									"outlettype" : [ "bang" ],
									"patching_rect" : [ 344.0, 17.0, 30.0, 30.0 ]
								}

							}
, 							{
								"box" : 								{
									"id" : "obj-74",
									"linecount" : 15,
									"maxclass" : "message",
									"numinlets" : 2,
									"numoutlets" : 1,
									"outlettype" : [ "" ],
									"patching_rect" : [ 344.0, 64.0, 275.0, 210.0 ],
									"text" : "1. 0.435275 0.267581 0.189465 0.144956 0.116471 0.096802 0.082469 0.071599 0.063096 0.056277 0.050697 0.046054 0.042135 0.053763 0.035897 0.033378 0.031165 0.029208 0.027464 0.025902 0.024496 0.023223 0.022067 0.16129 0.020046 0.019159 0.107527 0.017584 0.016883 0. 0.015625 0.015059 0.014529 0.014032 0.013566 0.013127 0.012713 0.075269 0.011954 0.011605 0.011275 0.010961 0.010662 0.010379 0.043011 0.009851 0.009605 0.009371 0.009146 0.075269 0.010753 0.008528 0.043011 0.008158 0.007983 0.150538 0.032258 0.129032 0.007349 0.007205 0.007065 0.053763 0.006801 0.006676 0.006555 0.006437 0.006324 0.006214 0.006108 0.006005"
								}

							}
, 							{
								"box" : 								{
									"comment" : "",
									"id" : "obj-3",
									"index" : 1,
									"maxclass" : "inlet",
									"numinlets" : 0,
									"numoutlets" : 1,
									"outlettype" : [ "bang" ],
									"patching_rect" : [ 27.0, 17.0, 30.0, 30.0 ]
								}

							}
, 							{
								"box" : 								{
									"id" : "obj-4",
									"linecount" : 15,
									"maxclass" : "message",
									"numinlets" : 2,
									"numoutlets" : 1,
									"outlettype" : [ "" ],
									"patching_rect" : [ 27.0, 64.0, 281.0, 210.0 ],
									"text" : "1. 0.435275 0.267581 0.189465 0.144956 0.116471 0.096802 0.082469 0.071599 0.063096 0.056277 0.050697 0.046054 0.042135 0.038787 0.035897 0.033378 0.031165 0.029208 0.027464 0.025902 0.024496 0.023223 0.022067 0.021012 0.020046 0.019159 0.01834 0.017584 0.016883 0.016232 0.015625 0.015059 0.014529 0.014032 0.013566 0.013127 0.012713 0.012323 0.011954 0.011605 0.011275 0.010961 0.010662 0.010379 0.010109 0.009851 0.009605 0.009371 0.009146 0.008931 0.008726 0.008528 0.008339 0.008158 0.007983 0.007815 0.007654 0.007499 0.007349 0.007205 0.007065 0.006931 0.006801 0.006676 0.006555 0.006437 0.006324 0.006214 0.006108 0.006005"
								}

							}
, 							{
								"box" : 								{
									"comment" : "",
									"id" : "obj-1",
									"index" : 3,
									"maxclass" : "inlet",
									"numinlets" : 0,
									"numoutlets" : 1,
									"outlettype" : [ "bang" ],
									"patching_rect" : [ 673.0, 17.0, 30.0, 30.0 ]
								}

							}
, 							{
								"box" : 								{
									"id" : "obj-47",
									"linecount" : 12,
									"maxclass" : "message",
									"numinlets" : 2,
									"numoutlets" : 1,
									"outlettype" : [ "" ],
									"patching_rect" : [ 673.0, 64.0, 329.0, 169.0 ],
									"text" : "0.935484 0.956989 0.854839 0.913978 0.602151 0.892473 0.752688 0.83871 0.451613 0.655914 0.354839 0.612903 0.354839 0.516129 0.602151 0.204301 0.483871 0.290323 0.16129 0.494624 0.301075 0.268817 0.387097 0.129032 0.247312 0.225806 0.150538 0.150538 0.268817 0.397849 0.268817 0.204301 0.193548 0.182796 0.688172 0.268817 0.16129 0.032258 0.311828 0.129032 0.107527 0.268817 0.096774 0.086022 0.075269 0.075269 0.05914 0.043011 0.032258 0.032258 0.021505 0.344086 0.236559 0.387097 0.16129 0.16129 0.387097 0.150538 0.193548 0.419355 0.225806 0.225806 0.11828 0.172043 0.064516 0.247312 0.107527 0.107527 0.107527 0.107527 0.043011"
								}

							}
, 							{
								"box" : 								{
									"comment" : "",
									"id" : "obj-49",
									"index" : 1,
									"maxclass" : "outlet",
									"numinlets" : 1,
									"numoutlets" : 0,
									"patching_rect" : [ 27.0, 435.0, 30.0, 30.0 ]
								}

							}
 ],
						"lines" : [ 							{
								"patchline" : 								{
									"destination" : [ "obj-47", 0 ],
									"source" : [ "obj-1", 0 ]
								}

							}
, 							{
								"patchline" : 								{
									"destination" : [ "obj-4", 0 ],
									"source" : [ "obj-3", 0 ]
								}

							}
, 							{
								"patchline" : 								{
									"destination" : [ "obj-49", 0 ],
									"source" : [ "obj-4", 0 ]
								}

							}
, 							{
								"patchline" : 								{
									"destination" : [ "obj-49", 0 ],
									"source" : [ "obj-47", 0 ]
								}

							}
, 							{
								"patchline" : 								{
									"destination" : [ "obj-74", 0 ],
									"source" : [ "obj-6", 0 ]
								}

							}
, 							{
								"patchline" : 								{
									"destination" : [ "obj-49", 0 ],
									"source" : [ "obj-74", 0 ]
								}

							}
 ]
					}
,
					"patching_rect" : [ 766.5, 138.0, 86.0, 22.0 ],
					"saved_object_attributes" : 					{
						"description" : "",
						"digest" : "",
						"globalpatchername" : "",
						"tags" : ""
					}
,
					"text" : "p amp presets"
				}

			}
, 			{
				"box" : 				{
					"contdata" : 1,
					"id" : "obj-7",
					"maxclass" : "multislider",
					"numinlets" : 1,
					"numoutlets" : 2,
					"outlettype" : [ "", "" ],
					"parameter_enable" : 0,
					"patching_rect" : [ 476.0, 138.0, 265.0, 93.0 ],
					"setminmax" : [ 0.0, 1.0 ],
					"size" : 71
				}

			}
, 			{
				"box" : 				{
					"id" : "obj-32",
					"maxclass" : "button",
					"numinlets" : 1,
					"numoutlets" : 1,
					"outlettype" : [ "bang" ],
					"parameter_enable" : 0,
					"patching_rect" : [ 26.0, 644.0, 25.0, 25.0 ]
				}

			}
, 			{
				"box" : 				{
					"fontface" : 3,
					"fontsize" : 18.0,
					"id" : "obj-31",
					"maxclass" : "comment",
					"numinlets" : 1,
					"numoutlets" : 0,
					"patching_rect" : [ 8.0, 5.0, 228.0, 27.0 ],
					"text" : "calculating FM sidebands"
				}

			}
, 			{
				"box" : 				{
					"data" : [ 123, "png", "IBkSG0fBZn....PCIgDQRA..H.A...f.HX....v5tzKs....DLmPIQEBHf.B7g.YHB...HSRDEDU3wY6NGS...BD.D5LZlLM5FiePHAT..........78VU2pyvO..........XN6Gz2pAHTxsiJV.....jTQNQjqBAlf" ],
					"embed" : 1,
					"id" : "obj-30",
					"maxclass" : "fpic",
					"numinlets" : 1,
					"numoutlets" : 1,
					"outlettype" : [ "jit_matrix" ],
					"patching_rect" : [ 9.25, 886.5, 1193.75, 10.0 ],
					"pic" : "separation_line1.png"
				}

			}
, 			{
				"box" : 				{
					"fontsize" : 11.0,
					"id" : "obj-21",
					"maxclass" : "comment",
					"numinlets" : 1,
					"numoutlets" : 0,
					"patching_rect" : [ 135.0, 468.000004999999987, 94.0, 19.0 ],
					"text" : "clean up freqs list"
				}

			}
, 			{
				"box" : 				{
					"id" : "obj-18",
					"maxclass" : "newobj",
					"numinlets" : 1,
					"numoutlets" : 1,
					"outlettype" : [ "FullPacket" ],
					"patcher" : 					{
						"fileversion" : 1,
						"appversion" : 						{
							"major" : 8,
							"minor" : 3,
							"revision" : 1,
							"architecture" : "x64",
							"modernui" : 1
						}
,
						"classnamespace" : "box",
						"rect" : [ 58.0, 104.0, 615.0, 505.0 ],
						"bglocked" : 0,
						"openinpresentation" : 0,
						"default_fontsize" : 12.0,
						"default_fontface" : 0,
						"default_fontname" : "Arial",
						"gridonopen" : 1,
						"gridsize" : [ 15.0, 15.0 ],
						"gridsnaponopen" : 1,
						"objectsnaponopen" : 1,
						"statusbarvisible" : 2,
						"toolbarvisible" : 1,
						"lefttoolbarpinned" : 0,
						"toptoolbarpinned" : 0,
						"righttoolbarpinned" : 0,
						"bottomtoolbarpinned" : 0,
						"toolbars_unpinned_last_save" : 0,
						"tallnewobj" : 0,
						"boxanimatetime" : 200,
						"enablehscroll" : 1,
						"enablevscroll" : 1,
						"devicewidth" : 0.0,
						"description" : "",
						"digest" : "",
						"tags" : "",
						"style" : "",
						"subpatcher_template" : "",
						"assistshowspatchername" : 0,
						"visible" : 1,
						"boxes" : [ 							{
								"box" : 								{
									"fontsize" : 10.0,
									"id" : "obj-2",
									"maxclass" : "newobj",
									"numinlets" : 2,
									"numoutlets" : 2,
									"outlettype" : [ "", "" ],
									"patching_rect" : [ 225.0, 167.399999380111694, 35.0, 20.0 ],
									"text" : "zl thin"
								}

							}
, 							{
								"box" : 								{
									"id" : "obj-1",
									"maxclass" : "newobj",
									"numinlets" : 1,
									"numoutlets" : 2,
									"outlettype" : [ "", "FullPacket" ],
									"patching_rect" : [ 224.5, 104.0, 79.0, 22.0 ],
									"text" : "o.route /freqs"
								}

							}
, 							{
								"box" : 								{
									"id" : "obj-3",
									"maxclass" : "newobj",
									"numinlets" : 1,
									"numoutlets" : 2,
									"outlettype" : [ "", "" ],
									"patching_rect" : [ 224.5, 69.0, 144.0, 22.0 ],
									"text" : "t l l"
								}

							}
, 							{
								"box" : 								{
									"id" : "obj-52",
									"maxclass" : "newobj",
									"numinlets" : 1,
									"numoutlets" : 1,
									"outlettype" : [ "FullPacket" ],
									"patching_rect" : [ 224.5, 238.0, 77.0, 22.0 ],
									"text" : "o.pack /freqs"
								}

							}
, 							{
								"box" : 								{
									"id" : "obj-49",
									"maxclass" : "newobj",
									"numinlets" : 2,
									"numoutlets" : 1,
									"outlettype" : [ "FullPacket" ],
									"patching_rect" : [ 224.5, 266.999994993209839, 144.0, 22.0 ],
									"text" : "o.union"
								}

							}
, 							{
								"box" : 								{
									"fontsize" : 10.0,
									"id" : "obj-40",
									"maxclass" : "newobj",
									"numinlets" : 2,
									"numoutlets" : 2,
									"outlettype" : [ "", "" ],
									"patching_rect" : [ 224.5, 141.399999380111694, 49.0, 20.0 ],
									"text" : "zl filter 0."
								}

							}
, 							{
								"box" : 								{
									"fontsize" : 11.0,
									"id" : "obj-32",
									"linecount" : 5,
									"maxclass" : "comment",
									"numinlets" : 1,
									"numoutlets" : 0,
									"patching_rect" : [ 17.0, 161.399999380111694, 182.0, 68.0 ],
									"text" : "On the left, we leave odot for a moment because this task is easiest in zl: 1) remove 0s, 2) filter out duplicates between upper and lower, 3) sort."
								}

							}
, 							{
								"box" : 								{
									"fontname" : "Arial",
									"fontsize" : 9.0,
									"id" : "obj-30",
									"maxclass" : "newobj",
									"numinlets" : 2,
									"numoutlets" : 2,
									"outlettype" : [ "", "" ],
									"patching_rect" : [ 224.5, 194.399993717670441, 36.0, 19.0 ],
									"text" : "zl sort"
								}

							}
, 							{
								"box" : 								{
									"comment" : "",
									"id" : "obj-14",
									"index" : 1,
									"maxclass" : "inlet",
									"numinlets" : 0,
									"numoutlets" : 1,
									"outlettype" : [ "FullPacket" ],
									"patching_rect" : [ 224.5, 28.999994993209839, 30.0, 30.0 ]
								}

							}
, 							{
								"box" : 								{
									"comment" : "",
									"id" : "obj-17",
									"index" : 1,
									"maxclass" : "outlet",
									"numinlets" : 1,
									"numoutlets" : 0,
									"patching_rect" : [ 224.5, 360.499994993209839, 30.0, 30.0 ]
								}

							}
 ],
						"lines" : [ 							{
								"patchline" : 								{
									"destination" : [ "obj-40", 0 ],
									"source" : [ "obj-1", 0 ]
								}

							}
, 							{
								"patchline" : 								{
									"destination" : [ "obj-3", 0 ],
									"source" : [ "obj-14", 0 ]
								}

							}
, 							{
								"patchline" : 								{
									"destination" : [ "obj-30", 0 ],
									"source" : [ "obj-2", 0 ]
								}

							}
, 							{
								"patchline" : 								{
									"destination" : [ "obj-1", 0 ],
									"source" : [ "obj-3", 0 ]
								}

							}
, 							{
								"patchline" : 								{
									"destination" : [ "obj-49", 1 ],
									"source" : [ "obj-3", 1 ]
								}

							}
, 							{
								"patchline" : 								{
									"destination" : [ "obj-52", 0 ],
									"source" : [ "obj-30", 0 ]
								}

							}
, 							{
								"patchline" : 								{
									"destination" : [ "obj-2", 0 ],
									"source" : [ "obj-40", 0 ]
								}

							}
, 							{
								"patchline" : 								{
									"destination" : [ "obj-17", 0 ],
									"source" : [ "obj-49", 0 ]
								}

							}
, 							{
								"patchline" : 								{
									"destination" : [ "obj-49", 0 ],
									"source" : [ "obj-52", 0 ]
								}

							}
 ]
					}
,
					"patching_rect" : [ 299.0, 469.000004999999987, 61.0, 22.0 ],
					"saved_object_attributes" : 					{
						"description" : "",
						"digest" : "",
						"globalpatchername" : "",
						"tags" : ""
					}
,
					"text" : "p \"zl stuff\""
				}

			}
, 			{
				"box" : 				{
					"fontsize" : 9.0,
					"id" : "obj-69",
					"maxclass" : "newobj",
					"numinlets" : 1,
					"numoutlets" : 1,
					"outlettype" : [ "signal" ],
					"patcher" : 					{
						"fileversion" : 1,
						"appversion" : 						{
							"major" : 8,
							"minor" : 3,
							"revision" : 1,
							"architecture" : "x64",
							"modernui" : 1
						}
,
						"classnamespace" : "box",
						"rect" : [ 1236.0, 461.0, 640.0, 480.0 ],
						"bglocked" : 0,
						"openinpresentation" : 0,
						"default_fontsize" : 12.0,
						"default_fontface" : 0,
						"default_fontname" : "Arial",
						"gridonopen" : 1,
						"gridsize" : [ 15.0, 15.0 ],
						"gridsnaponopen" : 1,
						"objectsnaponopen" : 1,
						"statusbarvisible" : 2,
						"toolbarvisible" : 1,
						"lefttoolbarpinned" : 0,
						"toptoolbarpinned" : 0,
						"righttoolbarpinned" : 0,
						"bottomtoolbarpinned" : 0,
						"toolbars_unpinned_last_save" : 0,
						"tallnewobj" : 0,
						"boxanimatetime" : 200,
						"enablehscroll" : 1,
						"enablevscroll" : 1,
						"devicewidth" : 0.0,
						"description" : "",
						"digest" : "",
						"tags" : "",
						"style" : "",
						"subpatcher_template" : "",
						"assistshowspatchername" : 0,
						"boxes" : [ 							{
								"box" : 								{
									"bgmode" : 0,
									"border" : 0,
									"clickthrough" : 0,
									"enablehscroll" : 0,
									"enablevscroll" : 0,
									"extract" : 1,
									"id" : "obj-3",
									"lockeddragscroll" : 0,
									"lockedsize" : 0,
									"maxclass" : "bpatcher",
									"name" : "bp.Reverb 2.maxpat",
									"numinlets" : 5,
									"numoutlets" : 2,
									"offset" : [ 0.0, 0.0 ],
									"outlettype" : [ "signal", "signal" ],
									"patching_rect" : [ 50.0, 235.0, 271.0, 114.0 ],
									"varname" : "bp.Reverb 2[1]",
									"viewvisibility" : 1
								}

							}
, 							{
								"box" : 								{
									"comment" : "",
									"id" : "obj-2",
									"index" : 1,
									"maxclass" : "outlet",
									"numinlets" : 1,
									"numoutlets" : 0,
									"patching_rect" : [ 50.0, 365.0, 30.0, 30.0 ]
								}

							}
, 							{
								"box" : 								{
									"comment" : "",
									"id" : "obj-1",
									"index" : 1,
									"maxclass" : "inlet",
									"numinlets" : 0,
									"numoutlets" : 1,
									"outlettype" : [ "signal" ],
									"patching_rect" : [ 50.0, 43.0, 30.0, 30.0 ]
								}

							}
, 							{
								"box" : 								{
									"bgmode" : 0,
									"border" : 0,
									"clickthrough" : 0,
									"enablehscroll" : 0,
									"enablevscroll" : 0,
									"extract" : 1,
									"id" : "obj-68",
									"lockeddragscroll" : 0,
									"lockedsize" : 0,
									"maxclass" : "bpatcher",
									"name" : "bp.Reverb 2.maxpat",
									"numinlets" : 5,
									"numoutlets" : 2,
									"offset" : [ 0.0, 0.0 ],
									"outlettype" : [ "signal", "signal" ],
									"patching_rect" : [ 50.0, 100.0, 271.0, 114.0 ],
									"varname" : "bp.Reverb 2",
									"viewvisibility" : 1
								}

							}
 ],
						"lines" : [ 							{
								"patchline" : 								{
									"destination" : [ "obj-68", 0 ],
									"source" : [ "obj-1", 0 ]
								}

							}
, 							{
								"patchline" : 								{
									"destination" : [ "obj-2", 0 ],
									"source" : [ "obj-3", 0 ]
								}

							}
, 							{
								"patchline" : 								{
									"destination" : [ "obj-3", 0 ],
									"source" : [ "obj-68", 0 ]
								}

							}
 ]
					}
,
					"patching_rect" : [ 299.0, 761.0, 42.0, 19.0 ],
					"saved_object_attributes" : 					{
						"description" : "",
						"digest" : "",
						"globalpatchername" : "",
						"tags" : ""
					}
,
					"text" : "p reverb",
					"varname" : "patcher"
				}

			}
, 			{
				"box" : 				{
					"fontsize" : 10.0,
					"hidden" : 1,
					"id" : "obj-66",
					"maxclass" : "newobj",
					"numinlets" : 1,
					"numoutlets" : 1,
					"outlettype" : [ "" ],
					"patching_rect" : [ 275.5, 138.0, 65.0, 20.0 ],
					"text" : "loadmess 72"
				}

			}
, 			{
				"box" : 				{
					"fontsize" : 9.0,
					"id" : "obj-51",
					"maxclass" : "newobj",
					"numinlets" : 1,
					"numoutlets" : 1,
					"outlettype" : [ "" ],
					"patching_rect" : [ 74.0, 181.0, 26.0, 19.0 ],
					"text" : "mtof"
				}

			}
, 			{
				"box" : 				{
					"hkeycolor" : [ 0.146, 0.76, 0.967, 1.0 ],
					"id" : "obj-50",
					"maxclass" : "kslider",
					"numinlets" : 2,
					"numoutlets" : 2,
					"offset" : 48,
					"outlettype" : [ "int", "int" ],
					"parameter_enable" : 0,
					"patching_rect" : [ 74.0, 138.0, 196.0, 34.0 ]
				}

			}
, 			{
				"box" : 				{
					"fontsize" : 11.0,
					"id" : "obj-44",
					"linecount" : 3,
					"maxclass" : "comment",
					"numinlets" : 1,
					"numoutlets" : 0,
					"patching_rect" : [ 147.0, 376.500005006790161, 138.0, 43.0 ],
					"text" : "First get modulator as multiple (harmonicity) of carrier."
				}

			}
, 			{
				"box" : 				{
					"fontsize" : 11.0,
					"id" : "obj-39",
					"maxclass" : "comment",
					"numinlets" : 1,
					"numoutlets" : 0,
					"patching_rect" : [ 135.0, 354.500005006790161, 128.0, 19.0 ],
					"text" : "use our formula for freqs"
				}

			}
, 			{
				"box" : 				{
					"bgcolor" : [ 0.145773202180862, 0.760342121124268, 0.967033863067627, 1.0 ],
					"fontface" : 1,
					"format" : 6,
					"id" : "obj-38",
					"maxclass" : "flonum",
					"numinlets" : 1,
					"numoutlets" : 2,
					"outlettype" : [ "", "bang" ],
					"parameter_enable" : 0,
					"patching_rect" : [ 74.0, 207.0, 50.0, 22.0 ],
					"textcolor" : [ 0.125490196078431, 0.007843137254902, 0.007843137254902, 1.0 ]
				}

			}
, 			{
				"box" : 				{
					"fontface" : 2,
					"fontsize" : 12.0,
					"id" : "obj-35",
					"linecount" : 2,
					"maxclass" : "comment",
					"numinlets" : 1,
					"numoutlets" : 0,
					"patching_rect" : [ 330.0, 174.0, 103.0, 33.0 ],
					"text" : "decay (larger = shorter sound)"
				}

			}
, 			{
				"box" : 				{
					"fontface" : 2,
					"fontsize" : 12.0,
					"id" : "obj-23",
					"maxclass" : "comment",
					"numinlets" : 1,
					"numoutlets" : 0,
					"patching_rect" : [ 545.5, 116.0, 126.0, 20.0 ],
					"text" : "amps chosen by hand"
				}

			}
, 			{
				"box" : 				{
					"bgcolor" : [ 0.145773202180862, 0.760342121124268, 0.967033863067627, 1.0 ],
					"fontface" : 1,
					"format" : 6,
					"id" : "obj-65",
					"maxclass" : "flonum",
					"numinlets" : 1,
					"numoutlets" : 2,
					"outlettype" : [ "", "bang" ],
					"parameter_enable" : 0,
					"patching_rect" : [ 208.0, 207.0, 50.0, 22.0 ],
					"textcolor" : [ 0.125490196078431, 0.007843137254902, 0.007843137254902, 1.0 ]
				}

			}
, 			{
				"box" : 				{
					"fontsize" : 10.0,
					"hidden" : 1,
					"id" : "obj-54",
					"maxclass" : "newobj",
					"numinlets" : 1,
					"numoutlets" : 1,
					"outlettype" : [ "" ],
					"patching_rect" : [ 260.0, 207.0, 74.0, 20.0 ],
					"text" : "loadmess 0.24"
				}

			}
, 			{
				"box" : 				{
					"fontface" : 2,
					"fontsize" : 12.0,
					"id" : "obj-15",
					"maxclass" : "comment",
					"numinlets" : 1,
					"numoutlets" : 0,
					"patching_rect" : [ 198.0, 174.0, 70.0, 20.0 ],
					"text" : "harmonicity"
				}

			}
, 			{
				"box" : 				{
					"fontface" : 2,
					"fontsize" : 12.0,
					"id" : "obj-6",
					"maxclass" : "comment",
					"numinlets" : 1,
					"numoutlets" : 0,
					"patching_rect" : [ 105.5, 174.0, 43.0, 20.0 ],
					"text" : "carrier"
				}

			}
, 			{
				"box" : 				{
					"fontname" : "Courier",
					"fontsize" : 16.0,
					"id" : "obj-1",
					"maxclass" : "comment",
					"numinlets" : 1,
					"numoutlets" : 0,
					"patching_rect" : [ 900.5, 415.000005006790161, 19.0, 22.0 ],
					"text" : "n"
				}

			}
, 			{
				"box" : 				{
					"fontname" : "Courier",
					"fontsize" : 16.0,
					"id" : "obj-57",
					"maxclass" : "comment",
					"numinlets" : 1,
					"numoutlets" : 0,
					"patching_rect" : [ 930.0, 415.000005006790161, 95.0, 22.0 ],
					"text" : "modulator"
				}

			}
, 			{
				"box" : 				{
					"fontname" : "Courier",
					"fontsize" : 16.0,
					"id" : "obj-56",
					"maxclass" : "comment",
					"numinlets" : 1,
					"numoutlets" : 0,
					"patching_rect" : [ 877.5, 415.000005006790161, 21.0, 22.0 ],
					"text" : "±"
				}

			}
, 			{
				"box" : 				{
					"fontface" : 0,
					"fontname" : "Courier",
					"fontsize" : 16.0,
					"id" : "obj-78",
					"maxclass" : "comment",
					"numinlets" : 1,
					"numoutlets" : 0,
					"patching_rect" : [ 744.75, 416.000005006790161, 18.0, 22.0 ],
					"text" : "n"
				}

			}
, 			{
				"box" : 				{
					"fontface" : 0,
					"fontname" : "Courier",
					"fontsize" : 16.0,
					"id" : "obj-77",
					"maxclass" : "comment",
					"numinlets" : 1,
					"numoutlets" : 0,
					"patching_rect" : [ 693.0, 415.000005006790161, 85.0, 22.0 ],
					"text" : "freq(  )"
				}

			}
, 			{
				"box" : 				{
					"fontname" : "Courier",
					"fontsize" : 16.0,
					"id" : "obj-4",
					"maxclass" : "comment",
					"numinlets" : 1,
					"numoutlets" : 0,
					"patching_rect" : [ 779.0, 415.000005006790161, 24.0, 22.0 ],
					"text" : "="
				}

			}
, 			{
				"box" : 				{
					"fontname" : "Courier",
					"fontsize" : 14.0,
					"id" : "obj-28",
					"maxclass" : "comment",
					"numinlets" : 1,
					"numoutlets" : 0,
					"patching_rect" : [ 914.75, 416.000005006790161, 19.0, 20.0 ],
					"text" : "*"
				}

			}
, 			{
				"box" : 				{
					"fontname" : "Courier",
					"fontsize" : 16.0,
					"id" : "obj-27",
					"maxclass" : "comment",
					"numinlets" : 1,
					"numoutlets" : 0,
					"patching_rect" : [ 799.5, 415.000005006790161, 76.0, 22.0 ],
					"text" : "carrier"
				}

			}
, 			{
				"box" : 				{
					"fontsize" : 10.0,
					"id" : "obj-36",
					"maxclass" : "comment",
					"numinlets" : 1,
					"numoutlets" : 0,
					"patching_rect" : [ 9.25, 866.5, 53.0, 18.0 ],
					"text" : "Jon Kulpa"
				}

			}
, 			{
				"box" : 				{
					"fontsize" : 11.0,
					"id" : "obj-34",
					"linecount" : 2,
					"maxclass" : "comment",
					"numinlets" : 1,
					"numoutlets" : 0,
					"patching_rect" : [ 74.0, 719.0, 123.0, 31.0 ],
					"text" : "impulse \n(see resonators~ help)"
				}

			}
, 			{
				"box" : 				{
					"fontsize" : 11.0,
					"id" : "obj-33",
					"linecount" : 3,
					"maxclass" : "comment",
					"numinlets" : 1,
					"numoutlets" : 0,
					"patching_rect" : [ 135.0, 658.0, 112.0, 43.0 ],
					"text" : "interleave f, a, d lists because that's what resonators~ expects"
				}

			}
, 			{
				"box" : 				{
					"fontsize" : 11.0,
					"id" : "obj-29",
					"linecount" : 2,
					"maxclass" : "comment",
					"numinlets" : 1,
					"numoutlets" : 0,
					"patching_rect" : [ 135.0, 514.0, 123.0, 31.0 ],
					"text" : "normalize amps, \nmake decays (filter Q)"
				}

			}
, 			{
				"box" : 				{
					"domain" : [ 0.0, 12000.0 ],
					"id" : "obj-26",
					"maxclass" : "spectroscope~",
					"numinlets" : 2,
					"numoutlets" : 1,
					"outlettype" : [ "" ],
					"patching_rect" : [ 545.5, 713.5, 257.0, 100.0 ]
				}

			}
, 			{
				"box" : 				{
					"id" : "obj-25",
					"maxclass" : "message",
					"numinlets" : 2,
					"numoutlets" : 1,
					"outlettype" : [ "" ],
					"patching_rect" : [ 495.0, 791.5, 31.0, 22.0 ],
					"text" : "stop"
				}

			}
, 			{
				"box" : 				{
					"id" : "obj-24",
					"maxclass" : "message",
					"numinlets" : 2,
					"numoutlets" : 1,
					"outlettype" : [ "" ],
					"patching_rect" : [ 414.0, 791.5, 72.0, 22.0 ],
					"text" : "startwindow"
				}

			}
, 			{
				"box" : 				{
					"id" : "obj-22",
					"maxclass" : "gain~",
					"multichannelvariant" : 0,
					"numinlets" : 1,
					"numoutlets" : 2,
					"outlettype" : [ "signal", "" ],
					"parameter_enable" : 0,
					"patching_rect" : [ 299.0, 789.0, 96.0, 27.0 ]
				}

			}
, 			{
				"box" : 				{
					"id" : "obj-20",
					"maxclass" : "newobj",
					"numinlets" : 2,
					"numoutlets" : 0,
					"patching_rect" : [ 299.0, 832.0, 35.0, 22.0 ],
					"text" : "dac~"
				}

			}
, 			{
				"box" : 				{
					"id" : "obj-19",
					"maxclass" : "message",
					"numinlets" : 2,
					"numoutlets" : 1,
					"outlettype" : [ "" ],
					"patching_rect" : [ 74.0, 689.0, 29.5, 22.0 ],
					"text" : "0.7"
				}

			}
, 			{
				"box" : 				{
					"id" : "obj-16",
					"maxclass" : "newobj",
					"numinlets" : 1,
					"numoutlets" : 2,
					"outlettype" : [ "bang", "" ],
					"patching_rect" : [ 74.0, 310.29999977350235, 244.0, 22.0 ],
					"text" : "t b l"
				}

			}
, 			{
				"box" : 				{
					"id" : "obj-9",
					"maxclass" : "newobj",
					"numinlets" : 1,
					"numoutlets" : 2,
					"outlettype" : [ "signal", "list" ],
					"patching_rect" : [ 299.0, 728.0, 72.0, 22.0 ],
					"text" : "resonators~"
				}

			}
, 			{
				"box" : 				{
					"fontface" : 0,
					"fontsize" : 10.0,
					"id" : "obj-8",
					"linecount" : 54,
					"maxclass" : "o.display",
					"numinlets" : 1,
					"numoutlets" : 1,
					"outlettype" : [ "" ],
					"patching_rect" : [ 815.0, 460.000005006790161, 401.0, 632.0 ],
					"text" : "/freqs : [20.9301, 104.65, 146.51, 230.23, 272.091, 355.811, 397.671, 481.391, 523.251, 606.971, 648.831, 732.552, 774.412, 858.132, 899.992, 983.712, 1025.57, 1109.29, 1151.15, 1234.87, 1276.73, 1360.45, 1402.31, 1486.03, 1527.89, 1611.61, 1653.47, 1737.19, 1779.05, 1862.77, 1904.63, 1988.35, 2030.21, 2113.93, 2155.79, 2239.51, 2281.38, 2365.1, 2406.96, 2490.68, 2532.54, 2616.26, 2658.12, 2741.84, 2783.7, 2867.42, 2909.28, 2993, 3034.86, 3118.58, 3160.44, 3244.16, 3286.02, 3369.74, 3411.6, 3495.32, 3537.18, 3620.9, 3662.76, 3746.48, 3788.34, 3872.06, 3913.92, 4039.5, 4165.08, 4290.66, 4416.24, 4541.82, 4667.4, 4792.98, 4918.56],\n/carrier : 523.251,\n/harmonicity : 0.24,\n/decay : 10.,\n/amps : [0.288774, 0.125696, 0.0772704, 0.0547126, 0.0418595, 0.0336338, 0.0279539, 0.0238149, 0.0206759, 0.0182205, 0.0162513, 0.01464, 0.0132992, 0.0121675, 0.0112007, 0.0103661, 0.0096387, 0.00899964, 0.00843451, 0.00793089, 0.00747983, 0.00707381, 0.0067062, 0.00637238, 0.00606772, 0.00578876, 0.00553262, 0.00529612, 0.0050778, 0.00487537, 0.00468738, 0.00451209, 0.00434865, 0.0041956, 0.00405208, 0.00391751, 0.00379074, 0.00367118, 0.00355856, 0.00345201, 0.00335122, 0.00325593, 0.00316525, 0.00307891, 0.00299719, 0.00291922, 0.00284471, 0.00277367, 0.0027061, 0.00264113, 0.00257904, 0.00251984, 0.00246267, 0.00240809, 0.00235582, 0.00230528, 0.00225677, 0.00221028, 0.00216552, 0.0021222, 0.00208062, 0.00204019, 0.00200149, 0.00196395, 0.00192786, 0.00189291, 0.00185884, 0.00182621, 0.00179444, 0.00176383, 0.00173409],\n/numOvertones : 35,\n/idx : [1, 2, 3, 4, 5, 6, 7, 8, 9, 10, 11, 12, 13, 14, 15, 16, 17, 18, 19, 20, 21, 22, 23, 24, 25, 26, 27, 28, 29, 30, 31, 32, 33, 34, 35, 36, 37, 38, 39, 40, 41, 42, 43, 44, 45, 46, 47, 48, 49, 50, 51, 52, 53, 54, 55, 56, 57, 58, 59, 60, 61, 62, 63, 64, 65, 66, 67, 68, 69, 70, 71],\n/modulator : 125.58,\n/upperSpectrum : [523.251, 648.831, 774.412, 899.992, 1025.57, 1151.15, 1276.73, 1402.31, 1527.89, 1653.47, 1779.05, 1904.63, 2030.21, 2155.79, 2281.38, 2406.96, 2532.54, 2658.12, 2783.7, 2909.28, 3034.86, 3160.44, 3286.02, 3411.6, 3537.18, 3662.76, 3788.34, 3913.92, 4039.5, 4165.08, 4290.66, 4416.24, 4541.82, 4667.4, 4792.98, 4918.56],\n/lowerSpectrum : [523.251, 397.671, 272.091, 146.51, 20.9301, 104.65, 230.23, 355.811, 481.391, 606.971, 732.552, 858.132, 983.712, 1109.29, 1234.87, 1360.45, 1486.03, 1611.61, 1737.19, 1862.77, 1988.35, 2113.93, 2239.51, 2365.1, 2490.68, 2616.26, 2741.84, 2867.42, 2993, 3118.58, 3244.16, 3369.74, 3495.32, 3620.9, 3746.48, 3872.06],\n/len : 71,\n/decays : [10., 10., 10., 10., 10., 10., 10., 10., 10., 10., 10., 10., 10., 10., 10., 10., 10., 10., 10., 10., 10., 10., 10., 10., 10., 10., 10., 10., 10., 10., 10., 10., 10., 10., 10., 10., 10., 10., 10., 10., 10., 10., 10., 10., 10., 10., 10., 10., 10., 10., 10., 10., 10., 10., 10., 10., 10., 10., 10., 10., 10., 10., 10., 10., 10., 10., 10., 10., 10., 10., 10.]"
				}

			}
, 			{
				"box" : 				{
					"id" : "obj-62",
					"maxclass" : "newobj",
					"numinlets" : 3,
					"numoutlets" : 1,
					"outlettype" : [ "list" ],
					"patching_rect" : [ 299.0, 659.0, 150.333333333333343, 22.0 ],
					"text" : "interleave 3"
				}

			}
, 			{
				"box" : 				{
					"id" : "obj-61",
					"maxclass" : "newobj",
					"numinlets" : 1,
					"numoutlets" : 4,
					"outlettype" : [ "", "", "", "FullPacket" ],
					"patching_rect" : [ 299.0, 627.0, 216.0, 22.0 ],
					"text" : "o.route /freqs /amps /decays"
				}

			}
, 			{
				"box" : 				{
					"format" : 6,
					"id" : "obj-59",
					"maxclass" : "flonum",
					"numinlets" : 1,
					"numoutlets" : 2,
					"outlettype" : [ "", "bang" ],
					"parameter_enable" : 0,
					"patching_rect" : [ 342.0, 207.0, 50.0, 22.0 ]
				}

			}
, 			{
				"box" : 				{
					"fontsize" : 10.0,
					"hidden" : 1,
					"id" : "obj-60",
					"maxclass" : "newobj",
					"numinlets" : 1,
					"numoutlets" : 1,
					"outlettype" : [ "" ],
					"patching_rect" : [ 396.0, 207.0, 65.0, 20.0 ],
					"text" : "loadmess 10"
				}

			}
, 			{
				"box" : 				{
					"fontface" : 0,
					"fontsize" : 11.0,
					"id" : "obj-45",
					"linecount" : 5,
					"maxclass" : "o.expr.codebox",
					"numinlets" : 1,
					"numoutlets" : 2,
					"outlettype" : [ "FullPacket", "FullPacket" ],
					"patching_rect" : [ 299.0, 503.0, 227.0, 83.0 ],
					"text" : "/len = length( /freqs ),\n/idx = aseq( 1, /len ),\n\n/amps = /amps / sum( /amps ),\n/decays = nfill( /len, /decay )"
				}

			}
, 			{
				"box" : 				{
					"id" : "obj-10",
					"maxclass" : "button",
					"numinlets" : 1,
					"numoutlets" : 1,
					"outlettype" : [ "bang" ],
					"parameter_enable" : 0,
					"patching_rect" : [ 47.0, 260.0, 20.0, 20.0 ]
				}

			}
, 			{
				"box" : 				{
					"id" : "obj-3",
					"maxclass" : "newobj",
					"numinlets" : 4,
					"numoutlets" : 1,
					"outlettype" : [ "FullPacket" ],
					"patching_rect" : [ 74.0, 260.0, 421.0, 22.0 ],
					"text" : "o.pack /carrier 220 /harmonicity 0.24 /decay 10 /amps"
				}

			}
, 			{
				"box" : 				{
					"fontface" : 0,
					"fontsize" : 11.0,
					"id" : "obj-2",
					"linecount" : 8,
					"maxclass" : "o.expr.codebox",
					"numinlets" : 1,
					"numoutlets" : 2,
					"outlettype" : [ "FullPacket", "FullPacket" ],
					"patching_rect" : [ 299.0, 341.000005006790161, 387.0, 118.0 ],
					"text" : "/numOvertones = 35,\n/idx = aseq( 0, /numOvertones ),\n\n/modulator = /carrier * /harmonicity,\n\n/upperSpectrum =      /carrier + ( /idx * /modulator ),\n/lowerSpectrum = abs( /carrier - ( /idx * /modulator ) ),\n/freqs         = [ /lowerSpectrum, /upperSpectrum ]"
				}

			}
, 			{
				"box" : 				{
					"background" : 1,
					"bgcolor" : [ 0.618395, 0.627673, 0.609846, 1.0 ],
					"fontface" : 1,
					"hint" : "",
					"id" : "obj-42",
					"ignoreclick" : 1,
					"legacytextcolor" : 1,
					"maxclass" : "textbutton",
					"numinlets" : 1,
					"numoutlets" : 3,
					"outlettype" : [ "", "", "int" ],
					"parameter_enable" : 0,
					"patching_rect" : [ 117.0, 659.0, 16.0, 16.0 ],
					"rounded" : 60.0,
					"text" : "4",
					"textcolor" : [ 0.34902, 0.34902, 0.34902, 1.0 ]
				}

			}
, 			{
				"box" : 				{
					"background" : 1,
					"bgcolor" : [ 0.618395, 0.627673, 0.609846, 1.0 ],
					"fontface" : 1,
					"hint" : "",
					"id" : "obj-95",
					"ignoreclick" : 1,
					"legacytextcolor" : 1,
					"maxclass" : "textbutton",
					"numinlets" : 1,
					"numoutlets" : 3,
					"outlettype" : [ "", "", "int" ],
					"parameter_enable" : 0,
					"patching_rect" : [ 117.0, 516.0, 16.0, 16.0 ],
					"rounded" : 60.0,
					"text" : "3",
					"textcolor" : [ 0.34902, 0.34902, 0.34902, 1.0 ]
				}

			}
, 			{
				"box" : 				{
					"background" : 1,
					"bgcolor" : [ 0.618395, 0.627673, 0.609846, 1.0 ],
					"fontface" : 1,
					"hint" : "",
					"id" : "obj-40",
					"ignoreclick" : 1,
					"legacytextcolor" : 1,
					"maxclass" : "textbutton",
					"numinlets" : 1,
					"numoutlets" : 3,
					"outlettype" : [ "", "", "int" ],
					"parameter_enable" : 0,
					"patching_rect" : [ 117.0, 469.000004999999987, 16.0, 16.0 ],
					"rounded" : 60.0,
					"text" : "2",
					"textcolor" : [ 0.34902, 0.34902, 0.34902, 1.0 ]
				}

			}
, 			{
				"box" : 				{
					"background" : 1,
					"bgcolor" : [ 0.618395, 0.627673, 0.609846, 1.0 ],
					"fontface" : 1,
					"hint" : "",
					"id" : "obj-41",
					"ignoreclick" : 1,
					"legacytextcolor" : 1,
					"maxclass" : "textbutton",
					"numinlets" : 1,
					"numoutlets" : 3,
					"outlettype" : [ "", "", "int" ],
					"parameter_enable" : 0,
					"patching_rect" : [ 117.0, 355.500005006790161, 16.0, 16.0 ],
					"rounded" : 60.0,
					"text" : "1",
					"textcolor" : [ 0.34902, 0.34902, 0.34902, 1.0 ]
				}

			}
 ],
		"lines" : [ 			{
				"patchline" : 				{
					"destination" : [ "obj-3", 0 ],
					"source" : [ "obj-10", 0 ]
				}

			}
, 			{
				"patchline" : 				{
					"destination" : [ "obj-19", 0 ],
					"source" : [ "obj-16", 0 ]
				}

			}
, 			{
				"patchline" : 				{
					"destination" : [ "obj-2", 0 ],
					"source" : [ "obj-16", 1 ]
				}

			}
, 			{
				"patchline" : 				{
					"destination" : [ "obj-45", 0 ],
					"source" : [ "obj-18", 0 ]
				}

			}
, 			{
				"patchline" : 				{
					"destination" : [ "obj-9", 0 ],
					"source" : [ "obj-19", 0 ]
				}

			}
, 			{
				"patchline" : 				{
					"destination" : [ "obj-18", 0 ],
					"source" : [ "obj-2", 0 ]
				}

			}
, 			{
				"patchline" : 				{
					"destination" : [ "obj-20", 1 ],
					"order" : 0,
					"source" : [ "obj-22", 0 ]
				}

			}
, 			{
				"patchline" : 				{
					"destination" : [ "obj-20", 0 ],
					"order" : 1,
					"source" : [ "obj-22", 0 ]
				}

			}
, 			{
				"patchline" : 				{
					"destination" : [ "obj-20", 0 ],
					"source" : [ "obj-24", 0 ]
				}

			}
, 			{
				"patchline" : 				{
					"destination" : [ "obj-20", 0 ],
					"source" : [ "obj-25", 0 ]
				}

			}
, 			{
				"patchline" : 				{
					"destination" : [ "obj-16", 0 ],
					"source" : [ "obj-3", 0 ]
				}

			}
, 			{
				"patchline" : 				{
					"destination" : [ "obj-19", 0 ],
					"source" : [ "obj-32", 0 ]
				}

			}
, 			{
				"patchline" : 				{
					"destination" : [ "obj-3", 0 ],
					"source" : [ "obj-38", 0 ]
				}

			}
, 			{
				"patchline" : 				{
					"destination" : [ "obj-61", 0 ],
					"order" : 1,
					"source" : [ "obj-45", 0 ]
				}

			}
, 			{
				"patchline" : 				{
					"destination" : [ "obj-8", 0 ],
					"order" : 0,
					"source" : [ "obj-45", 0 ]
				}

			}
, 			{
				"patchline" : 				{
					"destination" : [ "obj-51", 0 ],
					"source" : [ "obj-50", 0 ]
				}

			}
, 			{
				"patchline" : 				{
					"destination" : [ "obj-38", 0 ],
					"source" : [ "obj-51", 0 ]
				}

			}
, 			{
				"patchline" : 				{
					"destination" : [ "obj-7", 0 ],
					"source" : [ "obj-52", 0 ]
				}

			}
, 			{
				"patchline" : 				{
					"destination" : [ "obj-65", 0 ],
					"hidden" : 1,
					"source" : [ "obj-54", 0 ]
				}

			}
, 			{
				"patchline" : 				{
					"destination" : [ "obj-10", 0 ],
					"order" : 1,
					"source" : [ "obj-59", 0 ]
				}

			}
, 			{
				"patchline" : 				{
					"destination" : [ "obj-3", 2 ],
					"order" : 0,
					"source" : [ "obj-59", 0 ]
				}

			}
, 			{
				"patchline" : 				{
					"destination" : [ "obj-59", 0 ],
					"hidden" : 1,
					"source" : [ "obj-60", 0 ]
				}

			}
, 			{
				"patchline" : 				{
					"destination" : [ "obj-62", 2 ],
					"source" : [ "obj-61", 2 ]
				}

			}
, 			{
				"patchline" : 				{
					"destination" : [ "obj-62", 1 ],
					"source" : [ "obj-61", 1 ]
				}

			}
, 			{
				"patchline" : 				{
					"destination" : [ "obj-62", 0 ],
					"source" : [ "obj-61", 0 ]
				}

			}
, 			{
				"patchline" : 				{
					"destination" : [ "obj-9", 0 ],
					"source" : [ "obj-62", 0 ]
				}

			}
, 			{
				"patchline" : 				{
					"destination" : [ "obj-52", 0 ],
					"source" : [ "obj-63", 0 ]
				}

			}
, 			{
				"patchline" : 				{
					"destination" : [ "obj-52", 2 ],
					"source" : [ "obj-64", 0 ]
				}

			}
, 			{
				"patchline" : 				{
					"destination" : [ "obj-10", 0 ],
					"order" : 1,
					"source" : [ "obj-65", 0 ]
				}

			}
, 			{
				"patchline" : 				{
					"destination" : [ "obj-3", 1 ],
					"order" : 0,
					"source" : [ "obj-65", 0 ]
				}

			}
, 			{
				"patchline" : 				{
					"destination" : [ "obj-50", 0 ],
					"hidden" : 1,
					"source" : [ "obj-66", 0 ]
				}

			}
, 			{
				"patchline" : 				{
					"destination" : [ "obj-22", 0 ],
					"source" : [ "obj-69", 0 ]
				}

			}
, 			{
				"patchline" : 				{
					"destination" : [ "obj-10", 0 ],
					"order" : 1,
					"source" : [ "obj-7", 0 ]
				}

			}
, 			{
				"patchline" : 				{
					"destination" : [ "obj-3", 3 ],
					"order" : 0,
					"source" : [ "obj-7", 0 ]
				}

			}
, 			{
				"patchline" : 				{
					"destination" : [ "obj-52", 1 ],
					"source" : [ "obj-75", 0 ]
				}

			}
, 			{
				"patchline" : 				{
					"destination" : [ "obj-63", 0 ],
					"hidden" : 1,
					"source" : [ "obj-84", 0 ]
				}

			}
, 			{
				"patchline" : 				{
					"destination" : [ "obj-26", 0 ],
					"order" : 0,
					"source" : [ "obj-9", 0 ]
				}

			}
, 			{
				"patchline" : 				{
					"destination" : [ "obj-69", 0 ],
					"order" : 1,
					"source" : [ "obj-9", 0 ]
				}

			}
 ],
		"parameters" : 		{
			"obj-69::obj-3::obj-1" : [ "Size[1]", "Size", 0 ],
			"obj-69::obj-3::obj-20" : [ "Diffusion[1]", "Diffusion", 0 ],
			"obj-69::obj-3::obj-25" : [ "Damping[1]", "Damping", 0 ],
			"obj-69::obj-3::obj-26" : [ "Decay[1]", "Decay", 0 ],
			"obj-69::obj-3::obj-50" : [ "bypass[1]", "bypass", 0 ],
			"obj-69::obj-3::obj-55" : [ "Mix[1]", "Mix", 0 ],
			"obj-69::obj-68::obj-1" : [ "Size", "Size", 0 ],
			"obj-69::obj-68::obj-20" : [ "Diffusion", "Diffusion", 0 ],
			"obj-69::obj-68::obj-25" : [ "Damping", "Damping", 0 ],
			"obj-69::obj-68::obj-26" : [ "Decay", "Decay", 0 ],
			"obj-69::obj-68::obj-50" : [ "bypass", "bypass", 0 ],
			"obj-69::obj-68::obj-55" : [ "Mix", "Mix", 0 ],
			"parameterbanks" : 			{
				"0" : 				{
					"index" : 0,
					"name" : "",
					"parameters" : [ "-", "-", "-", "-", "-", "-", "-", "-" ]
				}

			}
,
			"parameter_overrides" : 			{
				"obj-69::obj-3::obj-1" : 				{
					"parameter_longname" : "Size[1]"
				}
,
				"obj-69::obj-3::obj-20" : 				{
					"parameter_longname" : "Diffusion[1]"
				}
,
				"obj-69::obj-3::obj-25" : 				{
					"parameter_longname" : "Damping[1]"
				}
,
				"obj-69::obj-3::obj-26" : 				{
					"parameter_longname" : "Decay[1]"
				}
,
				"obj-69::obj-3::obj-50" : 				{
					"parameter_longname" : "bypass[1]"
				}
,
				"obj-69::obj-3::obj-55" : 				{
					"parameter_longname" : "Mix[1]"
				}

			}
,
			"inherited_shortname" : 1
		}
,
		"dependency_cache" : [ 			{
				"name" : "M4L.cross1~.maxpat",
				"bootpath" : "C74:/patchers/m4l/Tools resources",
				"type" : "JSON",
				"implicit" : 1
			}
, 			{
				"name" : "bp.Reverb 2.maxpat",
				"bootpath" : "C74:/packages/BEAP/clippings/BEAP/Effects",
				"type" : "JSON",
				"implicit" : 1
			}
, 			{
				"name" : "interleave.mxo",
				"type" : "iLaX"
			}
, 			{
				"name" : "o.display.mxo",
				"type" : "iLaX"
			}
, 			{
				"name" : "o.expr.codebox.mxo",
				"type" : "iLaX"
			}
, 			{
				"name" : "o.pack.mxo",
				"type" : "iLaX"
			}
, 			{
				"name" : "o.route.mxo",
				"type" : "iLaX"
			}
, 			{
				"name" : "o.union.mxo",
				"type" : "iLaX"
			}
, 			{
				"name" : "resonators~.mxo",
				"type" : "iLaX"
			}
, 			{
				"name" : "yafr2.maxpat",
				"bootpath" : "~/Documents/max_enabled/pedagogy/__other_teachers/JeffsWorld/CNMAT-ODOT-SS-2019/patchers/03_morning/weather",
				"patcherrelativepath" : "../../../../../../max_enabled/pedagogy/__other_teachers/JeffsWorld/CNMAT-ODOT-SS-2019/patchers/03_morning/weather",
				"type" : "JSON",
				"implicit" : 1
			}
 ],
		"autosave" : 0
	}

}
