{
	"patcher" : 	{
		"fileversion" : 1,
		"appversion" : 		{
			"major" : 8,
			"minor" : 3,
			"revision" : 1,
			"architecture" : "x64",
			"modernui" : 1
		}
,
		"classnamespace" : "box",
		"rect" : [ 100.0, 100.0, 718.0, 691.0 ],
		"bglocked" : 0,
		"openinpresentation" : 0,
		"default_fontsize" : 12.0,
		"default_fontface" : 0,
		"default_fontname" : "Arial",
		"gridonopen" : 1,
		"gridsize" : [ 15.0, 15.0 ],
		"gridsnaponopen" : 1,
		"objectsnaponopen" : 1,
		"statusbarvisible" : 2,
		"toolbarvisible" : 1,
		"lefttoolbarpinned" : 0,
		"toptoolbarpinned" : 0,
		"righttoolbarpinned" : 0,
		"bottomtoolbarpinned" : 0,
		"toolbars_unpinned_last_save" : 0,
		"tallnewobj" : 0,
		"boxanimatetime" : 200,
		"enablehscroll" : 1,
		"enablevscroll" : 1,
		"devicewidth" : 0.0,
		"description" : "",
		"digest" : "",
		"tags" : "",
		"style" : "",
		"subpatcher_template" : "Default Max 7",
		"assistshowspatchername" : 0,
		"boxes" : [ 			{
				"box" : 				{
					"id" : "obj-25",
					"maxclass" : "comment",
					"numinlets" : 1,
					"numoutlets" : 0,
					"patching_rect" : [ 278.333312999999976, 495.0, 163.0, 20.0 ],
					"text" : "OSC (containing /count/max)"
				}

			}
, 			{
				"box" : 				{
					"id" : "obj-23",
					"maxclass" : "number",
					"numinlets" : 1,
					"numoutlets" : 2,
					"outlettype" : [ "", "bang" ],
					"parameter_enable" : 0,
					"patching_rect" : [ 424.166687000000024, 337.5, 50.0, 22.0 ],
					"varname" : "/count/max"
				}

			}
, 			{
				"box" : 				{
					"id" : "obj-18",
					"maxclass" : "message",
					"numinlets" : 2,
					"numoutlets" : 1,
					"outlettype" : [ "" ],
					"patching_rect" : [ 424.166687000000024, 300.0, 117.0, 22.0 ],
					"text" : "varname /count/max"
				}

			}
, 			{
				"box" : 				{
					"fontface" : 2,
					"id" : "obj-15",
					"maxclass" : "comment",
					"numinlets" : 1,
					"numoutlets" : 0,
					"patching_rect" : [ 48.0, 154.0, 271.0, 20.0 ],
					"text" : "also see cnmat.o.click.counter~ for more features"
				}

			}
, 			{
				"box" : 				{
					"fontface" : 0,
					"fontsize" : 12.0,
					"id" : "obj-7",
					"linecount" : 2,
					"maxclass" : "o.display",
					"numinlets" : 1,
					"numoutlets" : 1,
					"outlettype" : [ "" ],
					"patching_rect" : [ 263.0, 570.0, 150.0, 48.0 ],
					"text" : "/ms : 205.,\n/count/max : 17"
				}

			}
, 			{
				"box" : 				{
					"id" : "obj-11",
					"maxclass" : "newobj",
					"numinlets" : 1,
					"numoutlets" : 1,
					"outlettype" : [ "bang" ],
					"patching_rect" : [ 153.0, 184.0, 60.0, 22.0 ],
					"text" : "loadbang"
				}

			}
, 			{
				"box" : 				{
					"fontface" : 0,
					"fontsize" : 12.0,
					"id" : "obj-10",
					"linecount" : 3,
					"maxclass" : "o.compose",
					"numinlets" : 2,
					"numoutlets" : 1,
					"outlettype" : [ "" ],
					"patching_rect" : [ 153.0, 217.0, 129.0, 51.0 ],
					"saved_bundle_data" : [ 35, 98, 117, 110, 100, 108, 101, 0, 0, 0, 0, 0, 0, 0, 0, 0, 0, 0, 0, 16, 47, 109, 115, 0, 44, 100, 0, 0, 64, 105, -96, 0, 0, 0, 0, 0, 0, 0, 0, 16, 47, 102, 111, 111, 0, 0, 0, 0, 44, 105, 0, 0, 0, 0, 0, 55, 0, 0, 0, 20, 47, 99, 111, 117, 110, 116, 47, 109, 97, 120, 0, 0, 44, 105, 0, 0, 0, 0, 0, 17 ],
					"saved_bundle_length" : 80,
					"text" : "/ms : 205.,\n/foo : 55,\n/count/max : 17"
				}

			}
, 			{
				"box" : 				{
					"id" : "obj-8",
					"maxclass" : "message",
					"numinlets" : 2,
					"numoutlets" : 1,
					"outlettype" : [ "" ],
					"patching_rect" : [ 424.166687000000024, 223.0, 80.0, 22.0 ],
					"text" : "varname /ms"
				}

			}
, 			{
				"box" : 				{
					"id" : "obj-40",
					"maxclass" : "scope~",
					"numinlets" : 2,
					"numoutlets" : 0,
					"patching_rect" : [ 33.333328000000002, 414.0, 105.0, 76.0 ]
				}

			}
, 			{
				"box" : 				{
					"id" : "obj-39",
					"linecount" : 5,
					"maxclass" : "comment",
					"numinlets" : 1,
					"numoutlets" : 0,
					"patching_rect" : [ 22.5, 71.5, 322.0, 74.0 ],
					"text" : "inlet 1: click to count\ninlet 2: OSC number of steps (/count/max)\n\noutlet 1: current count (starting from zero)\noutlet 2: OSC passthrough"
				}

			}
, 			{
				"box" : 				{
					"id" : "obj-37",
					"maxclass" : "comment",
					"numinlets" : 1,
					"numoutlets" : 0,
					"patching_rect" : [ 22.5, 40.0, 312.0, 20.0 ],
					"text" : "sample rate counter with OSC input for number of steps"
				}

			}
, 			{
				"box" : 				{
					"fontname" : "Arial Bold Italic",
					"fontsize" : 18.0,
					"id" : "obj-35",
					"maxclass" : "comment",
					"numinlets" : 1,
					"numoutlets" : 0,
					"patching_rect" : [ 22.5, 11.0, 199.0, 27.0 ],
					"text" : "cnmat.o.counter~"
				}

			}
, 			{
				"box" : 				{
					"id" : "obj-34",
					"maxclass" : "comment",
					"numinlets" : 1,
					"numoutlets" : 0,
					"patching_rect" : [ 81.0, 495.0, 80.0, 20.0 ],
					"text" : "click to count"
				}

			}
, 			{
				"box" : 				{
					"id" : "obj-24",
					"maxclass" : "comment",
					"numinlets" : 1,
					"numoutlets" : 0,
					"patching_rect" : [ 105.0, 570.0, 40.0, 20.0 ],
					"text" : "count"
				}

			}
, 			{
				"box" : 				{
					"id" : "obj-20",
					"maxclass" : "message",
					"numinlets" : 2,
					"numoutlets" : 1,
					"outlettype" : [ "" ],
					"patching_rect" : [ 537.5, 559.0, 33.0, 22.0 ],
					"text" : "stop"
				}

			}
, 			{
				"box" : 				{
					"id" : "obj-19",
					"maxclass" : "message",
					"numinlets" : 2,
					"numoutlets" : 1,
					"outlettype" : [ "" ],
					"patching_rect" : [ 458.0, 559.0, 74.0, 22.0 ],
					"text" : "startwindow"
				}

			}
, 			{
				"box" : 				{
					"id" : "obj-17",
					"maxclass" : "newobj",
					"numinlets" : 2,
					"numoutlets" : 0,
					"patching_rect" : [ 458.0, 601.0, 37.0, 22.0 ],
					"text" : "dac~"
				}

			}
, 			{
				"box" : 				{
					"format" : 6,
					"id" : "obj-12",
					"maxclass" : "flonum",
					"numinlets" : 1,
					"numoutlets" : 2,
					"outlettype" : [ "", "bang" ],
					"parameter_enable" : 0,
					"patching_rect" : [ 424.166687000000024, 257.0, 50.0, 22.0 ],
					"varname" : "/ms"
				}

			}
, 			{
				"box" : 				{
					"id" : "obj-103",
					"maxclass" : "newobj",
					"numinlets" : 1,
					"numoutlets" : 3,
					"outlettype" : [ "FullPacket", "FullPacket", "FullPacket" ],
					"patching_rect" : [ 153.0, 275.5, 73.0, 22.0 ],
					"text" : "o.gui.attach"
				}

			}
, 			{
				"box" : 				{
					"fontface" : 0,
					"fontname" : "Arial",
					"fontsize" : 12.0,
					"id" : "obj-5",
					"maxclass" : "number~",
					"mode" : 2,
					"numinlets" : 2,
					"numoutlets" : 2,
					"outlettype" : [ "signal", "float" ],
					"patching_rect" : [ 153.0, 570.0, 50.0, 22.0 ],
					"sig" : 0.0
				}

			}
, 			{
				"box" : 				{
					"id" : "obj-4",
					"maxclass" : "newobj",
					"numinlets" : 1,
					"numoutlets" : 3,
					"outlettype" : [ "signal", "bang", "FullPacket" ],
					"patching_rect" : [ 153.0, 315.0, 129.0, 22.0 ],
					"text" : "cnmat.o.num~ /ms"
				}

			}
, 			{
				"box" : 				{
					"id" : "obj-3",
					"maxclass" : "newobj",
					"numinlets" : 2,
					"numoutlets" : 4,
					"outlettype" : [ "signal", "signal", "signal", "FullPacket" ],
					"patching_rect" : [ 153.0, 347.0, 84.0, 22.0 ],
					"text" : "cnmat.phase~"
				}

			}
, 			{
				"box" : 				{
					"id" : "obj-2",
					"maxclass" : "newobj",
					"numinlets" : 1,
					"numoutlets" : 1,
					"outlettype" : [ "signal" ],
					"patching_rect" : [ 153.0, 378.0, 112.0, 22.0 ],
					"text" : "cnmat.phase.click~"
				}

			}
, 			{
				"box" : 				{
					"color" : [ 0.541176, 0.815686, 0.913725, 1.0 ],
					"id" : "obj-1",
					"maxclass" : "newobj",
					"numinlets" : 2,
					"numoutlets" : 2,
					"outlettype" : [ "signal", "FullPacket" ],
					"patching_rect" : [ 153.0, 529.0, 129.0, 22.0 ],
					"text" : "cnmat.o.counter~"
				}

			}
 ],
		"lines" : [ 			{
				"patchline" : 				{
					"destination" : [ "obj-5", 0 ],
					"source" : [ "obj-1", 0 ]
				}

			}
, 			{
				"patchline" : 				{
					"destination" : [ "obj-7", 0 ],
					"source" : [ "obj-1", 1 ]
				}

			}
, 			{
				"patchline" : 				{
					"destination" : [ "obj-103", 0 ],
					"source" : [ "obj-10", 0 ]
				}

			}
, 			{
				"patchline" : 				{
					"destination" : [ "obj-4", 0 ],
					"source" : [ "obj-103", 0 ]
				}

			}
, 			{
				"patchline" : 				{
					"destination" : [ "obj-10", 0 ],
					"source" : [ "obj-11", 0 ]
				}

			}
, 			{
				"patchline" : 				{
					"destination" : [ "obj-23", 0 ],
					"source" : [ "obj-18", 0 ]
				}

			}
, 			{
				"patchline" : 				{
					"destination" : [ "obj-17", 0 ],
					"source" : [ "obj-19", 0 ]
				}

			}
, 			{
				"patchline" : 				{
					"destination" : [ "obj-1", 0 ],
					"order" : 0,
					"source" : [ "obj-2", 0 ]
				}

			}
, 			{
				"patchline" : 				{
					"destination" : [ "obj-40", 0 ],
					"order" : 1,
					"source" : [ "obj-2", 0 ]
				}

			}
, 			{
				"patchline" : 				{
					"destination" : [ "obj-17", 0 ],
					"source" : [ "obj-20", 0 ]
				}

			}
, 			{
				"patchline" : 				{
					"destination" : [ "obj-2", 0 ],
					"source" : [ "obj-3", 0 ]
				}

			}
, 			{
				"patchline" : 				{
					"destination" : [ "obj-1", 1 ],
					"source" : [ "obj-4", 2 ]
				}

			}
, 			{
				"patchline" : 				{
					"destination" : [ "obj-3", 0 ],
					"source" : [ "obj-4", 0 ]
				}

			}
, 			{
				"patchline" : 				{
					"destination" : [ "obj-12", 0 ],
					"source" : [ "obj-8", 0 ]
				}

			}
 ],
		"dependency_cache" : [ 			{
				"name" : "cnmat.loadbang.maxpat",
				"bootpath" : "~/Documents/max_enabled/pedagogy/__158a_me/158a_past_semesters/158a_2020_Spr/final/submissions/jessie_mindel_final/patchers",
				"patcherrelativepath" : "../../../../../Documents/max_enabled/pedagogy/__158a_me/158a_past_semesters/158a_2020_Spr/final/submissions/jessie_mindel_final/patchers",
				"type" : "JSON",
				"implicit" : 1
			}
, 			{
				"name" : "cnmat.o.counter~.maxpat",
				"bootpath" : "~/Documents/max_enabled/pedagogy/__other_teachers/158a_maija/patchers/signal",
				"patcherrelativepath" : "../../../../../Documents/max_enabled/pedagogy/__other_teachers/158a_maija/patchers/signal",
				"type" : "JSON",
				"implicit" : 1
			}
, 			{
				"name" : "cnmat.o.num~.maxpat",
				"bootpath" : "~/Documents/max_enabled/pedagogy/__other_teachers/158a_maija/patchers/signal",
				"patcherrelativepath" : "../../../../../Documents/max_enabled/pedagogy/__other_teachers/158a_maija/patchers/signal",
				"type" : "JSON",
				"implicit" : 1
			}
, 			{
				"name" : "cnmat.phase.click~.maxpat",
				"bootpath" : "~/Documents/max_enabled/pedagogy/__158a_me/158a_past_semesters/158a_2020_Spr/final/submissions/jessie_mindel_final/patchers",
				"patcherrelativepath" : "../../../../../Documents/max_enabled/pedagogy/__158a_me/158a_past_semesters/158a_2020_Spr/final/submissions/jessie_mindel_final/patchers",
				"type" : "JSON",
				"implicit" : 1
			}
, 			{
				"name" : "cnmat.phase~.maxpat",
				"bootpath" : "~/Documents/max_enabled/pedagogy/__158a_me/158a_past_semesters/158a_2020_Spr/final/submissions/jessie_mindel_final/patchers",
				"patcherrelativepath" : "../../../../../Documents/max_enabled/pedagogy/__158a_me/158a_past_semesters/158a_2020_Spr/final/submissions/jessie_mindel_final/patchers",
				"type" : "JSON",
				"implicit" : 1
			}
, 			{
				"name" : "delta.click3.gendsp",
				"bootpath" : "~/Documents/max_enabled/pedagogy/__158a_me/158a_past_semesters/158a_2020_Spr/final/submissions/jessie_mindel_final/code",
				"patcherrelativepath" : "../../../../../Documents/max_enabled/pedagogy/__158a_me/158a_past_semesters/158a_2020_Spr/final/submissions/jessie_mindel_final/code",
				"type" : "gDSP",
				"implicit" : 1
			}
, 			{
				"name" : "o.compose.mxo",
				"type" : "iLaX"
			}
, 			{
				"name" : "o.cond.mxo",
				"type" : "iLaX"
			}
, 			{
				"name" : "o.display.mxo",
				"type" : "iLaX"
			}
, 			{
				"name" : "o.doc.handler.maxpat",
				"bootpath" : "~/Documents/max_enabled/pedagogy/__158a_me/158a_past_semesters/158a_2020_Spr/final/submissions/jessie_mindel_final/patchers",
				"patcherrelativepath" : "../../../../../Documents/max_enabled/pedagogy/__158a_me/158a_past_semesters/158a_2020_Spr/final/submissions/jessie_mindel_final/patchers",
				"type" : "JSON",
				"implicit" : 1
			}
, 			{
				"name" : "o.expr.codebox.mxo",
				"type" : "iLaX"
			}
, 			{
				"name" : "o.gui.attach.mxo",
				"type" : "iLaX"
			}
, 			{
				"name" : "o.pack.mxo",
				"type" : "iLaX"
			}
, 			{
				"name" : "o.prepend.mxo",
				"type" : "iLaX"
			}
, 			{
				"name" : "o.route.mxo",
				"type" : "iLaX"
			}
, 			{
				"name" : "o.union.mxo",
				"type" : "iLaX"
			}
, 			{
				"name" : "shot-ms-phasor.gendsp",
				"bootpath" : "~/Documents/max_enabled/pedagogy/__158a_me/158a_past_semesters/158a_2020_Spr/final/submissions/jessie_mindel_final/code",
				"patcherrelativepath" : "../../../../../Documents/max_enabled/pedagogy/__158a_me/158a_past_semesters/158a_2020_Spr/final/submissions/jessie_mindel_final/code",
				"type" : "gDSP",
				"implicit" : 1
			}
 ],
		"autosave" : 0
	}

}
