{
	"patcher" : 	{
		"fileversion" : 1,
		"appversion" : 		{
			"major" : 8,
			"minor" : 3,
			"revision" : 1,
			"architecture" : "x64",
			"modernui" : 1
		}
,
		"classnamespace" : "box",
		"rect" : [ 127.0, 136.0, 1078.0, 712.0 ],
		"bglocked" : 0,
		"openinpresentation" : 0,
		"default_fontsize" : 12.0,
		"default_fontface" : 0,
		"default_fontname" : "Arial",
		"gridonopen" : 1,
		"gridsize" : [ 15.0, 15.0 ],
		"gridsnaponopen" : 1,
		"objectsnaponopen" : 1,
		"statusbarvisible" : 2,
		"toolbarvisible" : 1,
		"lefttoolbarpinned" : 0,
		"toptoolbarpinned" : 0,
		"righttoolbarpinned" : 0,
		"bottomtoolbarpinned" : 0,
		"toolbars_unpinned_last_save" : 0,
		"tallnewobj" : 0,
		"boxanimatetime" : 200,
		"enablehscroll" : 1,
		"enablevscroll" : 1,
		"devicewidth" : 0.0,
		"description" : "",
		"digest" : "",
		"tags" : "",
		"style" : "",
		"subpatcher_template" : "",
		"assistshowspatchername" : 0,
		"boxes" : [ 			{
				"box" : 				{
					"addpoints" : [ 0.0, 0.0, 0, 168.439716312057158, 1.0, 0, 317.375886524823102, 0.733333333333333, 0, 1157.801418439716826, 0.72, 0, 1562.056737588652823, 0.333333333333333, 0, 2000.0, 0.973333333333333, 0 ],
					"domain" : 2000.0,
					"id" : "obj-1",
					"maxclass" : "function",
					"numinlets" : 1,
					"numoutlets" : 4,
					"outlettype" : [ "float", "", "", "bang" ],
					"parameter_enable" : 0,
					"patching_rect" : [ 219.166666666666629, 201.0, 200.0, 100.0 ]
				}

			}
, 			{
				"box" : 				{
					"fontsize" : 12.0,
					"id" : "obj-50",
					"linecount" : 2,
					"maxclass" : "comment",
					"numinlets" : 1,
					"numoutlets" : 0,
					"patching_rect" : [ 50.0, 596.0, 860.0, 33.0 ],
					"text" : "NOTE: the other issue would be if your metro re-triggers in the middle of your amp env.  Thus, make sure your metro is pulsing at the same duration (or longer) as the amp env duration.  Above, the metro is 2010 ms and the amp env is 2000 ms."
				}

			}
, 			{
				"box" : 				{
					"fontsize" : 9.0,
					"id" : "obj-49",
					"maxclass" : "newobj",
					"numinlets" : 1,
					"numoutlets" : 1,
					"outlettype" : [ "bang" ],
					"patching_rect" : [ 679.5, 146.0, 46.0, 19.0 ],
					"text" : "loadbang"
				}

			}
, 			{
				"box" : 				{
					"fontsize" : 9.0,
					"id" : "obj-48",
					"maxclass" : "newobj",
					"numinlets" : 1,
					"numoutlets" : 1,
					"outlettype" : [ "bang" ],
					"patching_rect" : [ 260.0, 146.0, 46.0, 19.0 ],
					"text" : "loadbang"
				}

			}
, 			{
				"box" : 				{
					"id" : "obj-47",
					"maxclass" : "newobj",
					"numinlets" : 2,
					"numoutlets" : 1,
					"outlettype" : [ "bang" ],
					"patching_rect" : [ 219.0, 89.0, 126.0, 22.0 ],
					"text" : "metro 2010 @active 1"
				}

			}
, 			{
				"box" : 				{
					"id" : "obj-39",
					"maxclass" : "scope~",
					"numinlets" : 2,
					"numoutlets" : 0,
					"patching_rect" : [ 732.0, 360.0, 91.0, 88.0 ],
					"range" : [ -0.1, 1.1 ]
				}

			}
, 			{
				"box" : 				{
					"id" : "obj-40",
					"maxclass" : "button",
					"numinlets" : 1,
					"numoutlets" : 1,
					"outlettype" : [ "bang" ],
					"parameter_enable" : 0,
					"patching_rect" : [ 643.166666666666629, 130.0, 24.0, 24.0 ]
				}

			}
, 			{
				"box" : 				{
					"fontsize" : 10.0,
					"id" : "obj-41",
					"maxclass" : "message",
					"numinlets" : 2,
					"numoutlets" : 1,
					"outlettype" : [ "" ],
					"patching_rect" : [ 679.5, 172.0, 80.0, 20.0 ],
					"text" : "setdomain 2000"
				}

			}
, 			{
				"box" : 				{
					"addpoints" : [ 0.0, 0.0, 0, 168.439716312057158, 1.0, 0, 317.375886524823102, 0.733333333333333, 0, 1157.801418439716826, 0.72, 0, 1562.056737588652823, 0.333333333333333, 0, 1849.29078014184438, 1.0, 0, 1945.035460992908156, 1.0, 0, 2000.0, 0.0, 0 ],
					"domain" : 2000.0,
					"id" : "obj-43",
					"maxclass" : "function",
					"numinlets" : 1,
					"numoutlets" : 4,
					"outlettype" : [ "float", "", "", "bang" ],
					"parameter_enable" : 0,
					"patching_rect" : [ 643.166666666666629, 201.0, 200.0, 100.0 ]
				}

			}
, 			{
				"box" : 				{
					"id" : "obj-44",
					"maxclass" : "newobj",
					"numinlets" : 2,
					"numoutlets" : 2,
					"outlettype" : [ "signal", "bang" ],
					"patching_rect" : [ 703.5, 328.0, 34.0, 22.0 ],
					"text" : "line~"
				}

			}
, 			{
				"box" : 				{
					"id" : "obj-45",
					"maxclass" : "newobj",
					"numinlets" : 2,
					"numoutlets" : 1,
					"outlettype" : [ "signal" ],
					"patching_rect" : [ 618.0, 360.0, 104.5, 22.0 ],
					"text" : "*~"
				}

			}
, 			{
				"box" : 				{
					"id" : "obj-46",
					"maxclass" : "newobj",
					"numinlets" : 3,
					"numoutlets" : 1,
					"outlettype" : [ "signal" ],
					"patching_rect" : [ 618.0, 328.0, 49.0, 22.0 ],
					"text" : "tri~ 220"
				}

			}
, 			{
				"box" : 				{
					"id" : "obj-38",
					"maxclass" : "scope~",
					"numinlets" : 2,
					"numoutlets" : 0,
					"patching_rect" : [ 308.0, 360.0, 91.0, 88.0 ],
					"range" : [ -0.1, 1.1 ]
				}

			}
, 			{
				"box" : 				{
					"id" : "obj-36",
					"maxclass" : "button",
					"numinlets" : 1,
					"numoutlets" : 1,
					"outlettype" : [ "bang" ],
					"parameter_enable" : 0,
					"patching_rect" : [ 219.166666666666629, 130.0, 24.0, 24.0 ]
				}

			}
, 			{
				"box" : 				{
					"fontsize" : 10.0,
					"id" : "obj-24",
					"maxclass" : "message",
					"numinlets" : 2,
					"numoutlets" : 1,
					"outlettype" : [ "" ],
					"patching_rect" : [ 260.0, 172.0, 80.0, 20.0 ],
					"text" : "setdomain 2000"
				}

			}
, 			{
				"box" : 				{
					"id" : "obj-5",
					"maxclass" : "newobj",
					"numinlets" : 2,
					"numoutlets" : 2,
					"outlettype" : [ "signal", "bang" ],
					"patching_rect" : [ 279.5, 328.0, 34.0, 22.0 ],
					"text" : "line~"
				}

			}
, 			{
				"box" : 				{
					"id" : "obj-4",
					"maxclass" : "newobj",
					"numinlets" : 2,
					"numoutlets" : 1,
					"outlettype" : [ "signal" ],
					"patching_rect" : [ 194.0, 360.0, 104.5, 22.0 ],
					"text" : "*~"
				}

			}
, 			{
				"box" : 				{
					"fontface" : 2,
					"fontsize" : 12.0,
					"id" : "obj-3",
					"maxclass" : "comment",
					"numinlets" : 1,
					"numoutlets" : 0,
					"patching_rect" : [ 708.0, 28.0, 46.0, 20.0 ],
					"text" : "exactly"
				}

			}
, 			{
				"box" : 				{
					"id" : "obj-33",
					"maxclass" : "comment",
					"numinlets" : 1,
					"numoutlets" : 0,
					"patching_rect" : [ 50.0, 28.0, 797.0, 20.0 ],
					"text" : "If you are using function table for an amp envelope, and if that envelope ever gets retriggered, make sure the endpoints are              the same value."
				}

			}
, 			{
				"box" : 				{
					"fontface" : 3,
					"fontsize" : 18.0,
					"id" : "obj-34",
					"maxclass" : "comment",
					"numinlets" : 1,
					"numoutlets" : 0,
					"patching_rect" : [ 5.0, 2.0, 484.0, 27.0 ],
					"text" : "de-clicking: function endpoints must be same (for amp)"
				}

			}
, 			{
				"box" : 				{
					"fontsize" : 12.0,
					"id" : "obj-22",
					"maxclass" : "comment",
					"numinlets" : 1,
					"numoutlets" : 0,
					"patching_rect" : [ 50.0, 52.0, 626.0, 20.0 ],
					"text" : "A safe bet is to make your amp env start and end at 0, but anything can work as long as the endpoints are the same."
				}

			}
, 			{
				"box" : 				{
					"fontsize" : 10.0,
					"id" : "obj-31",
					"maxclass" : "comment",
					"numinlets" : 1,
					"numoutlets" : 0,
					"patching_rect" : [ 917.813477000000148, 675.0, 126.0, 18.0 ],
					"text" : "Ilya Rostovtsev, Jon Kulpa"
				}

			}
, 			{
				"box" : 				{
					"fontface" : 1,
					"fontsize" : 11.0,
					"id" : "obj-32",
					"maxclass" : "comment",
					"numinlets" : 1,
					"numoutlets" : 0,
					"patching_rect" : [ 538.0, 130.0, 52.0, 19.0 ],
					"text" : "Solution"
				}

			}
, 			{
				"box" : 				{
					"fontface" : 1,
					"fontsize" : 11.0,
					"id" : "obj-26",
					"maxclass" : "comment",
					"numinlets" : 1,
					"numoutlets" : 0,
					"patching_rect" : [ 96.0, 130.0, 45.0, 19.0 ],
					"text" : "Click-y"
				}

			}
, 			{
				"box" : 				{
					"data" : [ 123, "png", "IBkSG0fBZn....PCIgDQRA..H.A...f.HX....v5tzKs....DLmPIQEBHf.B7g.YHB...HSRDEDU3wY6NGS...BD.D5LZlLM5FiePHAT..........78VU2pyvO..........XN6Gz2pAHTxsiJV.....jTQNQjqBAlf" ],
					"embed" : 1,
					"id" : "obj-60",
					"maxclass" : "fpic",
					"numinlets" : 1,
					"numoutlets" : 1,
					"outlettype" : [ "jit_matrix" ],
					"patching_rect" : [ 17.0, 698.0, 1026.813477000000148, 10.0 ],
					"pic" : "separation_line1.png"
				}

			}
, 			{
				"box" : 				{
					"id" : "obj-15",
					"maxclass" : "gain~",
					"multichannelvariant" : 0,
					"numinlets" : 1,
					"numoutlets" : 2,
					"outlettype" : [ "signal", "" ],
					"parameter_enable" : 0,
					"patching_rect" : [ 618.0, 490.0, 126.0, 34.0 ]
				}

			}
, 			{
				"box" : 				{
					"id" : "obj-11",
					"maxclass" : "message",
					"numinlets" : 2,
					"numoutlets" : 1,
					"outlettype" : [ "" ],
					"patching_rect" : [ 415.0, 502.0, 31.0, 22.0 ],
					"text" : "stop"
				}

			}
, 			{
				"box" : 				{
					"id" : "obj-10",
					"maxclass" : "message",
					"numinlets" : 2,
					"numoutlets" : 1,
					"outlettype" : [ "" ],
					"patching_rect" : [ 336.0, 502.0, 72.0, 22.0 ],
					"text" : "startwindow"
				}

			}
, 			{
				"box" : 				{
					"id" : "obj-8",
					"maxclass" : "newobj",
					"numinlets" : 2,
					"numoutlets" : 0,
					"patching_rect" : [ 194.0, 547.0, 35.0, 22.0 ],
					"text" : "dac~"
				}

			}
, 			{
				"box" : 				{
					"id" : "obj-7",
					"maxclass" : "gain~",
					"multichannelvariant" : 0,
					"numinlets" : 1,
					"numoutlets" : 2,
					"outlettype" : [ "signal", "" ],
					"parameter_enable" : 0,
					"patching_rect" : [ 194.0, 490.0, 126.0, 34.0 ]
				}

			}
, 			{
				"box" : 				{
					"id" : "obj-6",
					"maxclass" : "newobj",
					"numinlets" : 3,
					"numoutlets" : 1,
					"outlettype" : [ "signal" ],
					"patching_rect" : [ 194.0, 328.0, 49.0, 22.0 ],
					"text" : "tri~ 220"
				}

			}
 ],
		"lines" : [ 			{
				"patchline" : 				{
					"destination" : [ "obj-5", 0 ],
					"source" : [ "obj-1", 1 ]
				}

			}
, 			{
				"patchline" : 				{
					"destination" : [ "obj-8", 0 ],
					"source" : [ "obj-10", 0 ]
				}

			}
, 			{
				"patchline" : 				{
					"destination" : [ "obj-8", 0 ],
					"source" : [ "obj-11", 0 ]
				}

			}
, 			{
				"patchline" : 				{
					"destination" : [ "obj-8", 1 ],
					"order" : 0,
					"source" : [ "obj-15", 0 ]
				}

			}
, 			{
				"patchline" : 				{
					"destination" : [ "obj-8", 0 ],
					"order" : 1,
					"source" : [ "obj-15", 0 ]
				}

			}
, 			{
				"patchline" : 				{
					"destination" : [ "obj-1", 0 ],
					"source" : [ "obj-24", 0 ]
				}

			}
, 			{
				"patchline" : 				{
					"destination" : [ "obj-1", 0 ],
					"source" : [ "obj-36", 0 ]
				}

			}
, 			{
				"patchline" : 				{
					"destination" : [ "obj-7", 0 ],
					"source" : [ "obj-4", 0 ]
				}

			}
, 			{
				"patchline" : 				{
					"destination" : [ "obj-43", 0 ],
					"source" : [ "obj-40", 0 ]
				}

			}
, 			{
				"patchline" : 				{
					"destination" : [ "obj-43", 0 ],
					"source" : [ "obj-41", 0 ]
				}

			}
, 			{
				"patchline" : 				{
					"destination" : [ "obj-44", 0 ],
					"source" : [ "obj-43", 1 ]
				}

			}
, 			{
				"patchline" : 				{
					"destination" : [ "obj-39", 0 ],
					"order" : 0,
					"source" : [ "obj-44", 0 ]
				}

			}
, 			{
				"patchline" : 				{
					"destination" : [ "obj-45", 1 ],
					"order" : 1,
					"source" : [ "obj-44", 0 ]
				}

			}
, 			{
				"patchline" : 				{
					"destination" : [ "obj-15", 0 ],
					"source" : [ "obj-45", 0 ]
				}

			}
, 			{
				"patchline" : 				{
					"destination" : [ "obj-45", 0 ],
					"source" : [ "obj-46", 0 ]
				}

			}
, 			{
				"patchline" : 				{
					"destination" : [ "obj-36", 0 ],
					"order" : 1,
					"source" : [ "obj-47", 0 ]
				}

			}
, 			{
				"patchline" : 				{
					"destination" : [ "obj-40", 0 ],
					"order" : 0,
					"source" : [ "obj-47", 0 ]
				}

			}
, 			{
				"patchline" : 				{
					"destination" : [ "obj-24", 0 ],
					"source" : [ "obj-48", 0 ]
				}

			}
, 			{
				"patchline" : 				{
					"destination" : [ "obj-41", 0 ],
					"source" : [ "obj-49", 0 ]
				}

			}
, 			{
				"patchline" : 				{
					"destination" : [ "obj-38", 0 ],
					"order" : 0,
					"source" : [ "obj-5", 0 ]
				}

			}
, 			{
				"patchline" : 				{
					"destination" : [ "obj-4", 1 ],
					"order" : 1,
					"source" : [ "obj-5", 0 ]
				}

			}
, 			{
				"patchline" : 				{
					"destination" : [ "obj-4", 0 ],
					"source" : [ "obj-6", 0 ]
				}

			}
, 			{
				"patchline" : 				{
					"destination" : [ "obj-8", 1 ],
					"order" : 0,
					"source" : [ "obj-7", 0 ]
				}

			}
, 			{
				"patchline" : 				{
					"destination" : [ "obj-8", 0 ],
					"order" : 1,
					"source" : [ "obj-7", 0 ]
				}

			}
 ],
		"dependency_cache" : [  ],
		"autosave" : 0,
		"styles" : [ 			{
				"name" : "music+computing_highlight_black_sz12",
				"default" : 				{
					"fontface" : [ 1 ]
				}
,
				"parentstyle" : "",
				"multi" : 0
			}
, 			{
				"name" : "music+computing_highlight_bright_sz12",
				"default" : 				{
					"fontface" : [ 1 ],
					"fontname" : [ "Helvetica Neue" ],
					"fontsize" : [ 12.0 ],
					"textcolor" : [ 0.315808, 0.0, 0.827487, 1.0 ]
				}
,
				"parentstyle" : "",
				"multi" : 0
			}
, 			{
				"name" : "music+computing_pic_descript",
				"default" : 				{
					"fontface" : [ 2 ],
					"fontsize" : [ 11.0 ]
				}
,
				"parentstyle" : "",
				"multi" : 0
			}
, 			{
				"name" : "music+computing_title_module",
				"default" : 				{
					"fontface" : [ 1 ],
					"fontsize" : [ 22.0 ]
				}
,
				"parentstyle" : "",
				"multi" : 0
			}
 ]
	}

}
