{
	"patcher" : 	{
		"fileversion" : 1,
		"appversion" : 		{
			"major" : 8,
			"minor" : 3,
			"revision" : 1,
			"architecture" : "x64",
			"modernui" : 1
		}
,
		"classnamespace" : "box",
		"rect" : [ 167.0, 246.0, 1145.0, 490.0 ],
		"bglocked" : 0,
		"openinpresentation" : 0,
		"default_fontsize" : 12.0,
		"default_fontface" : 0,
		"default_fontname" : "Arial",
		"gridonopen" : 1,
		"gridsize" : [ 15.0, 15.0 ],
		"gridsnaponopen" : 1,
		"objectsnaponopen" : 1,
		"statusbarvisible" : 2,
		"toolbarvisible" : 1,
		"lefttoolbarpinned" : 0,
		"toptoolbarpinned" : 0,
		"righttoolbarpinned" : 0,
		"bottomtoolbarpinned" : 0,
		"toolbars_unpinned_last_save" : 0,
		"tallnewobj" : 0,
		"boxanimatetime" : 200,
		"enablehscroll" : 1,
		"enablevscroll" : 1,
		"devicewidth" : 0.0,
		"description" : "",
		"digest" : "",
		"tags" : "",
		"style" : "",
		"subpatcher_template" : "",
		"assistshowspatchername" : 0,
		"boxes" : [ 			{
				"box" : 				{
					"fontface" : 1,
					"fontname" : "Arial ",
					"fontsize" : 11.0,
					"id" : "obj-2",
					"maxclass" : "comment",
					"numinlets" : 1,
					"numoutlets" : 0,
					"patching_rect" : [ 350.5, 285.5, 51.0, 17.0 ],
					"text" : "boolean",
					"textcolor" : [ 0.292172193527222, 0.0, 0.998296856880188, 1.0 ]
				}

			}
, 			{
				"box" : 				{
					"fontsize" : 11.0,
					"id" : "obj-27",
					"maxclass" : "comment",
					"numinlets" : 1,
					"numoutlets" : 0,
					"patching_rect" : [ 331.906738500000074, 305.0, 361.0, 19.0 ],
					"text" : "If the input passes the test, we get 1. If the input fails the test, we get 0.  "
				}

			}
, 			{
				"box" : 				{
					"id" : "obj-26",
					"maxclass" : "comment",
					"numinlets" : 1,
					"numoutlets" : 0,
					"patching_rect" : [ 39.0, 68.0, 155.0, 20.0 ],
					"text" : "Given this \" less-than test \","
				}

			}
, 			{
				"box" : 				{
					"fontface" : 1,
					"id" : "obj-15",
					"maxclass" : "comment",
					"numinlets" : 1,
					"numoutlets" : 0,
					"patching_rect" : [ 189.0, 68.0, 301.0, 20.0 ],
					"text" : "probability value and threshold value are the same."
				}

			}
, 			{
				"box" : 				{
					"fontsize" : 11.0,
					"id" : "obj-14",
					"maxclass" : "comment",
					"numinlets" : 1,
					"numoutlets" : 0,
					"patching_rect" : [ 314.0, 330.0, 555.0, 19.0 ],
					"text" : "Thus, if the threshold (probability), is high, the input is more likely to pass the test - we get more trues ( value 1 )."
				}

			}
, 			{
				"box" : 				{
					"fontface" : 3,
					"id" : "obj-13",
					"maxclass" : "comment",
					"numinlets" : 1,
					"numoutlets" : 0,
					"patching_rect" : [ 285.0, 253.0, 177.0, 20.0 ],
					"text" : "probability / threshold (0 - 1)"
				}

			}
, 			{
				"box" : 				{
					"fontface" : 1,
					"fontname" : "Arial ",
					"fontsize" : 12.0,
					"id" : "obj-32",
					"maxclass" : "comment",
					"numinlets" : 1,
					"numoutlets" : 0,
					"patching_rect" : [ 460.5, 45.0, 63.0, 18.0 ],
					"text" : "threshold",
					"textcolor" : [ 0.292172193527222, 0.0, 0.998296856880188, 1.0 ]
				}

			}
, 			{
				"box" : 				{
					"id" : "obj-11",
					"maxclass" : "comment",
					"numinlets" : 1,
					"numoutlets" : 0,
					"patching_rect" : [ 39.0, 43.0, 492.0, 20.0 ],
					"text" : "We can implement probability by testing to see if a random value is less than a                   ."
				}

			}
, 			{
				"box" : 				{
					"fontsize" : 10.0,
					"hidden" : 1,
					"id" : "obj-10",
					"maxclass" : "newobj",
					"numinlets" : 1,
					"numoutlets" : 1,
					"outlettype" : [ "" ],
					"patching_rect" : [ 194.5, 225.0, 68.0, 20.0 ],
					"text" : "loadmess 0.8"
				}

			}
, 			{
				"box" : 				{
					"fontsize" : 11.0,
					"id" : "obj-8",
					"maxclass" : "comment",
					"numinlets" : 1,
					"numoutlets" : 0,
					"patching_rect" : [ 314.0, 284.0, 296.0, 19.0 ],
					"text" : "<~ is a                , i.e. outputing either true (1) or false (0)"
				}

			}
, 			{
				"box" : 				{
					"fontsize" : 11.0,
					"id" : "obj-6",
					"maxclass" : "comment",
					"numinlets" : 1,
					"numoutlets" : 0,
					"patching_rect" : [ 285.0, 189.0, 409.0, 19.0 ],
					"text" : "Scale the output to be 0 - 1.  Below, we will make our threshold in the same range."
				}

			}
, 			{
				"box" : 				{
					"fontsize" : 10.0,
					"id" : "obj-3",
					"maxclass" : "comment",
					"numinlets" : 1,
					"numoutlets" : 0,
					"patching_rect" : [ 1005.813477000000148, 456.5, 126.0, 18.0 ],
					"text" : "Rama Gottfried, Jon Kulpa"
				}

			}
, 			{
				"box" : 				{
					"data" : [ 123, "png", "IBkSG0fBZn....PCIgDQRA..H.A...f.HX....v5tzKs....DLmPIQEBHf.B7g.YHB...HSRDEDU3wY6NGS...BD.D5LZlLM5FiePHAT..........78VU2pyvO..........XN6Gz2pAHTxsiJV.....jTQNQjqBAlf" ],
					"embed" : 1,
					"id" : "obj-84",
					"maxclass" : "fpic",
					"numinlets" : 1,
					"numoutlets" : 1,
					"outlettype" : [ "jit_matrix" ],
					"patching_rect" : [ 14.0, 476.5, 1117.813477000000148, 10.0 ],
					"pic" : "separation_line1.png"
				}

			}
, 			{
				"box" : 				{
					"id" : "obj-38",
					"maxclass" : "newobj",
					"numinlets" : 2,
					"numoutlets" : 0,
					"patching_rect" : [ 615.906738500000074, 82.0, 37.0, 22.0 ],
					"text" : "dac~"
				}

			}
, 			{
				"box" : 				{
					"id" : "obj-39",
					"maxclass" : "message",
					"numinlets" : 2,
					"numoutlets" : 1,
					"outlettype" : [ "" ],
					"patching_rect" : [ 700.656738500000074, 43.0, 33.0, 22.0 ],
					"text" : "stop"
				}

			}
, 			{
				"box" : 				{
					"id" : "obj-41",
					"maxclass" : "message",
					"numinlets" : 2,
					"numoutlets" : 1,
					"outlettype" : [ "" ],
					"patching_rect" : [ 615.906738500000074, 43.0, 74.0, 22.0 ],
					"text" : "startwindow"
				}

			}
, 			{
				"box" : 				{
					"fontface" : 3,
					"fontsize" : 18.0,
					"id" : "obj-28",
					"maxclass" : "comment",
					"numinlets" : 1,
					"numoutlets" : 0,
					"patching_rect" : [ 7.0, 9.0, 332.0, 27.0 ],
					"text" : "probability via noise~ and a threshold"
				}

			}
, 			{
				"box" : 				{
					"fontsize" : 10.0,
					"id" : "obj-23",
					"maxclass" : "comment",
					"numinlets" : 1,
					"numoutlets" : 0,
					"patching_rect" : [ 111.0, 431.0, 45.0, 18.0 ],
					"text" : "0 (false)"
				}

			}
, 			{
				"box" : 				{
					"fontsize" : 10.0,
					"id" : "obj-22",
					"maxclass" : "comment",
					"numinlets" : 1,
					"numoutlets" : 0,
					"patching_rect" : [ 111.0, 321.0, 41.0, 18.0 ],
					"text" : "1 (true)"
				}

			}
, 			{
				"box" : 				{
					"calccount" : 2,
					"id" : "obj-19",
					"maxclass" : "scope~",
					"numinlets" : 2,
					"numoutlets" : 0,
					"patching_rect" : [ 156.0, 321.0, 130.0, 130.0 ],
					"range" : [ -0.1, 1.1 ]
				}

			}
, 			{
				"box" : 				{
					"id" : "obj-18",
					"maxclass" : "newobj",
					"numinlets" : 2,
					"numoutlets" : 1,
					"outlettype" : [ "signal" ],
					"patching_rect" : [ 156.0, 284.0, 57.5, 22.0 ],
					"text" : "<~"
				}

			}
, 			{
				"box" : 				{
					"fontface" : 0,
					"fontname" : "Arial",
					"fontsize" : 12.0,
					"id" : "obj-17",
					"maxclass" : "number~",
					"maximum" : 1.0,
					"minimum" : 0.0,
					"mode" : 1,
					"numinlets" : 2,
					"numoutlets" : 2,
					"outlettype" : [ "signal", "float" ],
					"patching_rect" : [ 194.5, 253.0, 50.0, 22.0 ],
					"sig" : 0.8
				}

			}
, 			{
				"box" : 				{
					"id" : "obj-16",
					"maxclass" : "newobj",
					"numinlets" : 6,
					"numoutlets" : 1,
					"outlettype" : [ "signal" ],
					"patching_rect" : [ 156.0, 189.0, 100.0, 22.0 ],
					"text" : "scale~ -1 1 0 1"
				}

			}
, 			{
				"box" : 				{
					"id" : "obj-1",
					"maxclass" : "newobj",
					"numinlets" : 1,
					"numoutlets" : 1,
					"outlettype" : [ "signal" ],
					"patching_rect" : [ 156.0, 141.0, 46.0, 22.0 ],
					"text" : "noise~"
				}

			}
 ],
		"lines" : [ 			{
				"patchline" : 				{
					"destination" : [ "obj-16", 0 ],
					"source" : [ "obj-1", 0 ]
				}

			}
, 			{
				"patchline" : 				{
					"destination" : [ "obj-17", 0 ],
					"hidden" : 1,
					"source" : [ "obj-10", 0 ]
				}

			}
, 			{
				"patchline" : 				{
					"destination" : [ "obj-18", 0 ],
					"source" : [ "obj-16", 0 ]
				}

			}
, 			{
				"patchline" : 				{
					"destination" : [ "obj-18", 1 ],
					"source" : [ "obj-17", 0 ]
				}

			}
, 			{
				"patchline" : 				{
					"destination" : [ "obj-19", 0 ],
					"source" : [ "obj-18", 0 ]
				}

			}
, 			{
				"patchline" : 				{
					"destination" : [ "obj-38", 0 ],
					"source" : [ "obj-39", 0 ]
				}

			}
, 			{
				"patchline" : 				{
					"destination" : [ "obj-38", 0 ],
					"source" : [ "obj-41", 0 ]
				}

			}
 ],
		"dependency_cache" : [  ],
		"autosave" : 0
	}

}
