{
	"patcher" : 	{
		"fileversion" : 1,
		"appversion" : 		{
			"major" : 8,
			"minor" : 3,
			"revision" : 1,
			"architecture" : "x64",
			"modernui" : 1
		}
,
		"classnamespace" : "box",
		"rect" : [ 99.0, 119.0, 1031.0, 549.0 ],
		"bglocked" : 0,
		"openinpresentation" : 0,
		"default_fontsize" : 12.0,
		"default_fontface" : 0,
		"default_fontname" : "Arial",
		"gridonopen" : 1,
		"gridsize" : [ 15.0, 15.0 ],
		"gridsnaponopen" : 1,
		"objectsnaponopen" : 1,
		"statusbarvisible" : 2,
		"toolbarvisible" : 1,
		"lefttoolbarpinned" : 0,
		"toptoolbarpinned" : 0,
		"righttoolbarpinned" : 0,
		"bottomtoolbarpinned" : 0,
		"toolbars_unpinned_last_save" : 0,
		"tallnewobj" : 0,
		"boxanimatetime" : 200,
		"enablehscroll" : 1,
		"enablevscroll" : 1,
		"devicewidth" : 0.0,
		"description" : "",
		"digest" : "",
		"tags" : "",
		"style" : "",
		"subpatcher_template" : "",
		"assistshowspatchername" : 0,
		"boxes" : [ 			{
				"box" : 				{
					"id" : "obj-17",
					"linecount" : 6,
					"maxclass" : "comment",
					"numinlets" : 1,
					"numoutlets" : 0,
					"patching_rect" : [ 93.5, 250.0, 114.0, 87.0 ],
					"text" : "ranges for randomness and midi note go into voice made out of some modulation and delay"
				}

			}
, 			{
				"box" : 				{
					"id" : "obj-15",
					"linecount" : 2,
					"maxclass" : "comment",
					"numinlets" : 1,
					"numoutlets" : 0,
					"patching_rect" : [ 598.0, 450.0, 148.0, 33.0 ],
					"text" : "volume factors also come in"
				}

			}
, 			{
				"box" : 				{
					"id" : "obj-11",
					"linecount" : 3,
					"maxclass" : "comment",
					"numinlets" : 1,
					"numoutlets" : 0,
					"patching_rect" : [ 128.5, 61.0, 145.0, 47.0 ],
					"text" : "step, scale, base midi and ranges for randomness come in"
				}

			}
, 			{
				"box" : 				{
					"id" : "obj-9",
					"linecount" : 3,
					"maxclass" : "comment",
					"numinlets" : 1,
					"numoutlets" : 0,
					"patching_rect" : [ 808.5, 217.0, 114.0, 47.0 ],
					"text" : "voice goes into delay with multiple feedback lines"
				}

			}
, 			{
				"box" : 				{
					"id" : "obj-8",
					"maxclass" : "newobj",
					"numinlets" : 0,
					"numoutlets" : 1,
					"outlettype" : [ "" ],
					"patching_rect" : [ 678.0, 114.0, 79.0, 22.0 ],
					"text" : "receive voice"
				}

			}
, 			{
				"box" : 				{
					"id" : "obj-6",
					"maxclass" : "newobj",
					"numinlets" : 1,
					"numoutlets" : 0,
					"patching_rect" : [ 227.0, 349.0, 66.0, 22.0 ],
					"text" : "send voice"
				}

			}
, 			{
				"box" : 				{
					"comment" : "fmDelayRandList",
					"id" : "obj-7",
					"index" : 1,
					"maxclass" : "inlet",
					"numinlets" : 0,
					"numoutlets" : 1,
					"outlettype" : [ "" ],
					"patching_rect" : [ 198.0, 133.0, 30.0, 30.0 ]
				}

			}
, 			{
				"box" : 				{
					"id" : "obj-5",
					"maxclass" : "newobj",
					"numinlets" : 2,
					"numoutlets" : 1,
					"outlettype" : [ "float" ],
					"patching_rect" : [ 323.0, 199.0, 29.5, 22.0 ],
					"text" : "+ 1."
				}

			}
, 			{
				"box" : 				{
					"id" : "obj-4",
					"maxclass" : "newobj",
					"numinlets" : 2,
					"numoutlets" : 1,
					"outlettype" : [ "signal" ],
					"patching_rect" : [ 227.0, 250.0, 103.0, 22.0 ],
					"text" : "ana_fmdelaypitch"
				}

			}
, 			{
				"box" : 				{
					"id" : "obj-26",
					"maxclass" : "newobj",
					"numinlets" : 1,
					"numoutlets" : 3,
					"outlettype" : [ "float", "float", "float" ],
					"patching_rect" : [ 554.0, 405.0, 87.0, 22.0 ],
					"text" : "unpack 0. 0. 0."
				}

			}
, 			{
				"box" : 				{
					"comment" : "vol1, vol2, vol3",
					"id" : "obj-25",
					"index" : 5,
					"maxclass" : "inlet",
					"numinlets" : 0,
					"numoutlets" : 1,
					"outlettype" : [ "" ],
					"patching_rect" : [ 554.0, 366.0, 30.0, 30.0 ]
				}

			}
, 			{
				"box" : 				{
					"comment" : "",
					"id" : "obj-24",
					"index" : 1,
					"maxclass" : "outlet",
					"numinlets" : 1,
					"numoutlets" : 0,
					"patching_rect" : [ 403.0, 393.0, 30.0, 30.0 ]
				}

			}
, 			{
				"box" : 				{
					"id" : "obj-23",
					"maxclass" : "newobj",
					"numinlets" : 1,
					"numoutlets" : 3,
					"outlettype" : [ "float", "float", "float" ],
					"patching_rect" : [ 543.0, 106.0, 87.0, 22.0 ],
					"text" : "unpack 0. 0. 0."
				}

			}
, 			{
				"box" : 				{
					"comment" : "tapouts",
					"id" : "obj-22",
					"index" : 6,
					"maxclass" : "inlet",
					"numinlets" : 0,
					"numoutlets" : 1,
					"outlettype" : [ "" ],
					"patching_rect" : [ 559.0, 39.0, 30.0, 30.0 ]
				}

			}
, 			{
				"box" : 				{
					"comment" : "baseMidi",
					"id" : "obj-3",
					"index" : 4,
					"maxclass" : "inlet",
					"numinlets" : 0,
					"numoutlets" : 1,
					"outlettype" : [ "" ],
					"patching_rect" : [ 429.0, 133.0, 30.0, 30.0 ]
				}

			}
, 			{
				"box" : 				{
					"comment" : "scale",
					"id" : "obj-2",
					"index" : 3,
					"maxclass" : "inlet",
					"numinlets" : 0,
					"numoutlets" : 1,
					"outlettype" : [ "" ],
					"patching_rect" : [ 387.0, 76.0, 30.0, 30.0 ]
				}

			}
, 			{
				"box" : 				{
					"comment" : "step",
					"id" : "obj-1",
					"index" : 2,
					"maxclass" : "inlet",
					"numinlets" : 0,
					"numoutlets" : 1,
					"outlettype" : [ "" ],
					"patching_rect" : [ 323.0, 76.0, 30.0, 30.0 ]
				}

			}
, 			{
				"box" : 				{
					"id" : "obj-66",
					"maxclass" : "newobj",
					"numinlets" : 2,
					"numoutlets" : 1,
					"outlettype" : [ "signal" ],
					"patching_rect" : [ 601.0, 314.0, 29.5, 22.0 ],
					"text" : "*~"
				}

			}
, 			{
				"box" : 				{
					"id" : "obj-67",
					"maxclass" : "newobj",
					"numinlets" : 1,
					"numoutlets" : 1,
					"outlettype" : [ "signal" ],
					"patching_rect" : [ 703.0, 236.0, 49.0, 22.0 ],
					"text" : "tapout~"
				}

			}
, 			{
				"box" : 				{
					"id" : "obj-68",
					"maxclass" : "newobj",
					"numinlets" : 1,
					"numoutlets" : 1,
					"outlettype" : [ "tapconnect" ],
					"patching_rect" : [ 703.0, 185.0, 78.0, 22.0 ],
					"text" : "tapin~ 20000"
				}

			}
, 			{
				"box" : 				{
					"id" : "obj-69",
					"maxclass" : "newobj",
					"numinlets" : 2,
					"numoutlets" : 1,
					"outlettype" : [ "signal" ],
					"patching_rect" : [ 496.0, 304.0, 29.5, 22.0 ],
					"text" : "*~"
				}

			}
, 			{
				"box" : 				{
					"id" : "obj-70",
					"maxclass" : "newobj",
					"numinlets" : 1,
					"numoutlets" : 1,
					"outlettype" : [ "signal" ],
					"patching_rect" : [ 573.0, 236.0, 49.0, 22.0 ],
					"text" : "tapout~"
				}

			}
, 			{
				"box" : 				{
					"id" : "obj-71",
					"maxclass" : "newobj",
					"numinlets" : 1,
					"numoutlets" : 1,
					"outlettype" : [ "tapconnect" ],
					"patching_rect" : [ 573.0, 185.0, 78.0, 22.0 ],
					"text" : "tapin~ 20000"
				}

			}
, 			{
				"box" : 				{
					"id" : "obj-72",
					"maxclass" : "newobj",
					"numinlets" : 2,
					"numoutlets" : 1,
					"outlettype" : [ "signal" ],
					"patching_rect" : [ 378.0, 314.0, 29.5, 22.0 ],
					"text" : "*~"
				}

			}
, 			{
				"box" : 				{
					"id" : "obj-73",
					"maxclass" : "newobj",
					"numinlets" : 1,
					"numoutlets" : 1,
					"outlettype" : [ "signal" ],
					"patching_rect" : [ 462.0, 240.0, 49.0, 22.0 ],
					"text" : "tapout~"
				}

			}
, 			{
				"box" : 				{
					"id" : "obj-74",
					"maxclass" : "newobj",
					"numinlets" : 1,
					"numoutlets" : 1,
					"outlettype" : [ "tapconnect" ],
					"patching_rect" : [ 462.0, 189.0, 78.0, 22.0 ],
					"text" : "tapin~ 20000"
				}

			}
, 			{
				"box" : 				{
					"id" : "obj-76",
					"maxclass" : "newobj",
					"numinlets" : 2,
					"numoutlets" : 1,
					"outlettype" : [ "float" ],
					"patching_rect" : [ 323.0, 141.0, 83.0, 22.0 ],
					"text" : "steps-to-scale"
				}

			}
, 			{
				"box" : 				{
					"background" : 1,
					"bgcolor" : [ 1.0, 0.788235, 0.470588, 1.0 ],
					"fontface" : 1,
					"hint" : "",
					"id" : "obj-10",
					"ignoreclick" : 1,
					"legacytextcolor" : 1,
					"maxclass" : "textbutton",
					"numinlets" : 1,
					"numoutlets" : 3,
					"outlettype" : [ "", "", "int" ],
					"parameter_enable" : 0,
					"patching_rect" : [ 786.5, 217.0, 20.0, 20.0 ],
					"rounded" : 60.0,
					"text" : "4",
					"textcolor" : [ 0.34902, 0.34902, 0.34902, 1.0 ]
				}

			}
, 			{
				"box" : 				{
					"background" : 1,
					"bgcolor" : [ 1.0, 0.788235, 0.470588, 1.0 ],
					"fontface" : 1,
					"hint" : "",
					"id" : "obj-18",
					"ignoreclick" : 1,
					"legacytextcolor" : 1,
					"maxclass" : "textbutton",
					"numinlets" : 1,
					"numoutlets" : 3,
					"outlettype" : [ "", "", "int" ],
					"parameter_enable" : 0,
					"patching_rect" : [ 71.5, 250.0, 20.0, 20.0 ],
					"rounded" : 60.0,
					"text" : "3",
					"textcolor" : [ 0.34902, 0.34902, 0.34902, 1.0 ]
				}

			}
, 			{
				"box" : 				{
					"background" : 1,
					"bgcolor" : [ 1.0, 0.788235, 0.470588, 1.0 ],
					"fontface" : 1,
					"hint" : "",
					"id" : "obj-16",
					"ignoreclick" : 1,
					"legacytextcolor" : 1,
					"maxclass" : "textbutton",
					"numinlets" : 1,
					"numoutlets" : 3,
					"outlettype" : [ "", "", "int" ],
					"parameter_enable" : 0,
					"patching_rect" : [ 573.0, 450.0, 20.0, 20.0 ],
					"rounded" : 60.0,
					"text" : "2",
					"textcolor" : [ 0.34902, 0.34902, 0.34902, 1.0 ]
				}

			}
, 			{
				"box" : 				{
					"background" : 1,
					"bgcolor" : [ 1.0, 0.788235, 0.470588, 1.0 ],
					"fontface" : 1,
					"hint" : "",
					"id" : "obj-12",
					"ignoreclick" : 1,
					"legacytextcolor" : 1,
					"maxclass" : "textbutton",
					"numinlets" : 1,
					"numoutlets" : 3,
					"outlettype" : [ "", "", "int" ],
					"parameter_enable" : 0,
					"patching_rect" : [ 103.5, 61.0, 20.0, 20.0 ],
					"rounded" : 60.0,
					"text" : "1",
					"textcolor" : [ 0.34902, 0.34902, 0.34902, 1.0 ]
				}

			}
 ],
		"lines" : [ 			{
				"patchline" : 				{
					"destination" : [ "obj-76", 0 ],
					"source" : [ "obj-1", 0 ]
				}

			}
, 			{
				"patchline" : 				{
					"destination" : [ "obj-76", 1 ],
					"source" : [ "obj-2", 0 ]
				}

			}
, 			{
				"patchline" : 				{
					"destination" : [ "obj-23", 0 ],
					"source" : [ "obj-22", 0 ]
				}

			}
, 			{
				"patchline" : 				{
					"destination" : [ "obj-67", 0 ],
					"source" : [ "obj-23", 2 ]
				}

			}
, 			{
				"patchline" : 				{
					"destination" : [ "obj-70", 0 ],
					"source" : [ "obj-23", 1 ]
				}

			}
, 			{
				"patchline" : 				{
					"destination" : [ "obj-73", 0 ],
					"source" : [ "obj-23", 0 ]
				}

			}
, 			{
				"patchline" : 				{
					"destination" : [ "obj-26", 0 ],
					"source" : [ "obj-25", 0 ]
				}

			}
, 			{
				"patchline" : 				{
					"destination" : [ "obj-66", 1 ],
					"source" : [ "obj-26", 2 ]
				}

			}
, 			{
				"patchline" : 				{
					"destination" : [ "obj-69", 1 ],
					"source" : [ "obj-26", 1 ]
				}

			}
, 			{
				"patchline" : 				{
					"destination" : [ "obj-72", 1 ],
					"source" : [ "obj-26", 0 ]
				}

			}
, 			{
				"patchline" : 				{
					"destination" : [ "obj-5", 1 ],
					"source" : [ "obj-3", 0 ]
				}

			}
, 			{
				"patchline" : 				{
					"destination" : [ "obj-24", 0 ],
					"order" : 0,
					"source" : [ "obj-4", 0 ]
				}

			}
, 			{
				"patchline" : 				{
					"destination" : [ "obj-6", 0 ],
					"order" : 1,
					"source" : [ "obj-4", 0 ]
				}

			}
, 			{
				"patchline" : 				{
					"destination" : [ "obj-4", 1 ],
					"source" : [ "obj-5", 0 ]
				}

			}
, 			{
				"patchline" : 				{
					"destination" : [ "obj-24", 0 ],
					"order" : 1,
					"source" : [ "obj-66", 0 ]
				}

			}
, 			{
				"patchline" : 				{
					"destination" : [ "obj-68", 0 ],
					"order" : 0,
					"source" : [ "obj-66", 0 ]
				}

			}
, 			{
				"patchline" : 				{
					"destination" : [ "obj-66", 0 ],
					"source" : [ "obj-67", 0 ]
				}

			}
, 			{
				"patchline" : 				{
					"destination" : [ "obj-67", 0 ],
					"source" : [ "obj-68", 0 ]
				}

			}
, 			{
				"patchline" : 				{
					"destination" : [ "obj-24", 0 ],
					"order" : 1,
					"source" : [ "obj-69", 0 ]
				}

			}
, 			{
				"patchline" : 				{
					"destination" : [ "obj-71", 0 ],
					"order" : 0,
					"source" : [ "obj-69", 0 ]
				}

			}
, 			{
				"patchline" : 				{
					"destination" : [ "obj-4", 0 ],
					"source" : [ "obj-7", 0 ]
				}

			}
, 			{
				"patchline" : 				{
					"destination" : [ "obj-69", 0 ],
					"source" : [ "obj-70", 0 ]
				}

			}
, 			{
				"patchline" : 				{
					"destination" : [ "obj-70", 0 ],
					"source" : [ "obj-71", 0 ]
				}

			}
, 			{
				"patchline" : 				{
					"destination" : [ "obj-24", 0 ],
					"order" : 1,
					"source" : [ "obj-72", 0 ]
				}

			}
, 			{
				"patchline" : 				{
					"destination" : [ "obj-74", 0 ],
					"order" : 0,
					"source" : [ "obj-72", 0 ]
				}

			}
, 			{
				"patchline" : 				{
					"destination" : [ "obj-72", 0 ],
					"source" : [ "obj-73", 0 ]
				}

			}
, 			{
				"patchline" : 				{
					"destination" : [ "obj-73", 0 ],
					"source" : [ "obj-74", 0 ]
				}

			}
, 			{
				"patchline" : 				{
					"destination" : [ "obj-5", 0 ],
					"source" : [ "obj-76", 0 ]
				}

			}
, 			{
				"patchline" : 				{
					"destination" : [ "obj-68", 0 ],
					"order" : 0,
					"source" : [ "obj-8", 0 ]
				}

			}
, 			{
				"patchline" : 				{
					"destination" : [ "obj-71", 0 ],
					"order" : 1,
					"source" : [ "obj-8", 0 ]
				}

			}
, 			{
				"patchline" : 				{
					"destination" : [ "obj-74", 0 ],
					"order" : 2,
					"source" : [ "obj-8", 0 ]
				}

			}
 ],
		"styles" : [ 			{
				"name" : "AudioStatus_Menu",
				"default" : 				{
					"bgfillcolor" : 					{
						"angle" : 270.0,
						"autogradient" : 0,
						"color" : [ 0.294118, 0.313726, 0.337255, 1 ],
						"color1" : [ 0.454902, 0.462745, 0.482353, 0.0 ],
						"color2" : [ 0.290196, 0.309804, 0.301961, 1.0 ],
						"proportion" : 0.39,
						"type" : "color"
					}

				}
,
				"parentstyle" : "",
				"multi" : 0
			}
, 			{
				"name" : "bubble text",
				"default" : 				{
					"fontname" : [ "Arial" ],
					"fontsize" : [ 12.0 ]
				}
,
				"parentstyle" : "",
				"multi" : 0
			}
, 			{
				"name" : "caption text",
				"default" : 				{
					"fontface" : [ 2 ],
					"fontsize" : [ 11.0 ]
				}
,
				"parentstyle" : "",
				"multi" : 0
			}
, 			{
				"name" : "ksliderWhite",
				"default" : 				{
					"color" : [ 1.0, 1.0, 1.0, 1.0 ]
				}
,
				"parentstyle" : "",
				"multi" : 0
			}
, 			{
				"name" : "newobjBlue-1",
				"default" : 				{
					"accentcolor" : [ 0.317647, 0.654902, 0.976471, 1.0 ]
				}
,
				"parentstyle" : "",
				"multi" : 0
			}
, 			{
				"name" : "newobjGreen-1",
				"default" : 				{
					"accentcolor" : [ 0.0, 0.533333, 0.168627, 1.0 ]
				}
,
				"parentstyle" : "",
				"multi" : 0
			}
, 			{
				"name" : "numberGold-1",
				"default" : 				{
					"accentcolor" : [ 0.764706, 0.592157, 0.101961, 1.0 ]
				}
,
				"parentstyle" : "",
				"multi" : 0
			}
, 			{
				"name" : "section info emph",
				"default" : 				{
					"fontface" : [ 1 ],
					"fontname" : [ "Helvetica Neue" ],
					"fontsize" : [ 12.0 ],
					"textcolor" : [ 0.225893, 0.506614, 0.765943, 1.0 ]
				}
,
				"parentstyle" : "",
				"multi" : 0
			}
 ]
	}

}
