{
	"patcher" : 	{
		"fileversion" : 1,
		"appversion" : 		{
			"major" : 8,
			"minor" : 3,
			"revision" : 1,
			"architecture" : "x64",
			"modernui" : 1
		}
,
		"classnamespace" : "box",
		"rect" : [ 48.0, 79.0, 1218.0, 701.0 ],
		"bglocked" : 0,
		"openinpresentation" : 0,
		"default_fontsize" : 12.0,
		"default_fontface" : 0,
		"default_fontname" : "Arial",
		"gridonopen" : 1,
		"gridsize" : [ 15.0, 15.0 ],
		"gridsnaponopen" : 1,
		"objectsnaponopen" : 1,
		"statusbarvisible" : 2,
		"toolbarvisible" : 1,
		"lefttoolbarpinned" : 0,
		"toptoolbarpinned" : 0,
		"righttoolbarpinned" : 0,
		"bottomtoolbarpinned" : 0,
		"toolbars_unpinned_last_save" : 0,
		"tallnewobj" : 0,
		"boxanimatetime" : 200,
		"enablehscroll" : 1,
		"enablevscroll" : 1,
		"devicewidth" : 0.0,
		"description" : "",
		"digest" : "",
		"tags" : "",
		"style" : "",
		"subpatcher_template" : "",
		"assistshowspatchername" : 0,
		"boxes" : [ 			{
				"box" : 				{
					"fontsize" : 10.0,
					"id" : "obj-30",
					"linecount" : 2,
					"maxclass" : "comment",
					"numinlets" : 1,
					"numoutlets" : 0,
					"patching_rect" : [ 470.166666701436043, 181.447510000000079, 33.666666597127914, 29.0 ],
					"text" : "click outlet"
				}

			}
, 			{
				"box" : 				{
					"fontface" : 0,
					"fontsize" : 11.0,
					"id" : "obj-4",
					"maxclass" : "comment",
					"numinlets" : 1,
					"numoutlets" : 0,
					"patching_rect" : [ 399.0, 374.5, 54.0, 19.0 ],
					"text" : "to integer"
				}

			}
, 			{
				"box" : 				{
					"id" : "obj-3",
					"maxclass" : "newobj",
					"numinlets" : 1,
					"numoutlets" : 2,
					"outlettype" : [ "signal", "signal" ],
					"patcher" : 					{
						"fileversion" : 1,
						"appversion" : 						{
							"major" : 8,
							"minor" : 3,
							"revision" : 1,
							"architecture" : "x64",
							"modernui" : 1
						}
,
						"classnamespace" : "box",
						"rect" : [ 59.0, 104.0, 307.0, 392.0 ],
						"bglocked" : 0,
						"openinpresentation" : 0,
						"default_fontsize" : 12.0,
						"default_fontface" : 0,
						"default_fontname" : "Arial",
						"gridonopen" : 1,
						"gridsize" : [ 15.0, 15.0 ],
						"gridsnaponopen" : 1,
						"objectsnaponopen" : 1,
						"statusbarvisible" : 2,
						"toolbarvisible" : 1,
						"lefttoolbarpinned" : 0,
						"toptoolbarpinned" : 0,
						"righttoolbarpinned" : 0,
						"bottomtoolbarpinned" : 0,
						"toolbars_unpinned_last_save" : 0,
						"tallnewobj" : 0,
						"boxanimatetime" : 200,
						"enablehscroll" : 1,
						"enablevscroll" : 1,
						"devicewidth" : 0.0,
						"description" : "",
						"digest" : "",
						"tags" : "",
						"style" : "",
						"subpatcher_template" : "",
						"assistshowspatchername" : 0,
						"boxes" : [ 							{
								"box" : 								{
									"id" : "obj-6",
									"maxclass" : "comment",
									"numinlets" : 1,
									"numoutlets" : 0,
									"patching_rect" : [ 50.0, 354.0, 41.0, 20.0 ],
									"text" : "click"
								}

							}
, 							{
								"box" : 								{
									"id" : "obj-5",
									"maxclass" : "comment",
									"numinlets" : 1,
									"numoutlets" : 0,
									"patching_rect" : [ 203.0, 354.0, 41.0, 20.0 ],
									"text" : "phase"
								}

							}
, 							{
								"box" : 								{
									"id" : "obj-42",
									"maxclass" : "comment",
									"numinlets" : 1,
									"numoutlets" : 0,
									"patching_rect" : [ 116.5, 120.0, 56.0, 20.0 ],
									"text" : "ms to Hz"
								}

							}
, 							{
								"box" : 								{
									"id" : "obj-41",
									"maxclass" : "newobj",
									"numinlets" : 2,
									"numoutlets" : 1,
									"outlettype" : [ "signal" ],
									"patching_rect" : [ 50.0, 120.0, 52.0, 22.0 ],
									"text" : "!/~ 1000"
								}

							}
, 							{
								"box" : 								{
									"comment" : "phase",
									"id" : "obj-4",
									"index" : 2,
									"maxclass" : "outlet",
									"numinlets" : 1,
									"numoutlets" : 0,
									"patching_rect" : [ 203.0, 318.0, 30.0, 30.0 ]
								}

							}
, 							{
								"box" : 								{
									"id" : "obj-3",
									"maxclass" : "newobj",
									"numinlets" : 2,
									"numoutlets" : 1,
									"outlettype" : [ "signal" ],
									"patching_rect" : [ 50.0, 236.0, 36.0, 22.0 ],
									"text" : "<~ 0."
								}

							}
, 							{
								"box" : 								{
									"id" : "obj-2",
									"maxclass" : "newobj",
									"numinlets" : 1,
									"numoutlets" : 1,
									"outlettype" : [ "signal" ],
									"patching_rect" : [ 50.0, 203.0, 42.0, 22.0 ],
									"text" : "delta~"
								}

							}
, 							{
								"box" : 								{
									"id" : "obj-1",
									"maxclass" : "newobj",
									"numinlets" : 2,
									"numoutlets" : 1,
									"outlettype" : [ "signal" ],
									"patching_rect" : [ 50.0, 161.0, 52.0, 22.0 ],
									"text" : "phasor~"
								}

							}
, 							{
								"box" : 								{
									"comment" : "",
									"id" : "obj-16",
									"index" : 1,
									"maxclass" : "inlet",
									"numinlets" : 0,
									"numoutlets" : 1,
									"outlettype" : [ "signal" ],
									"patching_rect" : [ 50.0, 40.0, 30.0, 30.0 ]
								}

							}
, 							{
								"box" : 								{
									"comment" : "click",
									"id" : "obj-22",
									"index" : 1,
									"maxclass" : "outlet",
									"numinlets" : 1,
									"numoutlets" : 0,
									"patching_rect" : [ 50.0, 318.0, 30.0, 30.0 ]
								}

							}
 ],
						"lines" : [ 							{
								"patchline" : 								{
									"destination" : [ "obj-2", 0 ],
									"order" : 1,
									"source" : [ "obj-1", 0 ]
								}

							}
, 							{
								"patchline" : 								{
									"destination" : [ "obj-4", 0 ],
									"order" : 0,
									"source" : [ "obj-1", 0 ]
								}

							}
, 							{
								"patchline" : 								{
									"destination" : [ "obj-41", 0 ],
									"source" : [ "obj-16", 0 ]
								}

							}
, 							{
								"patchline" : 								{
									"destination" : [ "obj-3", 0 ],
									"source" : [ "obj-2", 0 ]
								}

							}
, 							{
								"patchline" : 								{
									"destination" : [ "obj-22", 0 ],
									"source" : [ "obj-3", 0 ]
								}

							}
, 							{
								"patchline" : 								{
									"destination" : [ "obj-1", 0 ],
									"source" : [ "obj-41", 0 ]
								}

							}
 ]
					}
,
					"patching_rect" : [ 499.0, 147.0, 65.0, 22.0 ],
					"saved_object_attributes" : 					{
						"description" : "",
						"digest" : "",
						"globalpatchername" : "",
						"tags" : ""
					}
,
					"text" : "p phasetro"
				}

			}
, 			{
				"box" : 				{
					"fontsize" : 11.0,
					"id" : "obj-38",
					"maxclass" : "comment",
					"numinlets" : 1,
					"numoutlets" : 0,
					"patching_rect" : [ 624.0, 620.5, 211.0, 19.0 ],
					"text" : "And convert to frequency for an oscillator."
				}

			}
, 			{
				"box" : 				{
					"fontsize" : 10.0,
					"id" : "obj-20",
					"linecount" : 2,
					"maxclass" : "comment",
					"numinlets" : 1,
					"numoutlets" : 0,
					"patching_rect" : [ 124.313477000000148, 301.634033000000045, 81.0, 29.0 ],
					"text" : "this is a step-randomizer"
				}

			}
, 			{
				"box" : 				{
					"id" : "obj-1",
					"maxclass" : "comment",
					"numinlets" : 1,
					"numoutlets" : 0,
					"patching_rect" : [ 30.916259999999966, 33.0, 753.0, 20.0 ],
					"text" : "Instead of counting clicks (step-seq), we connect the clicks to a random function (or probability). This automatically selects random numbers."
				}

			}
, 			{
				"box" : 				{
					"fontsize" : 11.0,
					"id" : "obj-41",
					"linecount" : 2,
					"maxclass" : "comment",
					"numinlets" : 1,
					"numoutlets" : 0,
					"patching_rect" : [ 624.0, 581.0, 320.0, 31.0 ],
					"text" : "Our looked up data is a number of halfsteps above a base MIDI.\nHere, add to that base MIDI."
				}

			}
, 			{
				"box" : 				{
					"id" : "obj-78",
					"maxclass" : "newobj",
					"numinlets" : 2,
					"numoutlets" : 2,
					"outlettype" : [ "", "" ],
					"patching_rect" : [ 404.699999999999989, 283.268065999999919, 37.0, 22.0 ],
					"text" : "zl len"
				}

			}
, 			{
				"box" : 				{
					"id" : "obj-77",
					"maxclass" : "comment",
					"numinlets" : 1,
					"numoutlets" : 0,
					"patching_rect" : [ 354.916259999999966, 55.0, 338.0, 20.0 ],
					"text" : "First learn, or review, how to do this, paying attention to sah~ :"
				}

			}
, 			{
				"box" : 				{
					"id" : "obj-76",
					"maxclass" : "comment",
					"numinlets" : 1,
					"numoutlets" : 0,
					"patching_rect" : [ 30.916259999999966, 55.0, 324.0, 20.0 ],
					"text" : "At audio rate, we draw random numbers via scaled noise~ ."
				}

			}
, 			{
				"box" : 				{
					"fontsize" : 10.0,
					"hidden" : 1,
					"id" : "obj-73",
					"maxclass" : "message",
					"numinlets" : 2,
					"numoutlets" : 1,
					"outlettype" : [ "" ],
					"patching_rect" : [ 812.5, 57.0, 116.0, 20.0 ],
					"text" : "load random_via-noise~"
				}

			}
, 			{
				"box" : 				{
					"fontsize" : 10.0,
					"hidden" : 1,
					"id" : "obj-74",
					"maxclass" : "newobj",
					"numinlets" : 1,
					"numoutlets" : 1,
					"outlettype" : [ "" ],
					"patching_rect" : [ 947.0, 57.0, 44.0, 20.0 ],
					"text" : "pcontrol"
				}

			}
, 			{
				"box" : 				{
					"bgcolor" : [ 0.0, 0.0, 0.0, 0.0 ],
					"bgoncolor" : [ 0.0, 0.0, 0.0, 0.0 ],
					"fontface" : 3,
					"fontlink" : 1,
					"fontsize" : 12.0,
					"id" : "obj-75",
					"legacytextcolor" : 1,
					"maxclass" : "textbutton",
					"numinlets" : 1,
					"numoutlets" : 3,
					"outlettype" : [ "", "", "int" ],
					"parameter_enable" : 0,
					"patching_rect" : [ 690.5, 57.0, 113.703125, 13.40625 ],
					"spacing_x" : 0.0,
					"spacing_y" : 0.0,
					"text" : "random via noise~",
					"textcolor" : [ 0.156862745098039, 0.407843137254902, 0.772549019607843, 1.0 ],
					"textoncolor" : [ 0.27, 0.35, 0.47, 1.0 ],
					"textovercolor" : [ 0.393308520317078, 0.720691680908203, 0.858563601970673, 1.0 ],
					"underline" : 1,
					"usebgoncolor" : 1,
					"usetextovercolor" : 1
				}

			}
, 			{
				"box" : 				{
					"id" : "obj-72",
					"maxclass" : "newobj",
					"numinlets" : 1,
					"numoutlets" : 1,
					"outlettype" : [ "signal" ],
					"patching_rect" : [ 355.0, 373.0, 42.0, 22.0 ],
					"text" : "trunc~"
				}

			}
, 			{
				"box" : 				{
					"id" : "obj-68",
					"maxclass" : "newobj",
					"numinlets" : 2,
					"numoutlets" : 1,
					"outlettype" : [ "signal" ],
					"patching_rect" : [ 355.0, 403.104979999999955, 163.0, 22.0 ],
					"text" : "sah~"
				}

			}
, 			{
				"box" : 				{
					"id" : "obj-67",
					"maxclass" : "newobj",
					"numinlets" : 6,
					"numoutlets" : 1,
					"outlettype" : [ "signal" ],
					"patching_rect" : [ 355.0, 342.384032999999988, 81.125, 22.0 ],
					"text" : "scale~ -1 1 0"
				}

			}
, 			{
				"box" : 				{
					"fontface" : 1,
					"fontsize" : 11.0,
					"id" : "obj-49",
					"maxclass" : "comment",
					"numinlets" : 1,
					"numoutlets" : 0,
					"patching_rect" : [ 815.0, 403.104979999999955, 122.0, 19.0 ],
					"text" : "Each num = an index!"
				}

			}
, 			{
				"box" : 				{
					"fontface" : 0,
					"fontsize" : 11.0,
					"id" : "obj-2",
					"maxclass" : "comment",
					"numinlets" : 1,
					"numoutlets" : 0,
					"patching_rect" : [ 624.0, 403.104979999999955, 189.0, 19.0 ],
					"text" : "Why are we selecting random nums?"
				}

			}
, 			{
				"box" : 				{
					"fontface" : 0,
					"fontsize" : 11.0,
					"id" : "obj-52",
					"maxclass" : "comment",
					"numinlets" : 1,
					"numoutlets" : 0,
					"patching_rect" : [ 624.0, 452.47094699999991, 237.0, 19.0 ],
					"text" : "For other random and probability engines, see:"
				}

			}
, 			{
				"box" : 				{
					"fontsize" : 10.0,
					"hidden" : 1,
					"id" : "obj-53",
					"maxclass" : "newobj",
					"numinlets" : 1,
					"numoutlets" : 0,
					"patching_rect" : [ 950.83984375, 478.326049500000067, 112.0, 20.0 ],
					"text" : "CNMAT-Pedagogy_link"
				}

			}
, 			{
				"box" : 				{
					"bgcolor" : [ 0.0, 0.0, 0.0, 0.0 ],
					"bgoncolor" : [ 0.0, 0.0, 0.0, 0.0 ],
					"fontface" : 3,
					"fontlink" : 1,
					"fontsize" : 12.0,
					"id" : "obj-55",
					"legacytextcolor" : 1,
					"maxclass" : "textbutton",
					"numinlets" : 1,
					"numoutlets" : 3,
					"outlettype" : [ "", "", "int" ],
					"parameter_enable" : 0,
					"patching_rect" : [ 860.0, 455.26782199999991, 200.6796875, 13.40625 ],
					"spacing_x" : 0.0,
					"spacing_y" : 0.0,
					"text" : "/Max/Functions and Code/random",
					"textcolor" : [ 0.156862745098039, 0.407843137254902, 0.772549019607843, 1.0 ],
					"textoncolor" : [ 0.27, 0.35, 0.47, 1.0 ],
					"textovercolor" : [ 0.393308520317078, 0.720691680908203, 0.858563601970673, 1.0 ],
					"underline" : 1,
					"usebgoncolor" : 1,
					"usetextovercolor" : 1
				}

			}
, 			{
				"box" : 				{
					"fontface" : 1,
					"id" : "obj-26",
					"maxclass" : "comment",
					"numinlets" : 1,
					"numoutlets" : 0,
					"patching_rect" : [ 912.655273875000148, 33.0, 53.0, 20.0 ],
					"text" : "indexes"
				}

			}
, 			{
				"box" : 				{
					"id" : "obj-56",
					"maxclass" : "comment",
					"numinlets" : 1,
					"numoutlets" : 0,
					"patching_rect" : [ 781.841796875, 33.0, 351.0, 20.0 ],
					"text" : "These numbers are the                , which in turn get the values."
				}

			}
, 			{
				"box" : 				{
					"fontname" : "Helvetica Neue",
					"fontsize" : 11.0,
					"id" : "obj-22",
					"linecount" : 2,
					"maxclass" : "comment",
					"numinlets" : 1,
					"numoutlets" : 0,
					"patching_rect" : [ 1000.51171875, 257.268065999999919, 142.0, 32.0 ],
					"text" : "list of values that might be selected on each event."
				}

			}
, 			{
				"box" : 				{
					"fontsize" : 10.0,
					"id" : "obj-23",
					"maxclass" : "newobj",
					"numinlets" : 1,
					"numoutlets" : 1,
					"outlettype" : [ "bang" ],
					"patching_rect" : [ 1000.51171875, 130.104979999999898, 50.0, 20.0 ],
					"text" : "loadbang"
				}

			}
, 			{
				"box" : 				{
					"id" : "obj-57",
					"maxclass" : "message",
					"numinlets" : 2,
					"numoutlets" : 1,
					"outlettype" : [ "" ],
					"patching_rect" : [ 1000.51171875, 161.104979999999898, 72.0, 22.0 ],
					"text" : "0 3 5 7 8 10"
				}

			}
, 			{
				"box" : 				{
					"fontsize" : 11.0,
					"id" : "obj-59",
					"maxclass" : "comment",
					"numinlets" : 1,
					"numoutlets" : 0,
					"patching_rect" : [ 624.0, 427.104979999999955, 575.0, 19.0 ],
					"text" : "Again, noise~ selects 44100 rand nums per sec.  But we only want one on the phasetronome click, so we use sah~ ."
				}

			}
, 			{
				"box" : 				{
					"fontface" : 0,
					"fontsize" : 11.0,
					"id" : "obj-62",
					"linecount" : 3,
					"maxclass" : "comment",
					"numinlets" : 1,
					"numoutlets" : 0,
					"patching_rect" : [ 623.0, 151.104979999999898, 132.0, 43.0 ],
					"text" : "The phastronome rate is the rate that we request random values / notes."
				}

			}
, 			{
				"box" : 				{
					"fontface" : 3,
					"fontsize" : 18.0,
					"id" : "obj-65",
					"maxclass" : "comment",
					"numinlets" : 1,
					"numoutlets" : 0,
					"patching_rect" : [ 4.0, 4.0, 211.0, 27.0 ],
					"text" : "step-randomizer - basic"
				}

			}
, 			{
				"box" : 				{
					"fontname" : "Arial",
					"fontsize" : 12.0,
					"id" : "obj-5",
					"maxclass" : "newobj",
					"numinlets" : 1,
					"numoutlets" : 1,
					"outlettype" : [ "signal" ],
					"patching_rect" : [ 355.0, 308.663086000000021, 44.0, 22.0 ],
					"text" : "noise~"
				}

			}
, 			{
				"box" : 				{
					"id" : "obj-54",
					"maxclass" : "live.line",
					"numinlets" : 1,
					"numoutlets" : 0,
					"patching_rect" : [ 207.313477000000148, 484.26806600000009, 12.666666597127914, 8.115966999999955 ]
				}

			}
, 			{
				"box" : 				{
					"id" : "obj-9",
					"maxclass" : "live.line",
					"numinlets" : 1,
					"numoutlets" : 0,
					"patching_rect" : [ 207.313477000000148, 147.0, 12.666666597127914, 8.115966999999955 ]
				}

			}
, 			{
				"box" : 				{
					"id" : "obj-19",
					"maxclass" : "live.line",
					"numinlets" : 1,
					"numoutlets" : 0,
					"patching_rect" : [ 207.313477000000148, 147.0, 5.0, 338.26806600000009 ]
				}

			}
, 			{
				"box" : 				{
					"color" : [ 0.77010440826416, 0.953266501426697, 0.924878060817719, 1.0 ],
					"fontsize" : 10.0,
					"id" : "obj-15",
					"maxclass" : "newobj",
					"numinlets" : 0,
					"numoutlets" : 1,
					"outlettype" : [ "" ],
					"patching_rect" : [ 404.699999999999989, 261.268065999999919, 66.0, 20.0 ],
					"text" : "r possibilities"
				}

			}
, 			{
				"box" : 				{
					"color" : [ 0.77010440826416, 0.953266501426697, 0.924878060817719, 1.0 ],
					"fontsize" : 10.0,
					"id" : "obj-105",
					"maxclass" : "newobj",
					"numinlets" : 1,
					"numoutlets" : 0,
					"patching_rect" : [ 1000.51171875, 206.604979999999898, 67.0, 20.0 ],
					"text" : "s possibilities"
				}

			}
, 			{
				"box" : 				{
					"fontname" : "Arial",
					"fontsize" : 12.0,
					"id" : "obj-107",
					"linecount" : 2,
					"maxclass" : "newobj",
					"numinlets" : 1,
					"numoutlets" : 2,
					"outlettype" : [ "float", "bang" ],
					"patching_rect" : [ 1140.51171875, 191.604979999999898, 51.0, 35.0 ],
					"text" : "buffer~ voice1"
				}

			}
, 			{
				"box" : 				{
					"fontname" : "Arial",
					"fontsize" : 12.0,
					"id" : "obj-11",
					"linecount" : 2,
					"maxclass" : "newobj",
					"numinlets" : 3,
					"numoutlets" : 1,
					"outlettype" : [ "float" ],
					"patching_rect" : [ 1086.51171875, 191.604979999999898, 47.0, 35.0 ],
					"text" : "peek~ voice1"
				}

			}
, 			{
				"box" : 				{
					"fontsize" : 12.0,
					"id" : "obj-109",
					"maxclass" : "newobj",
					"numinlets" : 1,
					"numoutlets" : 2,
					"outlettype" : [ "list", "" ],
					"patching_rect" : [ 1086.51171875, 161.104979999999898, 73.0, 22.0 ],
					"text" : "list-to-buff"
				}

			}
, 			{
				"box" : 				{
					"fontface" : 0,
					"fontname" : "Arial",
					"fontsize" : 12.0,
					"id" : "obj-46",
					"maxclass" : "number~",
					"mode" : 2,
					"numinlets" : 2,
					"numoutlets" : 2,
					"outlettype" : [ "signal", "float" ],
					"patching_rect" : [ 355.0, 654.0, 72.0, 22.0 ],
					"sig" : 79.0
				}

			}
, 			{
				"box" : 				{
					"fontface" : 3,
					"fontsize" : 14.0,
					"id" : "obj-58",
					"maxclass" : "comment",
					"numinlets" : 1,
					"numoutlets" : 0,
					"patching_rect" : [ 44.0, 567.0, 131.0, 22.0 ],
					"text" : "add to a base MIDI"
				}

			}
, 			{
				"box" : 				{
					"id" : "obj-36",
					"maxclass" : "newobj",
					"numinlets" : 1,
					"numoutlets" : 1,
					"outlettype" : [ "signal" ],
					"patching_rect" : [ 355.0, 619.0, 39.0, 22.0 ],
					"text" : "mtof~"
				}

			}
, 			{
				"box" : 				{
					"id" : "obj-40",
					"maxclass" : "newobj",
					"numinlets" : 2,
					"numoutlets" : 1,
					"outlettype" : [ "signal" ],
					"patching_rect" : [ 355.0, 581.0, 43.0, 22.0 ],
					"text" : "+~ 79."
				}

			}
, 			{
				"box" : 				{
					"data" : [ 123, "png", "IBkSG0fBZn....PCIgDQRA..H.A...f.HX....v5tzKs....DLmPIQEBHf.B7g.YHB...HSRDEDU3wY6NGS...BD.D5LZlLM5FiePHAT..........78VU2pyvO..........XN6Gz2pAHTxsiJV.....jTQNQjqBAlf" ],
					"embed" : 1,
					"id" : "obj-42",
					"maxclass" : "fpic",
					"numinlets" : 1,
					"numoutlets" : 1,
					"outlettype" : [ "jit_matrix" ],
					"patching_rect" : [ 11.0, 686.0, 1175.0, 10.0 ],
					"pic" : "separation_line1.png"
				}

			}
, 			{
				"box" : 				{
					"data" : [ 123, "png", "IBkSG0fBZn....PCIgDQRA..H.A...f.HX....v5tzKs....DLmPIQEBHf.B7g.YHB...HSRDEDU3wY6NGS...BD.D5LZlLM5FiePHAT..........78VU2pyvO..........XN6Gz2pAHTxsiJV.....jTQNQjqBAlf" ],
					"embed" : 1,
					"id" : "obj-44",
					"maxclass" : "fpic",
					"numinlets" : 1,
					"numoutlets" : 1,
					"outlettype" : [ "jit_matrix" ],
					"patching_rect" : [ 11.0, 555.0, 1175.0, 10.0 ],
					"pic" : "separation_line1.png"
				}

			}
, 			{
				"box" : 				{
					"fontname" : "Arial",
					"fontsize" : 12.0,
					"id" : "obj-13",
					"linecount" : 2,
					"maxclass" : "newobj",
					"numinlets" : 2,
					"numoutlets" : 1,
					"outlettype" : [ "signal" ],
					"patching_rect" : [ 355.0, 446.384033000000045, 53.0, 35.0 ],
					"text" : "index~ voice1"
				}

			}
, 			{
				"box" : 				{
					"fontface" : 0,
					"fontname" : "Arial",
					"fontsize" : 12.0,
					"id" : "obj-18",
					"maxclass" : "number~",
					"mode" : 2,
					"numinlets" : 2,
					"numoutlets" : 2,
					"outlettype" : [ "signal", "float" ],
					"patching_rect" : [ 285.5, 492.489013000000114, 56.0, 22.0 ],
					"sig" : 3.0
				}

			}
, 			{
				"box" : 				{
					"fontsize" : 10.0,
					"hidden" : 1,
					"id" : "obj-24",
					"maxclass" : "newobj",
					"numinlets" : 1,
					"numoutlets" : 1,
					"outlettype" : [ "" ],
					"patching_rect" : [ 424.0, 116.104979999999898, 71.0, 20.0 ],
					"text" : "loadmess 400"
				}

			}
, 			{
				"box" : 				{
					"fontface" : 0,
					"fontname" : "Arial",
					"fontsize" : 12.0,
					"id" : "obj-8",
					"maxclass" : "number~",
					"mode" : 1,
					"numinlets" : 2,
					"numoutlets" : 2,
					"outlettype" : [ "signal", "float" ],
					"patching_rect" : [ 499.0, 116.104979999999898, 56.0, 22.0 ],
					"sig" : 400.0
				}

			}
, 			{
				"box" : 				{
					"id" : "obj-28",
					"maxclass" : "comment",
					"numinlets" : 1,
					"numoutlets" : 0,
					"patching_rect" : [ 559.0, 117.546996499999921, 27.0, 20.0 ],
					"text" : "ms"
				}

			}
, 			{
				"box" : 				{
					"fontface" : 1,
					"fontsize" : 12.0,
					"id" : "obj-10",
					"maxclass" : "comment",
					"numinlets" : 1,
					"numoutlets" : 0,
					"patching_rect" : [ 239.5, 446.384033000000045, 44.0, 20.0 ],
					"text" : "index!"
				}

			}
, 			{
				"box" : 				{
					"fontface" : 0,
					"fontname" : "Arial",
					"fontsize" : 12.0,
					"id" : "obj-14",
					"maxclass" : "number~",
					"mode" : 2,
					"numinlets" : 2,
					"numoutlets" : 2,
					"outlettype" : [ "signal", "float" ],
					"patching_rect" : [ 285.5, 446.384033000000045, 56.0, 22.0 ],
					"sig" : 9.0
				}

			}
, 			{
				"box" : 				{
					"fontface" : 0,
					"fontname" : "Arial",
					"fontsize" : 12.0,
					"ft1" : 3.0,
					"id" : "obj-71",
					"maxclass" : "number~",
					"mode" : 1,
					"numinlets" : 2,
					"numoutlets" : 2,
					"outlettype" : [ "signal", "float" ],
					"patching_rect" : [ 404.699999999999989, 308.663086000000021, 56.0, 22.0 ],
					"sig" : 6.0
				}

			}
, 			{
				"box" : 				{
					"id" : "obj-32",
					"maxclass" : "scope~",
					"numinlets" : 2,
					"numoutlets" : 0,
					"patching_rect" : [ 521.0, 181.494506499999943, 65.0, 66.104980000000012 ],
					"range" : [ -1.1, 1.1 ]
				}

			}
, 			{
				"box" : 				{
					"fontsize" : 10.0,
					"id" : "obj-63",
					"maxclass" : "comment",
					"numinlets" : 1,
					"numoutlets" : 0,
					"patching_rect" : [ 1133.0, 666.0, 53.0, 18.0 ],
					"text" : "Jon Kulpa"
				}

			}
, 			{
				"box" : 				{
					"id" : "obj-47",
					"maxclass" : "message",
					"numinlets" : 2,
					"numoutlets" : 1,
					"outlettype" : [ "" ],
					"patching_rect" : [ 109.416259999999966, 116.104979999999898, 33.0, 22.0 ],
					"text" : "stop"
				}

			}
, 			{
				"box" : 				{
					"id" : "obj-48",
					"maxclass" : "message",
					"numinlets" : 2,
					"numoutlets" : 1,
					"outlettype" : [ "" ],
					"patching_rect" : [ 30.916259999999966, 116.104979999999898, 74.0, 22.0 ],
					"text" : "startwindow"
				}

			}
, 			{
				"box" : 				{
					"id" : "obj-50",
					"maxclass" : "newobj",
					"numinlets" : 2,
					"numoutlets" : 0,
					"patching_rect" : [ 30.916259999999966, 154.104979999999898, 42.5, 22.0 ],
					"text" : "dac~"
				}

			}
, 			{
				"box" : 				{
					"background" : 1,
					"bgcolor" : [ 1.0, 0.788235, 0.470588, 1.0 ],
					"fontface" : 1,
					"hint" : "",
					"id" : "obj-126",
					"ignoreclick" : 1,
					"legacytextcolor" : 1,
					"maxclass" : "textbutton",
					"numinlets" : 1,
					"numoutlets" : 3,
					"outlettype" : [ "", "", "int" ],
					"parameter_enable" : 0,
					"patching_rect" : [ 600.0, 403.104979999999955, 20.0, 20.0 ],
					"rounded" : 60.0,
					"text" : "3",
					"textcolor" : [ 0.34902, 0.34902, 0.34902, 1.0 ]
				}

			}
, 			{
				"box" : 				{
					"background" : 1,
					"bgcolor" : [ 0.618395, 0.627673, 0.609846, 1.0 ],
					"fontface" : 1,
					"hint" : "",
					"id" : "obj-66",
					"ignoreclick" : 1,
					"legacytextcolor" : 1,
					"maxclass" : "textbutton",
					"numinlets" : 1,
					"numoutlets" : 3,
					"outlettype" : [ "", "", "int" ],
					"parameter_enable" : 0,
					"patching_rect" : [ 600.0, 151.104979999999898, 21.0, 20.0 ],
					"rounded" : 60.0,
					"text" : "2",
					"textcolor" : [ 0.34902, 0.34902, 0.34902, 1.0 ]
				}

			}
, 			{
				"box" : 				{
					"background" : 1,
					"bgcolor" : [ 0.618395, 0.627673, 0.609846, 1.0 ],
					"fontface" : 1,
					"hint" : "",
					"id" : "obj-7",
					"ignoreclick" : 1,
					"legacytextcolor" : 1,
					"maxclass" : "textbutton",
					"numinlets" : 1,
					"numoutlets" : 3,
					"outlettype" : [ "", "", "int" ],
					"parameter_enable" : 0,
					"patching_rect" : [ 1000.51171875, 235.268065999999919, 21.0, 20.0 ],
					"rounded" : 60.0,
					"text" : "1",
					"textcolor" : [ 0.34902, 0.34902, 0.34902, 1.0 ]
				}

			}
 ],
		"lines" : [ 			{
				"patchline" : 				{
					"destination" : [ "obj-107", 0 ],
					"source" : [ "obj-109", 1 ]
				}

			}
, 			{
				"patchline" : 				{
					"destination" : [ "obj-11", 0 ],
					"source" : [ "obj-109", 0 ]
				}

			}
, 			{
				"patchline" : 				{
					"destination" : [ "obj-18", 0 ],
					"order" : 1,
					"source" : [ "obj-13", 0 ]
				}

			}
, 			{
				"patchline" : 				{
					"destination" : [ "obj-40", 0 ],
					"order" : 0,
					"source" : [ "obj-13", 0 ]
				}

			}
, 			{
				"patchline" : 				{
					"destination" : [ "obj-78", 0 ],
					"source" : [ "obj-15", 0 ]
				}

			}
, 			{
				"patchline" : 				{
					"destination" : [ "obj-57", 0 ],
					"source" : [ "obj-23", 0 ]
				}

			}
, 			{
				"patchline" : 				{
					"destination" : [ "obj-8", 0 ],
					"hidden" : 1,
					"source" : [ "obj-24", 0 ]
				}

			}
, 			{
				"patchline" : 				{
					"destination" : [ "obj-32", 0 ],
					"order" : 0,
					"source" : [ "obj-3", 0 ]
				}

			}
, 			{
				"patchline" : 				{
					"destination" : [ "obj-68", 1 ],
					"order" : 1,
					"source" : [ "obj-3", 0 ]
				}

			}
, 			{
				"patchline" : 				{
					"destination" : [ "obj-46", 0 ],
					"source" : [ "obj-36", 0 ]
				}

			}
, 			{
				"patchline" : 				{
					"destination" : [ "obj-36", 0 ],
					"source" : [ "obj-40", 0 ]
				}

			}
, 			{
				"patchline" : 				{
					"destination" : [ "obj-50", 0 ],
					"source" : [ "obj-47", 0 ]
				}

			}
, 			{
				"patchline" : 				{
					"destination" : [ "obj-50", 0 ],
					"source" : [ "obj-48", 0 ]
				}

			}
, 			{
				"patchline" : 				{
					"destination" : [ "obj-67", 0 ],
					"source" : [ "obj-5", 0 ]
				}

			}
, 			{
				"patchline" : 				{
					"destination" : [ "obj-53", 0 ],
					"hidden" : 1,
					"source" : [ "obj-55", 1 ]
				}

			}
, 			{
				"patchline" : 				{
					"destination" : [ "obj-105", 0 ],
					"order" : 1,
					"source" : [ "obj-57", 0 ]
				}

			}
, 			{
				"patchline" : 				{
					"destination" : [ "obj-109", 0 ],
					"order" : 0,
					"source" : [ "obj-57", 0 ]
				}

			}
, 			{
				"patchline" : 				{
					"destination" : [ "obj-72", 0 ],
					"source" : [ "obj-67", 0 ]
				}

			}
, 			{
				"patchline" : 				{
					"destination" : [ "obj-13", 0 ],
					"order" : 0,
					"source" : [ "obj-68", 0 ]
				}

			}
, 			{
				"patchline" : 				{
					"destination" : [ "obj-14", 0 ],
					"order" : 1,
					"source" : [ "obj-68", 0 ]
				}

			}
, 			{
				"patchline" : 				{
					"destination" : [ "obj-67", 4 ],
					"source" : [ "obj-71", 0 ]
				}

			}
, 			{
				"patchline" : 				{
					"destination" : [ "obj-68", 0 ],
					"source" : [ "obj-72", 0 ]
				}

			}
, 			{
				"patchline" : 				{
					"destination" : [ "obj-74", 0 ],
					"hidden" : 1,
					"source" : [ "obj-73", 0 ]
				}

			}
, 			{
				"patchline" : 				{
					"destination" : [ "obj-73", 0 ],
					"hidden" : 1,
					"source" : [ "obj-75", 0 ]
				}

			}
, 			{
				"patchline" : 				{
					"destination" : [ "obj-71", 0 ],
					"source" : [ "obj-78", 0 ]
				}

			}
, 			{
				"patchline" : 				{
					"destination" : [ "obj-3", 0 ],
					"source" : [ "obj-8", 0 ]
				}

			}
 ],
		"dependency_cache" : [ 			{
				"name" : "CNMAT-Pedagogy_link.maxpat",
				"bootpath" : "~/Documents/Max 8/Packages/CNMAT-Pedagogy/patchers/system",
				"patcherrelativepath" : "../../system",
				"type" : "JSON",
				"implicit" : 1
			}
, 			{
				"name" : "list-to-buff.maxpat",
				"bootpath" : "~/Documents/Max 8/Packages/CNMAT-Pedagogy/patchers/dev",
				"patcherrelativepath" : "../../dev",
				"type" : "JSON",
				"implicit" : 1
			}
, 			{
				"name" : "o.expr.codebox.mxo",
				"type" : "iLaX"
			}
, 			{
				"name" : "o.pack.mxo",
				"type" : "iLaX"
			}
, 			{
				"name" : "o.route.mxo",
				"type" : "iLaX"
			}
 ],
		"autosave" : 0
	}

}
