{
	"patcher" : 	{
		"fileversion" : 1,
		"appversion" : 		{
			"major" : 8,
			"minor" : 1,
			"revision" : 1,
			"architecture" : "x64",
			"modernui" : 1
		}
,
		"classnamespace" : "box",
		"rect" : [ 180.0, 79.0, 1214.0, 713.0 ],
		"bglocked" : 0,
		"openinpresentation" : 0,
		"default_fontsize" : 12.0,
		"default_fontface" : 0,
		"default_fontname" : "Arial",
		"gridonopen" : 1,
		"gridsize" : [ 15.0, 15.0 ],
		"gridsnaponopen" : 1,
		"objectsnaponopen" : 1,
		"statusbarvisible" : 2,
		"toolbarvisible" : 1,
		"lefttoolbarpinned" : 0,
		"toptoolbarpinned" : 0,
		"righttoolbarpinned" : 0,
		"bottomtoolbarpinned" : 0,
		"toolbars_unpinned_last_save" : 0,
		"tallnewobj" : 0,
		"boxanimatetime" : 200,
		"enablehscroll" : 1,
		"enablevscroll" : 1,
		"devicewidth" : 0.0,
		"description" : "",
		"digest" : "",
		"tags" : "",
		"style" : "",
		"subpatcher_template" : "",
		"boxes" : [ 			{
				"box" : 				{
					"fontsize" : 10.0,
					"id" : "obj-63",
					"maxclass" : "comment",
					"numinlets" : 1,
					"numoutlets" : 0,
					"patching_rect" : [ 1102.0, 13.0, 77.0, 18.0 ],
					"text" : "Maija Hynninen"
				}

			}
, 			{
				"box" : 				{
					"data" : [ 123, "png", "IBkSG0fBZn....PCIgDQRA..H.A...f.HX....v5tzKs....DLmPIQEBHf.B7g.YHB...HSRDEDU3wY6NGS...BD.D5LZlLM5FiePHAT..........78VU2pyvO..........XN6Gz2pAHTxsiJV.....jTQNQjqBAlf" ],
					"embed" : 1,
					"id" : "obj-9",
					"maxclass" : "fpic",
					"numinlets" : 1,
					"numoutlets" : 1,
					"outlettype" : [ "jit_matrix" ],
					"patching_rect" : [ 8.0, 699.0, 1188.0, 10.0 ],
					"pic" : "separation_line1.png"
				}

			}
, 			{
				"box" : 				{
					"fontface" : 0,
					"id" : "obj-8",
					"maxclass" : "comment",
					"numinlets" : 1,
					"numoutlets" : 0,
					"patching_rect" : [ 61.0, 182.0, 273.0, 20.0 ],
					"text" : "We can use o.select to isolate specific addresses."
				}

			}
, 			{
				"box" : 				{
					"id" : "obj-1",
					"maxclass" : "newobj",
					"numinlets" : 1,
					"numoutlets" : 1,
					"outlettype" : [ "" ],
					"patching_rect" : [ 8.0, 277.0, 54.0, 22.0 ],
					"text" : "o.accum"
				}

			}
, 			{
				"box" : 				{
					"fontface" : 0,
					"id" : "obj-24",
					"maxclass" : "comment",
					"numinlets" : 1,
					"numoutlets" : 0,
					"patching_rect" : [ 61.0, 155.0, 199.0, 20.0 ],
					"text" : "Can you figure out which is which?"
				}

			}
, 			{
				"box" : 				{
					"fontface" : 0,
					"fontsize" : 12.0,
					"id" : "obj-16",
					"maxclass" : "o.display",
					"numinlets" : 1,
					"numoutlets" : 1,
					"outlettype" : [ "" ],
					"patching_rect" : [ 678.0, 542.0, 227.0, 34.0 ]
				}

			}
, 			{
				"box" : 				{
					"color" : [ 0.4, 0.8, 1.0, 1.0 ],
					"id" : "obj-17",
					"maxclass" : "newobj",
					"numinlets" : 1,
					"numoutlets" : 2,
					"outlettype" : [ "", "FullPacket" ],
					"patching_rect" : [ 678.0, 506.0, 104.0, 22.0 ],
					"text" : "o.select /transport"
				}

			}
, 			{
				"box" : 				{
					"fontface" : 0,
					"fontsize" : 12.0,
					"id" : "obj-3",
					"maxclass" : "o.display",
					"numinlets" : 1,
					"numoutlets" : 1,
					"outlettype" : [ "" ],
					"patching_rect" : [ 678.0, 381.0, 227.0, 34.0 ]
				}

			}
, 			{
				"box" : 				{
					"color" : [ 0.4, 0.8, 1.0, 1.0 ],
					"id" : "obj-4",
					"maxclass" : "newobj",
					"numinlets" : 1,
					"numoutlets" : 2,
					"outlettype" : [ "", "FullPacket" ],
					"patching_rect" : [ 678.0, 345.0, 89.0, 22.0 ],
					"text" : "o.select /rslider"
				}

			}
, 			{
				"box" : 				{
					"fontface" : 0,
					"fontsize" : 12.0,
					"id" : "obj-22",
					"maxclass" : "o.display",
					"numinlets" : 1,
					"numoutlets" : 1,
					"outlettype" : [ "" ],
					"patching_rect" : [ 445.0, 381.0, 227.0, 34.0 ]
				}

			}
, 			{
				"box" : 				{
					"color" : [ 0.4, 0.8, 1.0, 1.0 ],
					"id" : "obj-23",
					"maxclass" : "newobj",
					"numinlets" : 1,
					"numoutlets" : 2,
					"outlettype" : [ "", "FullPacket" ],
					"patching_rect" : [ 445.0, 345.0, 111.0, 22.0 ],
					"text" : "o.select /slider/vert"
				}

			}
, 			{
				"box" : 				{
					"fontface" : 0,
					"fontsize" : 12.0,
					"id" : "obj-19",
					"maxclass" : "o.display",
					"numinlets" : 1,
					"numoutlets" : 1,
					"outlettype" : [ "" ],
					"patching_rect" : [ 911.0, 542.0, 203.0, 34.0 ]
				}

			}
, 			{
				"box" : 				{
					"color" : [ 0.4, 0.8, 1.0, 1.0 ],
					"id" : "obj-20",
					"maxclass" : "newobj",
					"numinlets" : 1,
					"numoutlets" : 2,
					"outlettype" : [ "", "FullPacket" ],
					"patching_rect" : [ 911.0, 506.0, 91.0, 22.0 ],
					"text" : "o.select /rotary"
				}

			}
, 			{
				"box" : 				{
					"fontface" : 0,
					"fontsize" : 12.0,
					"id" : "obj-13",
					"maxclass" : "o.display",
					"numinlets" : 1,
					"numoutlets" : 1,
					"outlettype" : [ "" ],
					"patching_rect" : [ 911.0, 381.0, 298.0, 34.0 ]
				}

			}
, 			{
				"box" : 				{
					"fontface" : 0,
					"fontsize" : 12.0,
					"id" : "obj-12",
					"maxclass" : "o.display",
					"numinlets" : 1,
					"numoutlets" : 1,
					"outlettype" : [ "" ],
					"patching_rect" : [ 194.0, 381.0, 243.0, 34.0 ]
				}

			}
, 			{
				"box" : 				{
					"fontface" : 0,
					"fontsize" : 12.0,
					"id" : "obj-11",
					"maxclass" : "o.display",
					"numinlets" : 1,
					"numoutlets" : 1,
					"outlettype" : [ "" ],
					"patching_rect" : [ 8.0, 381.0, 181.0, 34.0 ]
				}

			}
, 			{
				"box" : 				{
					"fontface" : 1,
					"id" : "obj-10",
					"linecount" : 2,
					"maxclass" : "comment",
					"numinlets" : 1,
					"numoutlets" : 0,
					"patching_rect" : [ 445.0, 277.0, 162.0, 33.0 ],
					"text" : "use o.select to divide the data into smaller streams"
				}

			}
, 			{
				"box" : 				{
					"color" : [ 0.4, 0.8, 1.0, 1.0 ],
					"id" : "obj-7",
					"maxclass" : "newobj",
					"numinlets" : 1,
					"numoutlets" : 2,
					"outlettype" : [ "", "FullPacket" ],
					"patching_rect" : [ 911.0, 345.0, 89.0, 22.0 ],
					"text" : "o.select /arrow"
				}

			}
, 			{
				"box" : 				{
					"color" : [ 0.4, 0.8, 1.0, 1.0 ],
					"id" : "obj-6",
					"maxclass" : "newobj",
					"numinlets" : 1,
					"numoutlets" : 2,
					"outlettype" : [ "", "FullPacket" ],
					"patching_rect" : [ 194.0, 345.0, 117.0, 22.0 ],
					"text" : "o.select /slider/horiz"
				}

			}
, 			{
				"box" : 				{
					"fontface" : 0,
					"fontname" : "Arial",
					"id" : "obj-5",
					"linecount" : 7,
					"maxclass" : "comment",
					"numinlets" : 1,
					"numoutlets" : 0,
					"patching_rect" : [ 61.0, 44.5, 519.0, 100.0 ],
					"text" : "There are several controllers on your QuNeo:\n- /pad\n- /slider\n- /rslider\n- /arrow\n- /rotary\n- /transport",
					"textcolor" : [ 0.113725490196078, 0.105882352941176, 0.125490196078431, 1.0 ]
				}

			}
, 			{
				"box" : 				{
					"color" : [ 0.4, 0.8, 1.0, 1.0 ],
					"id" : "obj-21",
					"maxclass" : "newobj",
					"numinlets" : 1,
					"numoutlets" : 2,
					"outlettype" : [ "", "FullPacket" ],
					"patching_rect" : [ 8.0, 345.0, 79.0, 22.0 ],
					"text" : "o.select /pad"
				}

			}
, 			{
				"box" : 				{
					"fontface" : 3,
					"fontsize" : 18.0,
					"id" : "obj-2",
					"maxclass" : "comment",
					"numinlets" : 1,
					"numoutlets" : 0,
					"patching_rect" : [ 14.0, 13.0, 390.0, 27.0 ],
					"text" : "what addresses come out of the o.io.quneo?"
				}

			}
, 			{
				"box" : 				{
					"id" : "obj-18",
					"maxclass" : "newobj",
					"numinlets" : 0,
					"numoutlets" : 1,
					"outlettype" : [ "FullPacket" ],
					"patching_rect" : [ 8.0, 238.5, 114.0, 22.0 ],
					"text" : "o.io.quneo QUNEO"
				}

			}
 ],
		"lines" : [ 			{
				"patchline" : 				{
					"destination" : [ "obj-17", 0 ],
					"midpoints" : [ 17.5, 320.75, 687.5, 320.75 ],
					"order" : 2,
					"source" : [ "obj-1", 0 ]
				}

			}
, 			{
				"patchline" : 				{
					"destination" : [ "obj-20", 0 ],
					"midpoints" : [ 17.5, 319.25, 920.5, 319.25 ],
					"order" : 0,
					"source" : [ "obj-1", 0 ]
				}

			}
, 			{
				"patchline" : 				{
					"destination" : [ "obj-21", 0 ],
					"order" : 6,
					"source" : [ "obj-1", 0 ]
				}

			}
, 			{
				"patchline" : 				{
					"destination" : [ "obj-23", 0 ],
					"midpoints" : [ 17.5, 319.25, 454.5, 319.25 ],
					"order" : 4,
					"source" : [ "obj-1", 0 ]
				}

			}
, 			{
				"patchline" : 				{
					"destination" : [ "obj-4", 0 ],
					"midpoints" : [ 17.5, 319.25, 687.5, 319.25 ],
					"order" : 3,
					"source" : [ "obj-1", 0 ]
				}

			}
, 			{
				"patchline" : 				{
					"destination" : [ "obj-6", 0 ],
					"midpoints" : [ 17.5, 319.25, 203.5, 319.25 ],
					"order" : 5,
					"source" : [ "obj-1", 0 ]
				}

			}
, 			{
				"patchline" : 				{
					"destination" : [ "obj-7", 0 ],
					"midpoints" : [ 17.5, 319.25, 920.5, 319.25 ],
					"order" : 1,
					"source" : [ "obj-1", 0 ]
				}

			}
, 			{
				"patchline" : 				{
					"destination" : [ "obj-16", 0 ],
					"source" : [ "obj-17", 0 ]
				}

			}
, 			{
				"patchline" : 				{
					"destination" : [ "obj-1", 0 ],
					"source" : [ "obj-18", 0 ]
				}

			}
, 			{
				"patchline" : 				{
					"destination" : [ "obj-19", 0 ],
					"source" : [ "obj-20", 0 ]
				}

			}
, 			{
				"patchline" : 				{
					"destination" : [ "obj-11", 0 ],
					"source" : [ "obj-21", 0 ]
				}

			}
, 			{
				"patchline" : 				{
					"destination" : [ "obj-22", 0 ],
					"source" : [ "obj-23", 0 ]
				}

			}
, 			{
				"patchline" : 				{
					"destination" : [ "obj-3", 0 ],
					"source" : [ "obj-4", 0 ]
				}

			}
, 			{
				"patchline" : 				{
					"destination" : [ "obj-12", 0 ],
					"source" : [ "obj-6", 0 ]
				}

			}
, 			{
				"patchline" : 				{
					"destination" : [ "obj-13", 0 ],
					"source" : [ "obj-7", 0 ]
				}

			}
 ],
		"dependency_cache" : [ 			{
				"name" : "o.io.quneo.maxpat",
				"bootpath" : "~/Documents/max_enabled/teaching+lessons/158pedagogy_maija/patchers/io/quneo",
				"patcherrelativepath" : "../../../../../max_enabled/teaching+lessons/158pedagogy_maija/patchers/io/quneo",
				"type" : "JSON",
				"implicit" : 1
			}
, 			{
				"name" : "o.io.quneo.h.pad.maxpat",
				"bootpath" : "~/Documents/max_enabled/teaching+lessons/158pedagogy_maija/patchers/io/quneo",
				"patcherrelativepath" : "../../../../../max_enabled/teaching+lessons/158pedagogy_maija/patchers/io/quneo",
				"type" : "JSON",
				"implicit" : 1
			}
, 			{
				"name" : "o.io.quneo.h.hslide.maxpat",
				"bootpath" : "~/Documents/max_enabled/teaching+lessons/158pedagogy_maija/patchers/io/quneo",
				"patcherrelativepath" : "../../../../../max_enabled/teaching+lessons/158pedagogy_maija/patchers/io/quneo",
				"type" : "JSON",
				"implicit" : 1
			}
, 			{
				"name" : "o.io.quneo.h.vslide.maxpat",
				"bootpath" : "~/Documents/max_enabled/teaching+lessons/158pedagogy_maija/patchers/io/quneo",
				"patcherrelativepath" : "../../../../../max_enabled/teaching+lessons/158pedagogy_maija/patchers/io/quneo",
				"type" : "JSON",
				"implicit" : 1
			}
, 			{
				"name" : "o.io.quneo.h.rot.maxpat",
				"bootpath" : "~/Documents/max_enabled/teaching+lessons/158pedagogy_maija/patchers/io/quneo",
				"patcherrelativepath" : "../../../../../max_enabled/teaching+lessons/158pedagogy_maija/patchers/io/quneo",
				"type" : "JSON",
				"implicit" : 1
			}
, 			{
				"name" : "o.io.quneo.h.lrarrow.maxpat",
				"bootpath" : "~/Documents/max_enabled/teaching+lessons/158pedagogy_maija/patchers/io/quneo",
				"patcherrelativepath" : "../../../../../max_enabled/teaching+lessons/158pedagogy_maija/patchers/io/quneo",
				"type" : "JSON",
				"implicit" : 1
			}
, 			{
				"name" : "o.io.quneo.h.udarrow.maxpat",
				"bootpath" : "~/Documents/max_enabled/teaching+lessons/158pedagogy_maija/patchers/io/quneo",
				"patcherrelativepath" : "../../../../../max_enabled/teaching+lessons/158pedagogy_maija/patchers/io/quneo",
				"type" : "JSON",
				"implicit" : 1
			}
, 			{
				"name" : "o.io.quneo.h.transport.maxpat",
				"bootpath" : "~/Documents/max_enabled/teaching+lessons/158pedagogy_maija/patchers/io/quneo",
				"patcherrelativepath" : "../../../../../max_enabled/teaching+lessons/158pedagogy_maija/patchers/io/quneo",
				"type" : "JSON",
				"implicit" : 1
			}
, 			{
				"name" : "o.io.quneo.h.rslider.maxpat",
				"bootpath" : "~/Documents/max_enabled/teaching+lessons/158pedagogy_maija/patchers/io/quneo",
				"patcherrelativepath" : "../../../../../max_enabled/teaching+lessons/158pedagogy_maija/patchers/io/quneo",
				"type" : "JSON",
				"implicit" : 1
			}
, 			{
				"name" : "o.accum.maxpat",
				"bootpath" : "~/Documents/max_enabled/teaching+lessons/158pedagogy_maija/patchers/gatherers",
				"patcherrelativepath" : "../../../../../max_enabled/teaching+lessons/158pedagogy_maija/patchers/gatherers",
				"type" : "JSON",
				"implicit" : 1
			}
, 			{
				"name" : "o.pack.mxo",
				"type" : "iLaX"
			}
, 			{
				"name" : "o.select.mxo",
				"type" : "iLaX"
			}
, 			{
				"name" : "o.display.mxo",
				"type" : "iLaX"
			}
, 			{
				"name" : "o.union.mxo",
				"type" : "iLaX"
			}
 ],
		"autosave" : 0,
		"styles" : []

	}

}
